<svg xmlns="http://www.w3.org/2000/svg" xmlns:xlink="http://www.w3.org/1999/xlink" width="500" zoomAndPan="magnify" viewBox="0 0 375 374.999991" height="500" preserveAspectRatio="xMidYMid meet" version="1.0"><defs><clipPath id="fb5bc169e0"><path d="M 70.664062 0 L 318.914062 0 L 318.914062 375 L 70.664062 375 Z M 70.664062 0 " clip-rule="nonzero"/></clipPath></defs><rect x="-37.5" width="450" fill="#ffffff" y="-37.499999" height="449.999989" fill-opacity="1"/><rect x="-37.5" width="450" fill="#ffffff" y="-37.499999" height="449.999989" fill-opacity="1"/><g clip-path="url(#fb5bc169e0)"><path fill="#84caed" d="M 194.789062 376.867188 C 126.550781 376.867188 70.664062 320.96875 70.664062 252.71875 L 70.664062 124.53125 C 70.664062 56.28125 126.550781 0.382812 194.789062 0.382812 C 263.027344 0.382812 318.914062 56.28125 318.914062 124.53125 L 318.914062 252.71875 C 318.914062 320.96875 263.027344 376.867188 194.789062 376.867188 Z M 194.789062 376.867188 " fill-opacity="1" fill-rule="nonzero"/></g><path fill="#ff7f1d" d="M 293.28125 132.183594 C 293.28125 143.699219 283.953125 153.027344 272.441406 153.027344 C 260.929688 153.027344 251.601562 143.699219 251.601562 132.183594 C 251.601562 120.667969 260.929688 111.335938 272.441406 111.335938 C 283.953125 111.335938 293.28125 120.667969 293.28125 132.183594 Z M 117.054688 111.335938 C 105.539062 111.335938 96.210938 120.667969 96.210938 132.183594 C 96.210938 143.699219 105.539062 153.027344 117.054688 153.027344 C 128.566406 153.027344 137.894531 143.613281 137.894531 132.183594 C 137.894531 120.75 128.566406 111.335938 117.054688 111.335938 Z M 117.054688 111.335938 " fill-opacity="1" fill-rule="nonzero"/><path fill="#2e2e2e" d="M 161.007812 113.351562 C 144.785156 113.351562 133.273438 99.0625 132.011719 97.46875 C 128.902344 93.515625 129.660156 87.800781 133.695312 84.691406 C 137.644531 81.664062 143.359375 82.335938 146.46875 86.289062 C 148.316406 88.640625 155.039062 95.28125 161.257812 95.113281 C 165.207031 95.03125 169.15625 92.171875 173.191406 86.539062 C 176.132812 82.421875 181.765625 81.496094 185.882812 84.4375 C 190 87.378906 190.925781 93.011719 187.984375 97.128906 C 178.570312 110.242188 168.402344 113.183594 161.511719 113.269531 C 161.425781 113.351562 161.175781 113.351562 161.007812 113.351562 Z M 231.765625 113.351562 C 238.65625 113.183594 248.828125 110.328125 258.238281 97.214844 C 261.179688 93.097656 260.171875 87.464844 256.136719 84.523438 C 252.019531 81.582031 246.390625 82.503906 243.449219 86.625 C 239.5 92.171875 235.464844 95.113281 231.515625 95.199219 C 225.210938 95.367188 218.574219 88.726562 216.722656 86.371094 C 213.613281 82.421875 207.984375 81.664062 203.949219 84.773438 C 200 87.882812 199.242188 93.601562 202.269531 97.550781 C 203.53125 99.230469 215.042969 113.4375 231.261719 113.4375 C 231.429688 113.351562 231.597656 113.351562 231.765625 113.351562 Z M 195.882812 150.253906 C 202.773438 150.085938 212.941406 147.226562 222.355469 134.113281 C 225.296875 129.996094 224.289062 124.363281 220.253906 121.421875 C 216.136719 118.480469 210.503906 119.40625 207.5625 123.523438 C 203.613281 129.070312 199.578125 132.015625 195.628906 132.097656 C 189.410156 132.265625 182.6875 125.625 180.839844 123.273438 C 177.730469 119.320312 172.097656 118.566406 168.066406 121.675781 C 164.117188 124.785156 163.359375 130.5 166.382812 134.453125 C 167.644531 136.132812 179.160156 150.335938 195.378906 150.335938 C 195.546875 150.253906 195.714844 150.253906 195.882812 150.253906 Z M 195.882812 150.253906 " fill-opacity="1" fill-rule="nonzero"/></svg>