<svg xmlns="http://www.w3.org/2000/svg" xmlns:xlink="http://www.w3.org/1999/xlink" width="500" zoomAndPan="magnify" viewBox="0 0 375 374.999991" height="500" preserveAspectRatio="xMidYMid meet" version="1.0"><defs><g/><clipPath id="ae8461445d"><path d="M 29 250 L 212 250 L 212 375 L 29 375 Z M 29 250 " clip-rule="nonzero"/></clipPath><clipPath id="ce56ff3025"><path d="M 55.296875 225.453125 L 236.566406 276.242188 L 185.777344 457.511719 L 4.507812 406.722656 Z M 55.296875 225.453125 " clip-rule="nonzero"/></clipPath><clipPath id="7d78ebf394"><path d="M 55.296875 225.453125 L 236.566406 276.242188 L 185.777344 457.511719 L 4.507812 406.722656 Z M 55.296875 225.453125 " clip-rule="nonzero"/></clipPath><clipPath id="92bbfdc48f"><path d="M 81 309 L 165 309 L 165 355 L 81 355 Z M 81 309 " clip-rule="nonzero"/></clipPath><clipPath id="1d72eec68f"><path d="M 55.296875 225.453125 L 236.566406 276.242188 L 185.777344 457.511719 L 4.507812 406.722656 Z M 55.296875 225.453125 " clip-rule="nonzero"/></clipPath><clipPath id="61b46c8d3d"><path d="M 55.296875 225.453125 L 236.566406 276.242188 L 185.777344 457.511719 L 4.507812 406.722656 Z M 55.296875 225.453125 " clip-rule="nonzero"/></clipPath><clipPath id="98ceb76231"><path d="M 63 329 L 173 329 L 173 374 L 63 374 Z M 63 329 " clip-rule="nonzero"/></clipPath><clipPath id="c6884667bd"><path d="M 55.296875 225.453125 L 236.566406 276.242188 L 185.777344 457.511719 L 4.507812 406.722656 Z M 55.296875 225.453125 " clip-rule="nonzero"/></clipPath><clipPath id="a42c2e3a16"><path d="M 55.296875 225.453125 L 236.566406 276.242188 L 185.777344 457.511719 L 4.507812 406.722656 Z M 55.296875 225.453125 " clip-rule="nonzero"/></clipPath><clipPath id="b6fd763fae"><path d="M 88 315 L 159 315 L 159 349 L 88 349 Z M 88 315 " clip-rule="nonzero"/></clipPath><clipPath id="733249636f"><path d="M 55.296875 225.453125 L 236.566406 276.242188 L 185.777344 457.511719 L 4.507812 406.722656 Z M 55.296875 225.453125 " clip-rule="nonzero"/></clipPath><clipPath id="d34cf2fd77"><path d="M 55.296875 225.453125 L 236.566406 276.242188 L 185.777344 457.511719 L 4.507812 406.722656 Z M 55.296875 225.453125 " clip-rule="nonzero"/></clipPath><clipPath id="0233d749fd"><path d="M 100 336 L 140 336 L 140 358 L 100 358 Z M 100 336 " clip-rule="nonzero"/></clipPath><clipPath id="3bbe019649"><path d="M 55.296875 225.453125 L 236.566406 276.242188 L 185.777344 457.511719 L 4.507812 406.722656 Z M 55.296875 225.453125 " clip-rule="nonzero"/></clipPath><clipPath id="bd30872bc4"><path d="M 55.296875 225.453125 L 236.566406 276.242188 L 185.777344 457.511719 L 4.507812 406.722656 Z M 55.296875 225.453125 " clip-rule="nonzero"/></clipPath><clipPath id="72c6905add"><path d="M 178 251 L 343 251 L 343 375 L 178 375 Z M 178 251 " clip-rule="nonzero"/></clipPath><clipPath id="b4ee4be889"><path d="M 162.175781 270.074219 L 324.875 234.703125 L 362 405.460938 L 199.300781 440.835938 Z M 162.175781 270.074219 " clip-rule="nonzero"/></clipPath><clipPath id="6c5d5cdb75"><path d="M 162.175781 270.074219 L 324.875 234.703125 L 362 405.460938 L 199.300781 440.835938 Z M 162.175781 270.074219 " clip-rule="nonzero"/></clipPath><clipPath id="ff20bea449"><path d="M 224 306 L 296 306 L 296 349 L 224 349 Z M 224 306 " clip-rule="nonzero"/></clipPath><clipPath id="b6c2bac576"><path d="M 162.175781 270.074219 L 324.875 234.703125 L 362 405.460938 L 199.300781 440.835938 Z M 162.175781 270.074219 " clip-rule="nonzero"/></clipPath><clipPath id="e7b898dea0"><path d="M 162.175781 270.074219 L 324.875 234.703125 L 362 405.460938 L 199.300781 440.835938 Z M 162.175781 270.074219 " clip-rule="nonzero"/></clipPath><clipPath id="c5a1bc02b3"><path d="M 214 328 L 314 328 L 314 367 L 214 367 Z M 214 328 " clip-rule="nonzero"/></clipPath><clipPath id="febfe518cc"><path d="M 162.175781 270.074219 L 324.875 234.703125 L 362 405.460938 L 199.300781 440.835938 Z M 162.175781 270.074219 " clip-rule="nonzero"/></clipPath><clipPath id="7fd57380c4"><path d="M 162.175781 270.074219 L 324.875 234.703125 L 362 405.460938 L 199.300781 440.835938 Z M 162.175781 270.074219 " clip-rule="nonzero"/></clipPath><clipPath id="b1cb6012e2"><path d="M 229 337 L 301 337 L 301 366 L 229 366 Z M 229 337 " clip-rule="nonzero"/></clipPath><clipPath id="4b707a750f"><path d="M 162.175781 270.074219 L 324.875 234.703125 L 362 405.460938 L 199.300781 440.835938 Z M 162.175781 270.074219 " clip-rule="nonzero"/></clipPath><clipPath id="738c263999"><path d="M 162.175781 270.074219 L 324.875 234.703125 L 362 405.460938 L 199.300781 440.835938 Z M 162.175781 270.074219 " clip-rule="nonzero"/></clipPath><clipPath id="3b921da0c4"><path d="M 230 312 L 289 312 L 289 342 L 230 342 Z M 230 312 " clip-rule="nonzero"/></clipPath><clipPath id="74d9ef6fd4"><path d="M 162.175781 270.074219 L 324.875 234.703125 L 362 405.460938 L 199.300781 440.835938 Z M 162.175781 270.074219 " clip-rule="nonzero"/></clipPath><clipPath id="90c5451cee"><path d="M 162.175781 270.074219 L 324.875 234.703125 L 362 405.460938 L 199.300781 440.835938 Z M 162.175781 270.074219 " clip-rule="nonzero"/></clipPath></defs><rect x="-37.5" width="450" fill="#ffffff" y="-37.499999" height="449.999989" fill-opacity="1"/><rect x="-37.5" width="450" fill="#ffffff" y="-37.499999" height="449.999989" fill-opacity="1"/><g fill="#2e2e2e" fill-opacity="1"><g transform="translate(81.668738, 30.696376)"><g><path d="M 14.167969 -9.398438 L 21.226562 -8.273438 C 20.101562 -2.789062 16.550781 0.359375 11.332031 0.359375 C 4.855469 0.359375 1.214844 -3.867188 1.214844 -11.242188 C 1.214844 -18.664062 4.855469 -22.847656 11.332031 -22.847656 C 16.550781 -22.847656 20.101562 -19.742188 21.226562 -14.210938 L 14.167969 -13.085938 C 13.808594 -15.289062 12.773438 -16.550781 11.378906 -16.550781 C 9.488281 -16.550781 8.410156 -14.660156 8.410156 -11.242188 C 8.410156 -7.871094 9.488281 -5.980469 11.378906 -5.980469 C 12.863281 -5.980469 13.851562 -7.195312 14.167969 -9.398438 Z M 14.167969 -9.398438 "/></g></g></g><g fill="#2e2e2e" fill-opacity="1"><g transform="translate(104.064801, 30.696376)"><g><path d="M 8.816406 -22.488281 L 1.484375 -22.488281 L 1.484375 0 L 8.816406 0 Z M 8.816406 -22.488281 "/></g></g></g><g fill="#2e2e2e" fill-opacity="1"><g transform="translate(114.318415, 30.696376)"><g><path d="M 20.644531 -17.988281 L 13.3125 -17.988281 L 13.3125 -15.515625 C 12.277344 -17.359375 10.703125 -18.347656 8.726562 -18.347656 C 3.824219 -18.347656 1.078125 -14.976562 1.078125 -8.996094 C 1.078125 -3.058594 3.824219 0.359375 8.726562 0.359375 C 10.703125 0.359375 12.277344 -0.675781 13.3125 -2.519531 L 13.3125 0 L 20.644531 0 Z M 10.839844 -5.53125 C 9.175781 -5.53125 8.273438 -6.789062 8.273438 -8.996094 C 8.273438 -11.242188 9.175781 -12.503906 10.839844 -12.503906 C 12.457031 -12.503906 13.3125 -11.242188 13.3125 -8.996094 C 13.3125 -6.789062 12.457031 -5.53125 10.839844 -5.53125 Z M 10.839844 -5.53125 "/></g></g></g><g fill="#2e2e2e" fill-opacity="1"><g transform="translate(136.399676, 30.696376)"><g><path d="M 5.488281 -6.609375 C 7.015625 -5.488281 8.859375 -4.902344 10.570312 -4.902344 C 12.773438 -4.902344 13.988281 -5.261719 13.988281 -5.847656 C 13.988281 -7.824219 0.808594 -4.316406 0.808594 -12.503906 C 0.808594 -16.234375 4.226562 -18.347656 10.34375 -18.347656 C 13.988281 -18.347656 17.359375 -17.089844 19.699219 -14.886719 L 15.695312 -11.378906 C 14.121094 -12.546875 12.277344 -13.175781 10.570312 -13.175781 C 8.410156 -13.175781 7.195312 -12.773438 7.195312 -12.144531 C 7.195312 -10.433594 20.371094 -13.71875 20.371094 -5.53125 C 20.371094 -1.753906 16.910156 0.359375 10.792969 0.316406 C 7.554688 0.316406 4.183594 -0.945312 1.484375 -3.101562 Z M 5.488281 -6.609375 "/></g></g></g><g fill="#2e2e2e" fill-opacity="1"><g transform="translate(157.536519, 30.696376)"><g><path d="M 5.488281 -6.609375 C 7.015625 -5.488281 8.859375 -4.902344 10.570312 -4.902344 C 12.773438 -4.902344 13.988281 -5.261719 13.988281 -5.847656 C 13.988281 -7.824219 0.808594 -4.316406 0.808594 -12.503906 C 0.808594 -16.234375 4.226562 -18.347656 10.34375 -18.347656 C 13.988281 -18.347656 17.359375 -17.089844 19.699219 -14.886719 L 15.695312 -11.378906 C 14.121094 -12.546875 12.277344 -13.175781 10.570312 -13.175781 C 8.410156 -13.175781 7.195312 -12.773438 7.195312 -12.144531 C 7.195312 -10.433594 20.371094 -13.71875 20.371094 -5.53125 C 20.371094 -1.753906 16.910156 0.359375 10.792969 0.316406 C 7.554688 0.316406 4.183594 -0.945312 1.484375 -3.101562 Z M 5.488281 -6.609375 "/></g></g></g><g fill="#2e2e2e" fill-opacity="1"><g transform="translate(178.673363, 30.696376)"><g><path d="M 13.941406 -18.347656 C 11.601562 -18.304688 9.804688 -17.226562 8.769531 -15.15625 L 8.769531 -17.988281 L 1.484375 -17.988281 L 1.484375 0 L 8.769531 0 L 8.769531 -7.464844 C 9.175781 -10.570312 10.074219 -12.277344 11.332031 -12.277344 C 12.59375 -12.277344 13.808594 -11.601562 14.660156 -10.433594 L 19.652344 -15.066406 C 18.4375 -17.316406 16.28125 -18.347656 13.941406 -18.347656 Z M 13.941406 -18.347656 "/></g></g></g><g fill="#2e2e2e" fill-opacity="1"><g transform="translate(198.685909, 30.696376)"><g><path d="M 10.839844 0.359375 C 17.089844 0.359375 20.644531 -3.058594 20.644531 -8.996094 C 20.644531 -14.976562 17.089844 -18.347656 10.839844 -18.347656 C 4.585938 -18.347656 1.078125 -14.976562 1.078125 -8.996094 C 1.078125 -3.058594 4.585938 0.359375 10.839844 0.359375 Z M 10.839844 -5.53125 C 9.175781 -5.53125 8.273438 -6.789062 8.273438 -8.996094 C 8.273438 -11.242188 9.175781 -12.503906 10.839844 -12.503906 C 12.503906 -12.503906 13.445312 -11.242188 13.445312 -8.996094 C 13.445312 -6.789062 12.503906 -5.53125 10.839844 -5.53125 Z M 10.839844 -5.53125 "/></g></g></g><g fill="#2e2e2e" fill-opacity="1"><g transform="translate(220.362418, 30.696376)"><g><path d="M 10.839844 0.359375 C 17.089844 0.359375 20.644531 -3.058594 20.644531 -8.996094 C 20.644531 -14.976562 17.089844 -18.347656 10.839844 -18.347656 C 4.585938 -18.347656 1.078125 -14.976562 1.078125 -8.996094 C 1.078125 -3.058594 4.585938 0.359375 10.839844 0.359375 Z M 10.839844 -5.53125 C 9.175781 -5.53125 8.273438 -6.789062 8.273438 -8.996094 C 8.273438 -11.242188 9.175781 -12.503906 10.839844 -12.503906 C 12.503906 -12.503906 13.445312 -11.242188 13.445312 -8.996094 C 13.445312 -6.789062 12.503906 -5.53125 10.839844 -5.53125 Z M 10.839844 -5.53125 "/></g></g></g><g fill="#2e2e2e" fill-opacity="1"><g transform="translate(242.038936, 30.696376)"><g><path d="M 26.175781 -18.347656 C 23.386719 -18.304688 21.40625 -16.773438 20.464844 -14.078125 C 19.472656 -16.820312 17.226562 -18.347656 14.03125 -18.347656 C 11.648438 -18.304688 9.847656 -17.226562 8.769531 -15.15625 L 8.769531 -17.988281 L 1.484375 -17.988281 L 1.484375 0 L 8.769531 0 L 8.769531 -8.949219 C 9.21875 -11.109375 10.164062 -12.277344 11.421875 -12.277344 C 12.90625 -12.277344 13.71875 -10.613281 13.71875 -7.644531 L 13.71875 0 L 21.046875 0 L 21.046875 -9.308594 C 21.496094 -11.199219 22.398438 -12.277344 23.519531 -12.277344 C 25.003906 -12.277344 25.859375 -10.613281 25.859375 -7.644531 L 25.859375 0 L 33.144531 0 L 33.144531 -10.210938 C 33.144531 -15.382812 30.628906 -18.347656 26.175781 -18.347656 Z M 26.175781 -18.347656 "/></g></g></g><g fill="#2e2e2e" fill-opacity="1"><g transform="translate(81.668738, 67.886217)"><g><path d="M 13.355469 -22.488281 L 1.484375 -22.488281 L 1.484375 0 L 8.769531 0 L 8.769531 -7.960938 L 13.941406 -7.960938 C 18.484375 -8.273438 21.046875 -10.792969 21.046875 -15.15625 C 21.046875 -19.832031 18.257812 -22.488281 13.355469 -22.488281 Z M 12.367188 -13.492188 L 8.769531 -13.492188 L 8.769531 -16.863281 L 12.367188 -16.863281 C 13.71875 -16.863281 14.527344 -16.234375 14.527344 -15.15625 C 14.527344 -14.121094 13.71875 -13.492188 12.367188 -13.492188 Z M 12.367188 -13.492188 "/></g></g></g><g fill="#2e2e2e" fill-opacity="1"><g transform="translate(103.66005, 67.886217)"><g><path d="M 10.839844 0.359375 C 17.089844 0.359375 20.644531 -3.058594 20.644531 -8.996094 C 20.644531 -14.976562 17.089844 -18.347656 10.839844 -18.347656 C 4.585938 -18.347656 1.078125 -14.976562 1.078125 -8.996094 C 1.078125 -3.058594 4.585938 0.359375 10.839844 0.359375 Z M 10.839844 -5.53125 C 9.175781 -5.53125 8.273438 -6.789062 8.273438 -8.996094 C 8.273438 -11.242188 9.175781 -12.503906 10.839844 -12.503906 C 12.503906 -12.503906 13.445312 -11.242188 13.445312 -8.996094 C 13.445312 -6.789062 12.503906 -5.53125 10.839844 -5.53125 Z M 10.839844 -5.53125 "/></g></g></g><g fill="#2e2e2e" fill-opacity="1"><g transform="translate(125.336558, 67.886217)"><g><path d="M 8.816406 -22.488281 L 1.484375 -22.488281 L 1.484375 0 L 8.816406 0 Z M 8.816406 -22.488281 "/></g></g></g><g fill="#2e2e2e" fill-opacity="1"><g transform="translate(135.590173, 67.886217)"><g><path d="M 5.128906 -19.203125 C 7.464844 -19.203125 8.816406 -20.28125 8.816406 -22.128906 C 8.816406 -23.972656 7.464844 -25.050781 5.128906 -25.050781 C 2.789062 -25.050781 1.484375 -23.972656 1.484375 -22.128906 C 1.484375 -20.28125 2.789062 -19.203125 5.128906 -19.203125 Z M 8.816406 -17.988281 L 1.484375 -17.988281 L 1.484375 0 L 8.816406 0 Z M 8.816406 -17.988281 "/></g></g></g><g fill="#2e2e2e" fill-opacity="1"><g transform="translate(145.843787, 67.886217)"><g><path d="M 20.507812 -6.699219 C 19.742188 -2.203125 16.28125 0.359375 10.839844 0.359375 C 4.585938 0.359375 1.078125 -3.058594 1.078125 -8.996094 C 1.078125 -14.976562 4.585938 -18.347656 10.839844 -18.347656 C 16.324219 -18.347656 19.789062 -15.832031 20.507812 -11.332031 L 13.582031 -10.164062 C 13.265625 -11.648438 12.324219 -12.503906 10.839844 -12.503906 C 9.21875 -12.503906 8.273438 -11.242188 8.273438 -8.996094 C 8.273438 -6.789062 9.21875 -5.53125 10.839844 -5.53125 C 12.324219 -5.53125 13.265625 -6.386719 13.582031 -7.871094 Z M 20.507812 -6.699219 "/></g></g></g><g fill="#2e2e2e" fill-opacity="1"><g transform="translate(167.385382, 67.886217)"><g><path d="M 5.128906 -19.203125 C 7.464844 -19.203125 8.816406 -20.28125 8.816406 -22.128906 C 8.816406 -23.972656 7.464844 -25.050781 5.128906 -25.050781 C 2.789062 -25.050781 1.484375 -23.972656 1.484375 -22.128906 C 1.484375 -20.28125 2.789062 -19.203125 5.128906 -19.203125 Z M 8.816406 -17.988281 L 1.484375 -17.988281 L 1.484375 0 L 8.816406 0 Z M 8.816406 -17.988281 "/></g></g></g><g fill="#2e2e2e" fill-opacity="1"><g transform="translate(177.638996, 67.886217)"><g><path d="M 20.644531 -8.996094 C 20.644531 -14.976562 17.089844 -18.347656 10.839844 -18.347656 C 4.585938 -18.347656 1.078125 -14.976562 1.078125 -8.996094 C 1.078125 -3.058594 4.585938 0.359375 10.839844 0.359375 C 15.335938 0.359375 18.617188 -1.617188 19.96875 -5.128906 L 12.726562 -6.339844 C 12.414062 -5.53125 11.78125 -5.082031 10.929688 -5.082031 C 9.804688 -5.082031 9.039062 -5.710938 8.589844 -6.925781 L 20.371094 -6.925781 C 20.507812 -7.601562 20.644531 -8.320312 20.644531 -8.996094 Z M 13.132812 -10.660156 L 8.410156 -10.660156 C 8.769531 -12.144531 9.578125 -12.953125 10.839844 -12.953125 C 11.738281 -12.953125 12.546875 -12.144531 13.132812 -10.660156 Z M 13.132812 -10.660156 "/></g></g></g><g fill="#2e2e2e" fill-opacity="1"><g transform="translate(199.315505, 67.886217)"><g><path d="M 5.488281 -6.609375 C 7.015625 -5.488281 8.859375 -4.902344 10.570312 -4.902344 C 12.773438 -4.902344 13.988281 -5.261719 13.988281 -5.847656 C 13.988281 -7.824219 0.808594 -4.316406 0.808594 -12.503906 C 0.808594 -16.234375 4.226562 -18.347656 10.34375 -18.347656 C 13.988281 -18.347656 17.359375 -17.089844 19.699219 -14.886719 L 15.695312 -11.378906 C 14.121094 -12.546875 12.277344 -13.175781 10.570312 -13.175781 C 8.410156 -13.175781 7.195312 -12.773438 7.195312 -12.144531 C 7.195312 -10.433594 20.371094 -13.71875 20.371094 -5.53125 C 20.371094 -1.753906 16.910156 0.359375 10.792969 0.316406 C 7.554688 0.316406 4.183594 -0.945312 1.484375 -3.101562 Z M 5.488281 -6.609375 "/></g></g></g><g fill="#2e2e2e" fill-opacity="1"><g transform="translate(81.668738, 101.430705)"><g><path d="M 1.605469 0 L 8.339844 0 L 8.339844 -1.320312 L 2.988281 -1.320312 L 2.988281 -11.015625 L 1.605469 -11.015625 Z M 1.605469 0 "/></g></g></g><g fill="#2e2e2e" fill-opacity="1"><g transform="translate(90.496367, 101.430705)"><g><path d="M 1.464844 0 L 2.785156 0 L 2.785156 -8.167969 L 1.464844 -8.167969 Z M 1.054688 -10.542969 C 1.054688 -9.960938 1.480469 -9.519531 2.125 -9.519531 C 2.769531 -9.519531 3.179688 -9.960938 3.179688 -10.542969 C 3.179688 -11.140625 2.769531 -11.582031 2.125 -11.582031 C 1.480469 -11.582031 1.054688 -11.140625 1.054688 -10.542969 Z M 1.054688 -10.542969 "/></g></g></g><g fill="#2e2e2e" fill-opacity="1"><g transform="translate(94.744957, 101.430705)"><g><path d="M 4.421875 0.203125 C 6.4375 0.203125 7.742188 -0.722656 7.742188 -2.140625 C 7.742188 -3.414062 6.671875 -4.28125 4.609375 -4.691406 C 2.910156 -5.019531 2.328125 -5.351562 2.328125 -6.042969 C 2.328125 -6.765625 3.023438 -7.207031 4.203125 -7.207031 C 5.445312 -7.207031 6.183594 -6.71875 6.28125 -5.824219 L 7.585938 -5.824219 C 7.476562 -7.429688 6.199219 -8.371094 4.1875 -8.371094 C 2.21875 -8.371094 1.023438 -7.507812 1.023438 -6.042969 C 1.023438 -4.753906 2.015625 -3.964844 4.125 -3.621094 C 5.710938 -3.351562 6.4375 -2.910156 6.4375 -2.171875 C 6.4375 -1.433594 5.679688 -0.976562 4.4375 -0.976562 C 3.039062 -0.976562 2.203125 -1.574219 2.15625 -2.566406 L 0.851562 -2.566406 C 0.882812 -0.898438 2.28125 0.203125 4.421875 0.203125 Z M 4.421875 0.203125 "/></g></g></g><g fill="#2e2e2e" fill-opacity="1"><g transform="translate(103.336554, 101.430705)"><g><path d="M 4.988281 0 L 6.214844 0 L 6.214844 -1.273438 L 5.050781 -1.273438 C 3.964844 -1.273438 3.460938 -1.824219 3.460938 -3.007812 L 3.460938 -6.957031 L 6.105469 -6.957031 L 6.105469 -8.167969 L 3.460938 -8.167969 L 3.460938 -10.199219 L 2.4375 -10.199219 L 2.3125 -9.097656 C 2.21875 -8.355469 2 -8.167969 1.242188 -8.167969 L 0.425781 -8.167969 L 0.425781 -6.957031 L 2.140625 -6.957031 L 2.140625 -2.941406 C 2.140625 -1.070312 3.179688 0 4.988281 0 Z M 4.988281 0 "/></g></g></g><g fill="#2e2e2e" fill-opacity="1"><g transform="translate(110.323125, 101.430705)"><g/></g></g><g fill="#2e2e2e" fill-opacity="1"><g transform="translate(114.225539, 101.430705)"><g><path d="M 1.464844 0 L 2.785156 0 L 2.785156 -4.171875 C 2.785156 -5.964844 3.871094 -7.113281 5.414062 -7.113281 C 6.832031 -7.113281 7.710938 -6.105469 7.710938 -4.46875 L 7.710938 0 L 9.035156 0 L 9.035156 -4.59375 C 9.035156 -6.925781 7.742188 -8.371094 5.585938 -8.371094 C 4.53125 -8.371094 3.492188 -7.980469 2.785156 -7.097656 L 2.785156 -11.644531 L 1.464844 -11.644531 Z M 1.464844 0 "/></g></g></g><g fill="#2e2e2e" fill-opacity="1"><g transform="translate(124.563779, 101.430705)"><g><path d="M 5.003906 0.203125 C 6.847656 0.203125 8.355469 -0.785156 9.019531 -2.375 L 7.523438 -2.375 C 7.019531 -1.511719 6.089844 -1.039062 5.019531 -1.039062 C 3.460938 -1.039062 2.359375 -2.015625 2.15625 -3.558594 L 9.222656 -3.558594 C 9.316406 -6.40625 7.632812 -8.371094 5.019531 -8.371094 C 2.550781 -8.371094 0.820312 -6.609375 0.820312 -4.09375 C 0.820312 -1.558594 2.535156 0.203125 5.003906 0.203125 Z M 2.171875 -4.722656 C 2.40625 -6.167969 3.507812 -7.128906 5.019531 -7.128906 C 6.515625 -7.128906 7.617188 -6.214844 7.898438 -4.722656 Z M 2.171875 -4.722656 "/></g></g></g><g fill="#2e2e2e" fill-opacity="1"><g transform="translate(134.57157, 101.430705)"><g><path d="M 1.464844 0 L 2.785156 0 L 2.785156 -3.792969 C 2.785156 -6.121094 3.949219 -6.941406 5.429688 -6.941406 L 6.230469 -6.941406 L 6.230469 -8.167969 L 5.492188 -8.167969 C 4.109375 -8.167969 3.289062 -7.726562 2.707031 -6.75 L 2.550781 -8.167969 L 1.464844 -8.167969 Z M 1.464844 0 "/></g></g></g><g fill="#2e2e2e" fill-opacity="1"><g transform="translate(141.43226, 101.430705)"><g><path d="M 5.003906 0.203125 C 6.847656 0.203125 8.355469 -0.785156 9.019531 -2.375 L 7.523438 -2.375 C 7.019531 -1.511719 6.089844 -1.039062 5.019531 -1.039062 C 3.460938 -1.039062 2.359375 -2.015625 2.15625 -3.558594 L 9.222656 -3.558594 C 9.316406 -6.40625 7.632812 -8.371094 5.019531 -8.371094 C 2.550781 -8.371094 0.820312 -6.609375 0.820312 -4.09375 C 0.820312 -1.558594 2.535156 0.203125 5.003906 0.203125 Z M 2.171875 -4.722656 C 2.40625 -6.167969 3.507812 -7.128906 5.019531 -7.128906 C 6.515625 -7.128906 7.617188 -6.214844 7.898438 -4.722656 Z M 2.171875 -4.722656 "/></g></g></g><g fill="#2e2e2e" fill-opacity="1"><g transform="translate(151.440051, 101.430705)"><g/></g></g><g fill="#2e2e2e" fill-opacity="1"><g transform="translate(155.342465, 101.430705)"><g><path d="M 4.421875 0.203125 C 6.4375 0.203125 7.742188 -0.722656 7.742188 -2.140625 C 7.742188 -3.414062 6.671875 -4.28125 4.609375 -4.691406 C 2.910156 -5.019531 2.328125 -5.351562 2.328125 -6.042969 C 2.328125 -6.765625 3.023438 -7.207031 4.203125 -7.207031 C 5.445312 -7.207031 6.183594 -6.71875 6.28125 -5.824219 L 7.585938 -5.824219 C 7.476562 -7.429688 6.199219 -8.371094 4.1875 -8.371094 C 2.21875 -8.371094 1.023438 -7.507812 1.023438 -6.042969 C 1.023438 -4.753906 2.015625 -3.964844 4.125 -3.621094 C 5.710938 -3.351562 6.4375 -2.910156 6.4375 -2.171875 C 6.4375 -1.433594 5.679688 -0.976562 4.4375 -0.976562 C 3.039062 -0.976562 2.203125 -1.574219 2.15625 -2.566406 L 0.851562 -2.566406 C 0.882812 -0.898438 2.28125 0.203125 4.421875 0.203125 Z M 4.421875 0.203125 "/></g></g></g><g fill="#2e2e2e" fill-opacity="1"><g transform="translate(163.934063, 101.430705)"><g><path d="M 1.464844 0 L 2.785156 0 L 2.785156 -8.167969 L 1.464844 -8.167969 Z M 1.054688 -10.542969 C 1.054688 -9.960938 1.480469 -9.519531 2.125 -9.519531 C 2.769531 -9.519531 3.179688 -9.960938 3.179688 -10.542969 C 3.179688 -11.140625 2.769531 -11.582031 2.125 -11.582031 C 1.480469 -11.582031 1.054688 -11.140625 1.054688 -10.542969 Z M 1.054688 -10.542969 "/></g></g></g><g fill="#2e2e2e" fill-opacity="1"><g transform="translate(168.182653, 101.430705)"><g><path d="M 1.464844 0 L 2.785156 0 L 2.785156 -4.34375 C 2.785156 -6.027344 3.730469 -7.113281 5.144531 -7.113281 C 6.515625 -7.113281 7.382812 -6.074219 7.382812 -4.453125 L 7.382812 0 L 8.703125 0 L 8.703125 -4.34375 C 8.703125 -6.027344 9.648438 -7.113281 11.0625 -7.113281 C 12.433594 -7.113281 13.296875 -6.074219 13.296875 -4.453125 L 13.296875 0 L 14.621094 0 L 14.621094 -4.675781 C 14.621094 -6.957031 13.296875 -8.371094 11.238281 -8.371094 C 9.914062 -8.371094 8.84375 -7.804688 8.199219 -6.765625 C 7.648438 -7.820312 6.640625 -8.371094 5.335938 -8.371094 C 4.203125 -8.371094 3.289062 -7.949219 2.675781 -7.144531 L 2.550781 -8.167969 L 1.464844 -8.167969 Z M 1.464844 0 "/></g></g></g><g fill="#2e2e2e" fill-opacity="1"><g transform="translate(184.107005, 101.430705)"><g><path d="M 5.917969 0.203125 C 8.324219 0.203125 10.070312 -1.605469 10.070312 -4.09375 C 10.070312 -6.5625 8.324219 -8.371094 5.917969 -8.371094 C 4.578125 -8.371094 3.445312 -7.820312 2.707031 -6.910156 L 2.550781 -8.167969 L 1.464844 -8.167969 L 1.464844 3.148438 L 2.785156 3.148438 L 2.785156 -1.164062 C 3.523438 -0.316406 4.625 0.203125 5.917969 0.203125 Z M 2.738281 -4.09375 C 2.738281 -5.855469 3.980469 -7.113281 5.746094 -7.113281 C 7.523438 -7.113281 8.75 -5.855469 8.75 -4.09375 C 8.75 -2.3125 7.523438 -1.070312 5.746094 -1.070312 C 3.980469 -1.070312 2.738281 -2.3125 2.738281 -4.09375 Z M 2.738281 -4.09375 "/></g></g></g><g fill="#2e2e2e" fill-opacity="1"><g transform="translate(194.995989, 101.430705)"><g><path d="M 1.464844 0 L 2.785156 0 L 2.785156 -11.644531 L 1.464844 -11.644531 Z M 1.464844 0 "/></g></g></g><g fill="#2e2e2e" fill-opacity="1"><g transform="translate(199.24458, 101.430705)"><g><path d="M 5.003906 0.203125 C 6.847656 0.203125 8.355469 -0.785156 9.019531 -2.375 L 7.523438 -2.375 C 7.019531 -1.511719 6.089844 -1.039062 5.019531 -1.039062 C 3.460938 -1.039062 2.359375 -2.015625 2.15625 -3.558594 L 9.222656 -3.558594 C 9.316406 -6.40625 7.632812 -8.371094 5.019531 -8.371094 C 2.550781 -8.371094 0.820312 -6.609375 0.820312 -4.09375 C 0.820312 -1.558594 2.535156 0.203125 5.003906 0.203125 Z M 2.171875 -4.722656 C 2.40625 -6.167969 3.507812 -7.128906 5.019531 -7.128906 C 6.515625 -7.128906 7.617188 -6.214844 7.898438 -4.722656 Z M 2.171875 -4.722656 "/></g></g></g><g fill="#2e2e2e" fill-opacity="1"><g transform="translate(209.252371, 101.430705)"><g/></g></g><g fill="#2e2e2e" fill-opacity="1"><g transform="translate(213.154785, 101.430705)"><g><path d="M 1.464844 0 L 2.785156 0 L 2.785156 -3.792969 C 2.785156 -6.121094 3.949219 -6.941406 5.429688 -6.941406 L 6.230469 -6.941406 L 6.230469 -8.167969 L 5.492188 -8.167969 C 4.109375 -8.167969 3.289062 -7.726562 2.707031 -6.75 L 2.550781 -8.167969 L 1.464844 -8.167969 Z M 1.464844 0 "/></g></g></g><g fill="#2e2e2e" fill-opacity="1"><g transform="translate(220.015476, 101.430705)"><g><path d="M 4.722656 0.203125 C 5.808594 0.203125 6.863281 -0.234375 7.570312 -1.195312 L 7.710938 0 L 8.796875 0 L 8.796875 -8.167969 L 7.476562 -8.167969 L 7.476562 -4.042969 C 7.476562 -2.265625 6.421875 -1.070312 4.894531 -1.070312 C 3.492188 -1.070312 2.628906 -2.109375 2.628906 -3.746094 L 2.628906 -8.167969 L 1.304688 -8.167969 L 1.304688 -3.621094 C 1.304688 -1.289062 2.582031 0.203125 4.722656 0.203125 Z M 4.722656 0.203125 "/></g></g></g><g fill="#2e2e2e" fill-opacity="1"><g transform="translate(230.275035, 101.430705)"><g><path d="M 1.464844 0 L 2.785156 0 L 2.785156 -11.644531 L 1.464844 -11.644531 Z M 1.464844 0 "/></g></g></g><g fill="#2e2e2e" fill-opacity="1"><g transform="translate(234.523625, 101.430705)"><g><path d="M 5.003906 0.203125 C 6.847656 0.203125 8.355469 -0.785156 9.019531 -2.375 L 7.523438 -2.375 C 7.019531 -1.511719 6.089844 -1.039062 5.019531 -1.039062 C 3.460938 -1.039062 2.359375 -2.015625 2.15625 -3.558594 L 9.222656 -3.558594 C 9.316406 -6.40625 7.632812 -8.371094 5.019531 -8.371094 C 2.550781 -8.371094 0.820312 -6.609375 0.820312 -4.09375 C 0.820312 -1.558594 2.535156 0.203125 5.003906 0.203125 Z M 2.171875 -4.722656 C 2.40625 -6.167969 3.507812 -7.128906 5.019531 -7.128906 C 6.515625 -7.128906 7.617188 -6.214844 7.898438 -4.722656 Z M 2.171875 -4.722656 "/></g></g></g><g fill="#2e2e2e" fill-opacity="1"><g transform="translate(244.531416, 101.430705)"><g><path d="M 4.421875 0.203125 C 6.4375 0.203125 7.742188 -0.722656 7.742188 -2.140625 C 7.742188 -3.414062 6.671875 -4.28125 4.609375 -4.691406 C 2.910156 -5.019531 2.328125 -5.351562 2.328125 -6.042969 C 2.328125 -6.765625 3.023438 -7.207031 4.203125 -7.207031 C 5.445312 -7.207031 6.183594 -6.71875 6.28125 -5.824219 L 7.585938 -5.824219 C 7.476562 -7.429688 6.199219 -8.371094 4.1875 -8.371094 C 2.21875 -8.371094 1.023438 -7.507812 1.023438 -6.042969 C 1.023438 -4.753906 2.015625 -3.964844 4.125 -3.621094 C 5.710938 -3.351562 6.4375 -2.910156 6.4375 -2.171875 C 6.4375 -1.433594 5.679688 -0.976562 4.4375 -0.976562 C 3.039062 -0.976562 2.203125 -1.574219 2.15625 -2.566406 L 0.851562 -2.566406 C 0.882812 -0.898438 2.28125 0.203125 4.421875 0.203125 Z M 4.421875 0.203125 "/></g></g></g><g fill="#2e2e2e" fill-opacity="1"><g transform="translate(253.123013, 101.430705)"><g/></g></g><g fill="#2e2e2e" fill-opacity="1"><g transform="translate(257.025419, 101.430705)"><g><path d="M 4.988281 0 L 6.214844 0 L 6.214844 -1.273438 L 5.050781 -1.273438 C 3.964844 -1.273438 3.460938 -1.824219 3.460938 -3.007812 L 3.460938 -6.957031 L 6.105469 -6.957031 L 6.105469 -8.167969 L 3.460938 -8.167969 L 3.460938 -10.199219 L 2.4375 -10.199219 L 2.3125 -9.097656 C 2.21875 -8.355469 2 -8.167969 1.242188 -8.167969 L 0.425781 -8.167969 L 0.425781 -6.957031 L 2.140625 -6.957031 L 2.140625 -2.941406 C 2.140625 -1.070312 3.179688 0 4.988281 0 Z M 4.988281 0 "/></g></g></g><g fill="#2e2e2e" fill-opacity="1"><g transform="translate(264.011989, 101.430705)"><g><path d="M 1.464844 0 L 2.785156 0 L 2.785156 -4.171875 C 2.785156 -5.964844 3.871094 -7.113281 5.414062 -7.113281 C 6.832031 -7.113281 7.710938 -6.105469 7.710938 -4.46875 L 7.710938 0 L 9.035156 0 L 9.035156 -4.59375 C 9.035156 -6.925781 7.742188 -8.371094 5.585938 -8.371094 C 4.53125 -8.371094 3.492188 -7.980469 2.785156 -7.097656 L 2.785156 -11.644531 L 1.464844 -11.644531 Z M 1.464844 0 "/></g></g></g><g fill="#2e2e2e" fill-opacity="1"><g transform="translate(274.350229, 101.430705)"><g><path d="M 4.140625 0.125 C 5.460938 0.125 6.5 -0.300781 7.238281 -1.132812 L 7.382812 0 L 8.46875 0 L 8.46875 -5.195312 C 8.46875 -7.082031 7.035156 -8.371094 4.894531 -8.371094 C 3.117188 -8.371094 1.777344 -7.414062 1.417969 -5.839844 L 2.753906 -5.839844 C 3.023438 -6.640625 3.855469 -7.144531 4.910156 -7.144531 C 6.296875 -7.144531 7.144531 -6.375 7.144531 -5.097656 L 7.144531 -4.800781 L 3.808594 -4.800781 C 2.109375 -4.800781 0.992188 -3.839844 0.992188 -2.359375 C 0.992188 -0.820312 2.171875 0.125 4.140625 0.125 Z M 2.3125 -2.375 C 2.3125 -3.148438 2.941406 -3.636719 3.855469 -3.636719 L 7.160156 -3.636719 C 7.113281 -2.125 5.886719 -1.054688 4.1875 -1.054688 C 3.039062 -1.054688 2.3125 -1.574219 2.3125 -2.375 Z M 2.3125 -2.375 "/></g></g></g><g fill="#2e2e2e" fill-opacity="1"><g transform="translate(284.10626, 101.430705)"><g><path d="M 4.988281 0 L 6.214844 0 L 6.214844 -1.273438 L 5.050781 -1.273438 C 3.964844 -1.273438 3.460938 -1.824219 3.460938 -3.007812 L 3.460938 -6.957031 L 6.105469 -6.957031 L 6.105469 -8.167969 L 3.460938 -8.167969 L 3.460938 -10.199219 L 2.4375 -10.199219 L 2.3125 -9.097656 C 2.21875 -8.355469 2 -8.167969 1.242188 -8.167969 L 0.425781 -8.167969 L 0.425781 -6.957031 L 2.140625 -6.957031 L 2.140625 -2.941406 C 2.140625 -1.070312 3.179688 0 4.988281 0 Z M 4.988281 0 "/></g></g></g><g fill="#2e2e2e" fill-opacity="1"><g transform="translate(81.668738, 123.272357)"><g><path d="M 4.421875 0.203125 C 6.4375 0.203125 7.742188 -0.722656 7.742188 -2.140625 C 7.742188 -3.414062 6.671875 -4.28125 4.609375 -4.691406 C 2.910156 -5.019531 2.328125 -5.351562 2.328125 -6.042969 C 2.328125 -6.765625 3.023438 -7.207031 4.203125 -7.207031 C 5.445312 -7.207031 6.183594 -6.71875 6.28125 -5.824219 L 7.585938 -5.824219 C 7.476562 -7.429688 6.199219 -8.371094 4.1875 -8.371094 C 2.21875 -8.371094 1.023438 -7.507812 1.023438 -6.042969 C 1.023438 -4.753906 2.015625 -3.964844 4.125 -3.621094 C 5.710938 -3.351562 6.4375 -2.910156 6.4375 -2.171875 C 6.4375 -1.433594 5.679688 -0.976562 4.4375 -0.976562 C 3.039062 -0.976562 2.203125 -1.574219 2.15625 -2.566406 L 0.851562 -2.566406 C 0.882812 -0.898438 2.28125 0.203125 4.421875 0.203125 Z M 4.421875 0.203125 "/></g></g></g><g fill="#2e2e2e" fill-opacity="1"><g transform="translate(90.260335, 123.272357)"><g><path d="M 4.988281 0 L 6.214844 0 L 6.214844 -1.273438 L 5.050781 -1.273438 C 3.964844 -1.273438 3.460938 -1.824219 3.460938 -3.007812 L 3.460938 -6.957031 L 6.105469 -6.957031 L 6.105469 -8.167969 L 3.460938 -8.167969 L 3.460938 -10.199219 L 2.4375 -10.199219 L 2.3125 -9.097656 C 2.21875 -8.355469 2 -8.167969 1.242188 -8.167969 L 0.425781 -8.167969 L 0.425781 -6.957031 L 2.140625 -6.957031 L 2.140625 -2.941406 C 2.140625 -1.070312 3.179688 0 4.988281 0 Z M 4.988281 0 "/></g></g></g><g fill="#2e2e2e" fill-opacity="1"><g transform="translate(97.246905, 123.272357)"><g><path d="M 4.722656 0.203125 C 5.808594 0.203125 6.863281 -0.234375 7.570312 -1.195312 L 7.710938 0 L 8.796875 0 L 8.796875 -8.167969 L 7.476562 -8.167969 L 7.476562 -4.042969 C 7.476562 -2.265625 6.421875 -1.070312 4.894531 -1.070312 C 3.492188 -1.070312 2.628906 -2.109375 2.628906 -3.746094 L 2.628906 -8.167969 L 1.304688 -8.167969 L 1.304688 -3.621094 C 1.304688 -1.289062 2.582031 0.203125 4.722656 0.203125 Z M 4.722656 0.203125 "/></g></g></g><g fill="#2e2e2e" fill-opacity="1"><g transform="translate(107.506464, 123.272357)"><g><path d="M 4.988281 0.203125 C 6.3125 0.203125 7.445312 -0.347656 8.183594 -1.257812 L 8.339844 0 L 9.425781 0 L 9.425781 -11.644531 L 8.105469 -11.644531 L 8.105469 -7.019531 C 7.367188 -7.867188 6.261719 -8.371094 4.988281 -8.371094 C 2.566406 -8.371094 0.820312 -6.5625 0.820312 -4.09375 C 0.820312 -1.605469 2.566406 0.203125 4.988281 0.203125 Z M 2.140625 -4.09375 C 2.140625 -5.855469 3.382812 -7.113281 5.144531 -7.113281 C 6.925781 -7.113281 8.152344 -5.855469 8.152344 -4.09375 C 8.152344 -2.3125 6.925781 -1.070312 5.144531 -1.070312 C 3.382812 -1.070312 2.140625 -2.3125 2.140625 -4.09375 Z M 2.140625 -4.09375 "/></g></g></g><g fill="#2e2e2e" fill-opacity="1"><g transform="translate(118.395449, 123.272357)"><g><path d="M 5.003906 0.203125 C 6.847656 0.203125 8.355469 -0.785156 9.019531 -2.375 L 7.523438 -2.375 C 7.019531 -1.511719 6.089844 -1.039062 5.019531 -1.039062 C 3.460938 -1.039062 2.359375 -2.015625 2.15625 -3.558594 L 9.222656 -3.558594 C 9.316406 -6.40625 7.632812 -8.371094 5.019531 -8.371094 C 2.550781 -8.371094 0.820312 -6.609375 0.820312 -4.09375 C 0.820312 -1.558594 2.535156 0.203125 5.003906 0.203125 Z M 2.171875 -4.722656 C 2.40625 -6.167969 3.507812 -7.128906 5.019531 -7.128906 C 6.515625 -7.128906 7.617188 -6.214844 7.898438 -4.722656 Z M 2.171875 -4.722656 "/></g></g></g><g fill="#2e2e2e" fill-opacity="1"><g transform="translate(128.40324, 123.272357)"><g><path d="M 1.464844 0 L 2.785156 0 L 2.785156 -4.125 C 2.785156 -5.917969 3.871094 -7.113281 5.398438 -7.113281 C 6.832031 -7.113281 7.710938 -6.074219 7.710938 -4.421875 L 7.710938 0 L 9.035156 0 L 9.035156 -4.546875 C 9.035156 -6.878906 7.742188 -8.371094 5.570312 -8.371094 C 4.46875 -8.371094 3.398438 -7.949219 2.691406 -6.972656 L 2.550781 -8.167969 L 1.464844 -8.167969 Z M 1.464844 0 "/></g></g></g><g fill="#2e2e2e" fill-opacity="1"><g transform="translate(138.74148, 123.272357)"><g><path d="M 4.988281 0 L 6.214844 0 L 6.214844 -1.273438 L 5.050781 -1.273438 C 3.964844 -1.273438 3.460938 -1.824219 3.460938 -3.007812 L 3.460938 -6.957031 L 6.105469 -6.957031 L 6.105469 -8.167969 L 3.460938 -8.167969 L 3.460938 -10.199219 L 2.4375 -10.199219 L 2.3125 -9.097656 C 2.21875 -8.355469 2 -8.167969 1.242188 -8.167969 L 0.425781 -8.167969 L 0.425781 -6.957031 L 2.140625 -6.957031 L 2.140625 -2.941406 C 2.140625 -1.070312 3.179688 0 4.988281 0 Z M 4.988281 0 "/></g></g></g><g fill="#2e2e2e" fill-opacity="1"><g transform="translate(145.72805, 123.272357)"><g><path d="M 4.421875 0.203125 C 6.4375 0.203125 7.742188 -0.722656 7.742188 -2.140625 C 7.742188 -3.414062 6.671875 -4.28125 4.609375 -4.691406 C 2.910156 -5.019531 2.328125 -5.351562 2.328125 -6.042969 C 2.328125 -6.765625 3.023438 -7.207031 4.203125 -7.207031 C 5.445312 -7.207031 6.183594 -6.71875 6.28125 -5.824219 L 7.585938 -5.824219 C 7.476562 -7.429688 6.199219 -8.371094 4.1875 -8.371094 C 2.21875 -8.371094 1.023438 -7.507812 1.023438 -6.042969 C 1.023438 -4.753906 2.015625 -3.964844 4.125 -3.621094 C 5.710938 -3.351562 6.4375 -2.910156 6.4375 -2.171875 C 6.4375 -1.433594 5.679688 -0.976562 4.4375 -0.976562 C 3.039062 -0.976562 2.203125 -1.574219 2.15625 -2.566406 L 0.851562 -2.566406 C 0.882812 -0.898438 2.28125 0.203125 4.421875 0.203125 Z M 4.421875 0.203125 "/></g></g></g><g fill="#2e2e2e" fill-opacity="1"><g transform="translate(154.319647, 123.272357)"><g/></g></g><g fill="#2e2e2e" fill-opacity="1"><g transform="translate(158.222061, 123.272357)"><g><path d="M 5.019531 0.203125 C 7.066406 0.203125 8.65625 -1.023438 9.207031 -3.007812 L 7.804688 -3.007812 C 7.398438 -1.824219 6.34375 -1.070312 5.019531 -1.070312 C 3.335938 -1.070312 2.140625 -2.3125 2.140625 -4.09375 C 2.140625 -5.855469 3.335938 -7.113281 5.019531 -7.113281 C 6.261719 -7.113281 7.285156 -6.4375 7.773438 -5.304688 L 9.113281 -5.304688 C 8.703125 -7.144531 7.050781 -8.371094 5.019531 -8.371094 C 2.566406 -8.371094 0.820312 -6.578125 0.820312 -4.09375 C 0.820312 -1.589844 2.566406 0.203125 5.019531 0.203125 Z M 5.019531 0.203125 "/></g></g></g><g fill="#2e2e2e" fill-opacity="1"><g transform="translate(168.19838, 123.272357)"><g><path d="M 4.140625 0.125 C 5.460938 0.125 6.5 -0.300781 7.238281 -1.132812 L 7.382812 0 L 8.46875 0 L 8.46875 -5.195312 C 8.46875 -7.082031 7.035156 -8.371094 4.894531 -8.371094 C 3.117188 -8.371094 1.777344 -7.414062 1.417969 -5.839844 L 2.753906 -5.839844 C 3.023438 -6.640625 3.855469 -7.144531 4.910156 -7.144531 C 6.296875 -7.144531 7.144531 -6.375 7.144531 -5.097656 L 7.144531 -4.800781 L 3.808594 -4.800781 C 2.109375 -4.800781 0.992188 -3.839844 0.992188 -2.359375 C 0.992188 -0.820312 2.171875 0.125 4.140625 0.125 Z M 2.3125 -2.375 C 2.3125 -3.148438 2.941406 -3.636719 3.855469 -3.636719 L 7.160156 -3.636719 C 7.113281 -2.125 5.886719 -1.054688 4.1875 -1.054688 C 3.039062 -1.054688 2.3125 -1.574219 2.3125 -2.375 Z M 2.3125 -2.375 "/></g></g></g><g fill="#2e2e2e" fill-opacity="1"><g transform="translate(177.954403, 123.272357)"><g><path d="M 1.464844 0 L 2.785156 0 L 2.785156 -4.125 C 2.785156 -5.917969 3.871094 -7.113281 5.398438 -7.113281 C 6.832031 -7.113281 7.710938 -6.074219 7.710938 -4.421875 L 7.710938 0 L 9.035156 0 L 9.035156 -4.546875 C 9.035156 -6.878906 7.742188 -8.371094 5.570312 -8.371094 C 4.46875 -8.371094 3.398438 -7.949219 2.691406 -6.972656 L 2.550781 -8.167969 L 1.464844 -8.167969 Z M 1.464844 0 "/></g></g></g><g fill="#2e2e2e" fill-opacity="1"><g transform="translate(188.292642, 123.272357)"><g/></g></g><g fill="#2e2e2e" fill-opacity="1"><g transform="translate(192.195057, 123.272357)"><g><path d="M 2.25 -9.003906 L 2.25 -8.167969 L 0.472656 -8.167969 L 0.472656 -6.957031 L 2.25 -6.957031 L 2.25 0 L 3.574219 0 L 3.574219 -6.957031 L 6.421875 -6.957031 L 6.421875 -8.167969 L 3.574219 -8.167969 L 3.574219 -8.921875 C 3.574219 -10.105469 4.074219 -10.605469 5.226562 -10.605469 L 6.5 -10.605469 L 6.5 -11.851562 L 5.097656 -11.851562 C 3.257812 -11.851562 2.25 -10.859375 2.25 -9.003906 Z M 2.25 -9.003906 "/></g></g></g><g fill="#2e2e2e" fill-opacity="1"><g transform="translate(198.851187, 123.272357)"><g><path d="M 5.144531 0.203125 C 7.679688 0.203125 9.472656 -1.589844 9.472656 -4.09375 C 9.472656 -6.59375 7.679688 -8.371094 5.144531 -8.371094 C 2.613281 -8.371094 0.820312 -6.59375 0.820312 -4.09375 C 0.820312 -1.589844 2.613281 0.203125 5.144531 0.203125 Z M 2.140625 -4.09375 C 2.140625 -5.871094 3.382812 -7.113281 5.144531 -7.113281 C 6.910156 -7.113281 8.152344 -5.871094 8.152344 -4.09375 C 8.152344 -2.296875 6.910156 -1.070312 5.144531 -1.070312 C 3.382812 -1.070312 2.140625 -2.296875 2.140625 -4.09375 Z M 2.140625 -4.09375 "/></g></g></g><g fill="#2e2e2e" fill-opacity="1"><g transform="translate(209.142219, 123.272357)"><g><path d="M 1.464844 0 L 2.785156 0 L 2.785156 -11.644531 L 1.464844 -11.644531 Z M 1.464844 0 "/></g></g></g><g fill="#2e2e2e" fill-opacity="1"><g transform="translate(213.390809, 123.272357)"><g><path d="M 1.464844 0 L 2.785156 0 L 2.785156 -11.644531 L 1.464844 -11.644531 Z M 1.464844 0 "/></g></g></g><g fill="#2e2e2e" fill-opacity="1"><g transform="translate(217.639399, 123.272357)"><g><path d="M 5.144531 0.203125 C 7.679688 0.203125 9.472656 -1.589844 9.472656 -4.09375 C 9.472656 -6.59375 7.679688 -8.371094 5.144531 -8.371094 C 2.613281 -8.371094 0.820312 -6.59375 0.820312 -4.09375 C 0.820312 -1.589844 2.613281 0.203125 5.144531 0.203125 Z M 2.140625 -4.09375 C 2.140625 -5.871094 3.382812 -7.113281 5.144531 -7.113281 C 6.910156 -7.113281 8.152344 -5.871094 8.152344 -4.09375 C 8.152344 -2.296875 6.910156 -1.070312 5.144531 -1.070312 C 3.382812 -1.070312 2.140625 -2.296875 2.140625 -4.09375 Z M 2.140625 -4.09375 "/></g></g></g><g fill="#2e2e2e" fill-opacity="1"><g transform="translate(227.930431, 123.272357)"><g><path d="M 3.195312 0 L 4.46875 0 L 6.832031 -6.214844 L 7.898438 -3.367188 L 9.207031 0 L 10.464844 0 L 13.394531 -8.167969 L 12.007812 -8.167969 L 10.6875 -4.46875 L 9.820312 -1.984375 L 7.429688 -8.167969 L 6.214844 -8.167969 L 4.816406 -4.46875 L 3.855469 -1.96875 L 2.972656 -4.46875 L 1.667969 -8.167969 L 0.265625 -8.167969 Z M 3.195312 0 "/></g></g></g><g fill="#2e2e2e" fill-opacity="1"><g transform="translate(241.588868, 123.272357)"><g/></g></g><g fill="#2e2e2e" fill-opacity="1"><g transform="translate(245.491291, 123.272357)"><g><path d="M 4.988281 0 L 6.214844 0 L 6.214844 -1.273438 L 5.050781 -1.273438 C 3.964844 -1.273438 3.460938 -1.824219 3.460938 -3.007812 L 3.460938 -6.957031 L 6.105469 -6.957031 L 6.105469 -8.167969 L 3.460938 -8.167969 L 3.460938 -10.199219 L 2.4375 -10.199219 L 2.3125 -9.097656 C 2.21875 -8.355469 2 -8.167969 1.242188 -8.167969 L 0.425781 -8.167969 L 0.425781 -6.957031 L 2.140625 -6.957031 L 2.140625 -2.941406 C 2.140625 -1.070312 3.179688 0 4.988281 0 Z M 4.988281 0 "/></g></g></g><g fill="#2e2e2e" fill-opacity="1"><g transform="translate(252.477862, 123.272357)"><g><path d="M 5.144531 0.203125 C 7.679688 0.203125 9.472656 -1.589844 9.472656 -4.09375 C 9.472656 -6.59375 7.679688 -8.371094 5.144531 -8.371094 C 2.613281 -8.371094 0.820312 -6.59375 0.820312 -4.09375 C 0.820312 -1.589844 2.613281 0.203125 5.144531 0.203125 Z M 2.140625 -4.09375 C 2.140625 -5.871094 3.382812 -7.113281 5.144531 -7.113281 C 6.910156 -7.113281 8.152344 -5.871094 8.152344 -4.09375 C 8.152344 -2.296875 6.910156 -1.070312 5.144531 -1.070312 C 3.382812 -1.070312 2.140625 -2.296875 2.140625 -4.09375 Z M 2.140625 -4.09375 "/></g></g></g><g fill="#2e2e2e" fill-opacity="1"><g transform="translate(262.768884, 123.272357)"><g/></g></g><g fill="#2e2e2e" fill-opacity="1"><g transform="translate(266.671289, 123.272357)"><g><path d="M 1.464844 0 L 2.785156 0 L 2.785156 -4.171875 C 2.785156 -5.964844 3.871094 -7.113281 5.414062 -7.113281 C 6.832031 -7.113281 7.710938 -6.105469 7.710938 -4.46875 L 7.710938 0 L 9.035156 0 L 9.035156 -4.59375 C 9.035156 -6.925781 7.742188 -8.371094 5.585938 -8.371094 C 4.53125 -8.371094 3.492188 -7.980469 2.785156 -7.097656 L 2.785156 -11.644531 L 1.464844 -11.644531 Z M 1.464844 0 "/></g></g></g><g fill="#2e2e2e" fill-opacity="1"><g transform="translate(277.009529, 123.272357)"><g><path d="M 5.003906 0.203125 C 6.847656 0.203125 8.355469 -0.785156 9.019531 -2.375 L 7.523438 -2.375 C 7.019531 -1.511719 6.089844 -1.039062 5.019531 -1.039062 C 3.460938 -1.039062 2.359375 -2.015625 2.15625 -3.558594 L 9.222656 -3.558594 C 9.316406 -6.40625 7.632812 -8.371094 5.019531 -8.371094 C 2.550781 -8.371094 0.820312 -6.609375 0.820312 -4.09375 C 0.820312 -1.558594 2.535156 0.203125 5.003906 0.203125 Z M 2.171875 -4.722656 C 2.40625 -6.167969 3.507812 -7.128906 5.019531 -7.128906 C 6.515625 -7.128906 7.617188 -6.214844 7.898438 -4.722656 Z M 2.171875 -4.722656 "/></g></g></g><g fill="#2e2e2e" fill-opacity="1"><g transform="translate(287.01732, 123.272357)"><g><path d="M 1.464844 0 L 2.785156 0 L 2.785156 -11.644531 L 1.464844 -11.644531 Z M 1.464844 0 "/></g></g></g><g fill="#2e2e2e" fill-opacity="1"><g transform="translate(291.265919, 123.272357)"><g><path d="M 5.917969 0.203125 C 8.324219 0.203125 10.070312 -1.605469 10.070312 -4.09375 C 10.070312 -6.5625 8.324219 -8.371094 5.917969 -8.371094 C 4.578125 -8.371094 3.445312 -7.820312 2.707031 -6.910156 L 2.550781 -8.167969 L 1.464844 -8.167969 L 1.464844 3.148438 L 2.785156 3.148438 L 2.785156 -1.164062 C 3.523438 -0.316406 4.625 0.203125 5.917969 0.203125 Z M 2.738281 -4.09375 C 2.738281 -5.855469 3.980469 -7.113281 5.746094 -7.113281 C 7.523438 -7.113281 8.75 -5.855469 8.75 -4.09375 C 8.75 -2.3125 7.523438 -1.070312 5.746094 -1.070312 C 3.980469 -1.070312 2.738281 -2.3125 2.738281 -4.09375 Z M 2.738281 -4.09375 "/></g></g></g><g fill="#2e2e2e" fill-opacity="1"><g transform="translate(81.668738, 145.114009)"><g><path d="M 1.464844 0 L 2.785156 0 L 2.785156 -3.523438 L 3.761719 -3.523438 C 4.140625 -3.523438 4.484375 -3.539062 4.800781 -3.605469 L 7.050781 0 L 8.625 0 L 6.074219 -4.042969 C 6.671875 -4.421875 7.097656 -5.035156 7.429688 -5.933594 L 8.246094 -8.167969 L 6.832031 -8.167969 L 6.214844 -6.421875 C 5.761719 -5.097656 5.128906 -4.753906 3.808594 -4.753906 L 2.785156 -4.753906 L 2.785156 -11.644531 L 1.464844 -11.644531 Z M 1.464844 0 "/></g></g></g><g fill="#2e2e2e" fill-opacity="1"><g transform="translate(90.842552, 145.114009)"><g><path d="M 5.003906 0.203125 C 6.847656 0.203125 8.355469 -0.785156 9.019531 -2.375 L 7.523438 -2.375 C 7.019531 -1.511719 6.089844 -1.039062 5.019531 -1.039062 C 3.460938 -1.039062 2.359375 -2.015625 2.15625 -3.558594 L 9.222656 -3.558594 C 9.316406 -6.40625 7.632812 -8.371094 5.019531 -8.371094 C 2.550781 -8.371094 0.820312 -6.609375 0.820312 -4.09375 C 0.820312 -1.558594 2.535156 0.203125 5.003906 0.203125 Z M 2.171875 -4.722656 C 2.40625 -6.167969 3.507812 -7.128906 5.019531 -7.128906 C 6.515625 -7.128906 7.617188 -6.214844 7.898438 -4.722656 Z M 2.171875 -4.722656 "/></g></g></g><g fill="#2e2e2e" fill-opacity="1"><g transform="translate(100.850343, 145.114009)"><g><path d="M 5.003906 0.203125 C 6.847656 0.203125 8.355469 -0.785156 9.019531 -2.375 L 7.523438 -2.375 C 7.019531 -1.511719 6.089844 -1.039062 5.019531 -1.039062 C 3.460938 -1.039062 2.359375 -2.015625 2.15625 -3.558594 L 9.222656 -3.558594 C 9.316406 -6.40625 7.632812 -8.371094 5.019531 -8.371094 C 2.550781 -8.371094 0.820312 -6.609375 0.820312 -4.09375 C 0.820312 -1.558594 2.535156 0.203125 5.003906 0.203125 Z M 2.171875 -4.722656 C 2.40625 -6.167969 3.507812 -7.128906 5.019531 -7.128906 C 6.515625 -7.128906 7.617188 -6.214844 7.898438 -4.722656 Z M 2.171875 -4.722656 "/></g></g></g><g fill="#2e2e2e" fill-opacity="1"><g transform="translate(110.858133, 145.114009)"><g><path d="M 5.917969 0.203125 C 8.324219 0.203125 10.070312 -1.605469 10.070312 -4.09375 C 10.070312 -6.5625 8.324219 -8.371094 5.917969 -8.371094 C 4.578125 -8.371094 3.445312 -7.820312 2.707031 -6.910156 L 2.550781 -8.167969 L 1.464844 -8.167969 L 1.464844 3.148438 L 2.785156 3.148438 L 2.785156 -1.164062 C 3.523438 -0.316406 4.625 0.203125 5.917969 0.203125 Z M 2.738281 -4.09375 C 2.738281 -5.855469 3.980469 -7.113281 5.746094 -7.113281 C 7.523438 -7.113281 8.75 -5.855469 8.75 -4.09375 C 8.75 -2.3125 7.523438 -1.070312 5.746094 -1.070312 C 3.980469 -1.070312 2.738281 -2.3125 2.738281 -4.09375 Z M 2.738281 -4.09375 "/></g></g></g><g fill="#2e2e2e" fill-opacity="1"><g transform="translate(121.747118, 145.114009)"><g/></g></g><g fill="#2e2e2e" fill-opacity="1"><g transform="translate(125.649532, 145.114009)"><g><path d="M 4.988281 0 L 6.214844 0 L 6.214844 -1.273438 L 5.050781 -1.273438 C 3.964844 -1.273438 3.460938 -1.824219 3.460938 -3.007812 L 3.460938 -6.957031 L 6.105469 -6.957031 L 6.105469 -8.167969 L 3.460938 -8.167969 L 3.460938 -10.199219 L 2.4375 -10.199219 L 2.3125 -9.097656 C 2.21875 -8.355469 2 -8.167969 1.242188 -8.167969 L 0.425781 -8.167969 L 0.425781 -6.957031 L 2.140625 -6.957031 L 2.140625 -2.941406 C 2.140625 -1.070312 3.179688 0 4.988281 0 Z M 4.988281 0 "/></g></g></g><g fill="#2e2e2e" fill-opacity="1"><g transform="translate(132.636103, 145.114009)"><g><path d="M 1.464844 0 L 2.785156 0 L 2.785156 -4.171875 C 2.785156 -5.964844 3.871094 -7.113281 5.414062 -7.113281 C 6.832031 -7.113281 7.710938 -6.105469 7.710938 -4.46875 L 7.710938 0 L 9.035156 0 L 9.035156 -4.59375 C 9.035156 -6.925781 7.742188 -8.371094 5.585938 -8.371094 C 4.53125 -8.371094 3.492188 -7.980469 2.785156 -7.097656 L 2.785156 -11.644531 L 1.464844 -11.644531 Z M 1.464844 0 "/></g></g></g><g fill="#2e2e2e" fill-opacity="1"><g transform="translate(142.974342, 145.114009)"><g><path d="M 5.003906 0.203125 C 6.847656 0.203125 8.355469 -0.785156 9.019531 -2.375 L 7.523438 -2.375 C 7.019531 -1.511719 6.089844 -1.039062 5.019531 -1.039062 C 3.460938 -1.039062 2.359375 -2.015625 2.15625 -3.558594 L 9.222656 -3.558594 C 9.316406 -6.40625 7.632812 -8.371094 5.019531 -8.371094 C 2.550781 -8.371094 0.820312 -6.609375 0.820312 -4.09375 C 0.820312 -1.558594 2.535156 0.203125 5.003906 0.203125 Z M 2.171875 -4.722656 C 2.40625 -6.167969 3.507812 -7.128906 5.019531 -7.128906 C 6.515625 -7.128906 7.617188 -6.214844 7.898438 -4.722656 Z M 2.171875 -4.722656 "/></g></g></g><g fill="#2e2e2e" fill-opacity="1"><g transform="translate(152.982133, 145.114009)"><g/></g></g><g fill="#2e2e2e" fill-opacity="1"><g transform="translate(156.884548, 145.114009)"><g><path d="M 5.019531 0.203125 C 7.066406 0.203125 8.65625 -1.023438 9.207031 -3.007812 L 7.804688 -3.007812 C 7.398438 -1.824219 6.34375 -1.070312 5.019531 -1.070312 C 3.335938 -1.070312 2.140625 -2.3125 2.140625 -4.09375 C 2.140625 -5.855469 3.335938 -7.113281 5.019531 -7.113281 C 6.261719 -7.113281 7.285156 -6.4375 7.773438 -5.304688 L 9.113281 -5.304688 C 8.703125 -7.144531 7.050781 -8.371094 5.019531 -8.371094 C 2.566406 -8.371094 0.820312 -6.578125 0.820312 -4.09375 C 0.820312 -1.589844 2.566406 0.203125 5.019531 0.203125 Z M 5.019531 0.203125 "/></g></g></g><g fill="#2e2e2e" fill-opacity="1"><g transform="translate(166.860866, 145.114009)"><g><path d="M 1.464844 0 L 2.785156 0 L 2.785156 -11.644531 L 1.464844 -11.644531 Z M 1.464844 0 "/></g></g></g><g fill="#2e2e2e" fill-opacity="1"><g transform="translate(171.109457, 145.114009)"><g><path d="M 4.140625 0.125 C 5.460938 0.125 6.5 -0.300781 7.238281 -1.132812 L 7.382812 0 L 8.46875 0 L 8.46875 -5.195312 C 8.46875 -7.082031 7.035156 -8.371094 4.894531 -8.371094 C 3.117188 -8.371094 1.777344 -7.414062 1.417969 -5.839844 L 2.753906 -5.839844 C 3.023438 -6.640625 3.855469 -7.144531 4.910156 -7.144531 C 6.296875 -7.144531 7.144531 -6.375 7.144531 -5.097656 L 7.144531 -4.800781 L 3.808594 -4.800781 C 2.109375 -4.800781 0.992188 -3.839844 0.992188 -2.359375 C 0.992188 -0.820312 2.171875 0.125 4.140625 0.125 Z M 2.3125 -2.375 C 2.3125 -3.148438 2.941406 -3.636719 3.855469 -3.636719 L 7.160156 -3.636719 C 7.113281 -2.125 5.886719 -1.054688 4.1875 -1.054688 C 3.039062 -1.054688 2.3125 -1.574219 2.3125 -2.375 Z M 2.3125 -2.375 "/></g></g></g><g fill="#2e2e2e" fill-opacity="1"><g transform="translate(180.865479, 145.114009)"><g><path d="M 4.421875 0.203125 C 6.4375 0.203125 7.742188 -0.722656 7.742188 -2.140625 C 7.742188 -3.414062 6.671875 -4.28125 4.609375 -4.691406 C 2.910156 -5.019531 2.328125 -5.351562 2.328125 -6.042969 C 2.328125 -6.765625 3.023438 -7.207031 4.203125 -7.207031 C 5.445312 -7.207031 6.183594 -6.71875 6.28125 -5.824219 L 7.585938 -5.824219 C 7.476562 -7.429688 6.199219 -8.371094 4.1875 -8.371094 C 2.21875 -8.371094 1.023438 -7.507812 1.023438 -6.042969 C 1.023438 -4.753906 2.015625 -3.964844 4.125 -3.621094 C 5.710938 -3.351562 6.4375 -2.910156 6.4375 -2.171875 C 6.4375 -1.433594 5.679688 -0.976562 4.4375 -0.976562 C 3.039062 -0.976562 2.203125 -1.574219 2.15625 -2.566406 L 0.851562 -2.566406 C 0.882812 -0.898438 2.28125 0.203125 4.421875 0.203125 Z M 4.421875 0.203125 "/></g></g></g><g fill="#2e2e2e" fill-opacity="1"><g transform="translate(189.457076, 145.114009)"><g><path d="M 4.421875 0.203125 C 6.4375 0.203125 7.742188 -0.722656 7.742188 -2.140625 C 7.742188 -3.414062 6.671875 -4.28125 4.609375 -4.691406 C 2.910156 -5.019531 2.328125 -5.351562 2.328125 -6.042969 C 2.328125 -6.765625 3.023438 -7.207031 4.203125 -7.207031 C 5.445312 -7.207031 6.183594 -6.71875 6.28125 -5.824219 L 7.585938 -5.824219 C 7.476562 -7.429688 6.199219 -8.371094 4.1875 -8.371094 C 2.21875 -8.371094 1.023438 -7.507812 1.023438 -6.042969 C 1.023438 -4.753906 2.015625 -3.964844 4.125 -3.621094 C 5.710938 -3.351562 6.4375 -2.910156 6.4375 -2.171875 C 6.4375 -1.433594 5.679688 -0.976562 4.4375 -0.976562 C 3.039062 -0.976562 2.203125 -1.574219 2.15625 -2.566406 L 0.851562 -2.566406 C 0.882812 -0.898438 2.28125 0.203125 4.421875 0.203125 Z M 4.421875 0.203125 "/></g></g></g><g fill="#2e2e2e" fill-opacity="1"><g transform="translate(198.048673, 145.114009)"><g><path d="M 1.464844 0 L 2.785156 0 L 2.785156 -3.792969 C 2.785156 -6.121094 3.949219 -6.941406 5.429688 -6.941406 L 6.230469 -6.941406 L 6.230469 -8.167969 L 5.492188 -8.167969 C 4.109375 -8.167969 3.289062 -7.726562 2.707031 -6.75 L 2.550781 -8.167969 L 1.464844 -8.167969 Z M 1.464844 0 "/></g></g></g><g fill="#2e2e2e" fill-opacity="1"><g transform="translate(204.909364, 145.114009)"><g><path d="M 5.144531 0.203125 C 7.679688 0.203125 9.472656 -1.589844 9.472656 -4.09375 C 9.472656 -6.59375 7.679688 -8.371094 5.144531 -8.371094 C 2.613281 -8.371094 0.820312 -6.59375 0.820312 -4.09375 C 0.820312 -1.589844 2.613281 0.203125 5.144531 0.203125 Z M 2.140625 -4.09375 C 2.140625 -5.871094 3.382812 -7.113281 5.144531 -7.113281 C 6.910156 -7.113281 8.152344 -5.871094 8.152344 -4.09375 C 8.152344 -2.296875 6.910156 -1.070312 5.144531 -1.070312 C 3.382812 -1.070312 2.140625 -2.296875 2.140625 -4.09375 Z M 2.140625 -4.09375 "/></g></g></g><g fill="#2e2e2e" fill-opacity="1"><g transform="translate(215.200396, 145.114009)"><g><path d="M 5.144531 0.203125 C 7.679688 0.203125 9.472656 -1.589844 9.472656 -4.09375 C 9.472656 -6.59375 7.679688 -8.371094 5.144531 -8.371094 C 2.613281 -8.371094 0.820312 -6.59375 0.820312 -4.09375 C 0.820312 -1.589844 2.613281 0.203125 5.144531 0.203125 Z M 2.140625 -4.09375 C 2.140625 -5.871094 3.382812 -7.113281 5.144531 -7.113281 C 6.910156 -7.113281 8.152344 -5.871094 8.152344 -4.09375 C 8.152344 -2.296875 6.910156 -1.070312 5.144531 -1.070312 C 3.382812 -1.070312 2.140625 -2.296875 2.140625 -4.09375 Z M 2.140625 -4.09375 "/></g></g></g><g fill="#2e2e2e" fill-opacity="1"><g transform="translate(225.491427, 145.114009)"><g><path d="M 1.464844 0 L 2.785156 0 L 2.785156 -4.34375 C 2.785156 -6.027344 3.730469 -7.113281 5.144531 -7.113281 C 6.515625 -7.113281 7.382812 -6.074219 7.382812 -4.453125 L 7.382812 0 L 8.703125 0 L 8.703125 -4.34375 C 8.703125 -6.027344 9.648438 -7.113281 11.0625 -7.113281 C 12.433594 -7.113281 13.296875 -6.074219 13.296875 -4.453125 L 13.296875 0 L 14.621094 0 L 14.621094 -4.675781 C 14.621094 -6.957031 13.296875 -8.371094 11.238281 -8.371094 C 9.914062 -8.371094 8.84375 -7.804688 8.199219 -6.765625 C 7.648438 -7.820312 6.640625 -8.371094 5.335938 -8.371094 C 4.203125 -8.371094 3.289062 -7.949219 2.675781 -7.144531 L 2.550781 -8.167969 L 1.464844 -8.167969 Z M 1.464844 0 "/></g></g></g><g fill="#2e2e2e" fill-opacity="1"><g transform="translate(81.668738, 166.955662)"><g><path d="M 1.464844 0 L 2.785156 0 L 2.785156 -4.171875 C 2.785156 -5.964844 3.871094 -7.113281 5.414062 -7.113281 C 6.832031 -7.113281 7.710938 -6.105469 7.710938 -4.46875 L 7.710938 0 L 9.035156 0 L 9.035156 -4.59375 C 9.035156 -6.925781 7.742188 -8.371094 5.585938 -8.371094 C 4.53125 -8.371094 3.492188 -7.980469 2.785156 -7.097656 L 2.785156 -11.644531 L 1.464844 -11.644531 Z M 1.464844 0 "/></g></g></g><g fill="#2e2e2e" fill-opacity="1"><g transform="translate(92.006977, 166.955662)"><g><path d="M 4.140625 0.125 C 5.460938 0.125 6.5 -0.300781 7.238281 -1.132812 L 7.382812 0 L 8.46875 0 L 8.46875 -5.195312 C 8.46875 -7.082031 7.035156 -8.371094 4.894531 -8.371094 C 3.117188 -8.371094 1.777344 -7.414062 1.417969 -5.839844 L 2.753906 -5.839844 C 3.023438 -6.640625 3.855469 -7.144531 4.910156 -7.144531 C 6.296875 -7.144531 7.144531 -6.375 7.144531 -5.097656 L 7.144531 -4.800781 L 3.808594 -4.800781 C 2.109375 -4.800781 0.992188 -3.839844 0.992188 -2.359375 C 0.992188 -0.820312 2.171875 0.125 4.140625 0.125 Z M 2.3125 -2.375 C 2.3125 -3.148438 2.941406 -3.636719 3.855469 -3.636719 L 7.160156 -3.636719 C 7.113281 -2.125 5.886719 -1.054688 4.1875 -1.054688 C 3.039062 -1.054688 2.3125 -1.574219 2.3125 -2.375 Z M 2.3125 -2.375 "/></g></g></g><g fill="#2e2e2e" fill-opacity="1"><g transform="translate(101.763, 166.955662)"><g><path d="M 1.464844 0 L 2.785156 0 L 2.785156 -3.792969 C 2.785156 -6.121094 3.949219 -6.941406 5.429688 -6.941406 L 6.230469 -6.941406 L 6.230469 -8.167969 L 5.492188 -8.167969 C 4.109375 -8.167969 3.289062 -7.726562 2.707031 -6.75 L 2.550781 -8.167969 L 1.464844 -8.167969 Z M 1.464844 0 "/></g></g></g><g fill="#2e2e2e" fill-opacity="1"><g transform="translate(108.62369, 166.955662)"><g><path d="M 1.464844 0 L 2.785156 0 L 2.785156 -4.34375 C 2.785156 -6.027344 3.730469 -7.113281 5.144531 -7.113281 C 6.515625 -7.113281 7.382812 -6.074219 7.382812 -4.453125 L 7.382812 0 L 8.703125 0 L 8.703125 -4.34375 C 8.703125 -6.027344 9.648438 -7.113281 11.0625 -7.113281 C 12.433594 -7.113281 13.296875 -6.074219 13.296875 -4.453125 L 13.296875 0 L 14.621094 0 L 14.621094 -4.675781 C 14.621094 -6.957031 13.296875 -8.371094 11.238281 -8.371094 C 9.914062 -8.371094 8.84375 -7.804688 8.199219 -6.765625 C 7.648438 -7.820312 6.640625 -8.371094 5.335938 -8.371094 C 4.203125 -8.371094 3.289062 -7.949219 2.675781 -7.144531 L 2.550781 -8.167969 L 1.464844 -8.167969 Z M 1.464844 0 "/></g></g></g><g fill="#2e2e2e" fill-opacity="1"><g transform="translate(124.548042, 166.955662)"><g><path d="M 5.144531 0.203125 C 7.679688 0.203125 9.472656 -1.589844 9.472656 -4.09375 C 9.472656 -6.59375 7.679688 -8.371094 5.144531 -8.371094 C 2.613281 -8.371094 0.820312 -6.59375 0.820312 -4.09375 C 0.820312 -1.589844 2.613281 0.203125 5.144531 0.203125 Z M 2.140625 -4.09375 C 2.140625 -5.871094 3.382812 -7.113281 5.144531 -7.113281 C 6.910156 -7.113281 8.152344 -5.871094 8.152344 -4.09375 C 8.152344 -2.296875 6.910156 -1.070312 5.144531 -1.070312 C 3.382812 -1.070312 2.140625 -2.296875 2.140625 -4.09375 Z M 2.140625 -4.09375 "/></g></g></g><g fill="#2e2e2e" fill-opacity="1"><g transform="translate(134.839074, 166.955662)"><g><path d="M 1.464844 0 L 2.785156 0 L 2.785156 -4.125 C 2.785156 -5.917969 3.871094 -7.113281 5.398438 -7.113281 C 6.832031 -7.113281 7.710938 -6.074219 7.710938 -4.421875 L 7.710938 0 L 9.035156 0 L 9.035156 -4.546875 C 9.035156 -6.878906 7.742188 -8.371094 5.570312 -8.371094 C 4.46875 -8.371094 3.398438 -7.949219 2.691406 -6.972656 L 2.550781 -8.167969 L 1.464844 -8.167969 Z M 1.464844 0 "/></g></g></g><g fill="#2e2e2e" fill-opacity="1"><g transform="translate(145.177314, 166.955662)"><g><path d="M 1.464844 0 L 2.785156 0 L 2.785156 -8.167969 L 1.464844 -8.167969 Z M 1.054688 -10.542969 C 1.054688 -9.960938 1.480469 -9.519531 2.125 -9.519531 C 2.769531 -9.519531 3.179688 -9.960938 3.179688 -10.542969 C 3.179688 -11.140625 2.769531 -11.582031 2.125 -11.582031 C 1.480469 -11.582031 1.054688 -11.140625 1.054688 -10.542969 Z M 1.054688 -10.542969 "/></g></g></g><g fill="#2e2e2e" fill-opacity="1"><g transform="translate(149.425904, 166.955662)"><g><path d="M 5.144531 0.203125 C 7.679688 0.203125 9.472656 -1.589844 9.472656 -4.09375 C 9.472656 -6.59375 7.679688 -8.371094 5.144531 -8.371094 C 2.613281 -8.371094 0.820312 -6.59375 0.820312 -4.09375 C 0.820312 -1.589844 2.613281 0.203125 5.144531 0.203125 Z M 2.140625 -4.09375 C 2.140625 -5.871094 3.382812 -7.113281 5.144531 -7.113281 C 6.910156 -7.113281 8.152344 -5.871094 8.152344 -4.09375 C 8.152344 -2.296875 6.910156 -1.070312 5.144531 -1.070312 C 3.382812 -1.070312 2.140625 -2.296875 2.140625 -4.09375 Z M 2.140625 -4.09375 "/></g></g></g><g fill="#2e2e2e" fill-opacity="1"><g transform="translate(159.716936, 166.955662)"><g><path d="M 4.722656 0.203125 C 5.808594 0.203125 6.863281 -0.234375 7.570312 -1.195312 L 7.710938 0 L 8.796875 0 L 8.796875 -8.167969 L 7.476562 -8.167969 L 7.476562 -4.042969 C 7.476562 -2.265625 6.421875 -1.070312 4.894531 -1.070312 C 3.492188 -1.070312 2.628906 -2.109375 2.628906 -3.746094 L 2.628906 -8.167969 L 1.304688 -8.167969 L 1.304688 -3.621094 C 1.304688 -1.289062 2.582031 0.203125 4.722656 0.203125 Z M 4.722656 0.203125 "/></g></g></g><g fill="#2e2e2e" fill-opacity="1"><g transform="translate(169.976495, 166.955662)"><g><path d="M 4.421875 0.203125 C 6.4375 0.203125 7.742188 -0.722656 7.742188 -2.140625 C 7.742188 -3.414062 6.671875 -4.28125 4.609375 -4.691406 C 2.910156 -5.019531 2.328125 -5.351562 2.328125 -6.042969 C 2.328125 -6.765625 3.023438 -7.207031 4.203125 -7.207031 C 5.445312 -7.207031 6.183594 -6.71875 6.28125 -5.824219 L 7.585938 -5.824219 C 7.476562 -7.429688 6.199219 -8.371094 4.1875 -8.371094 C 2.21875 -8.371094 1.023438 -7.507812 1.023438 -6.042969 C 1.023438 -4.753906 2.015625 -3.964844 4.125 -3.621094 C 5.710938 -3.351562 6.4375 -2.910156 6.4375 -2.171875 C 6.4375 -1.433594 5.679688 -0.976562 4.4375 -0.976562 C 3.039062 -0.976562 2.203125 -1.574219 2.15625 -2.566406 L 0.851562 -2.566406 C 0.882812 -0.898438 2.28125 0.203125 4.421875 0.203125 Z M 4.421875 0.203125 "/></g></g></g><g fill="#2e2e2e" fill-opacity="1"><g transform="translate(178.568092, 166.955662)"><g><path d="M 2.015625 0.125 C 2.660156 0.125 3.085938 -0.316406 3.085938 -0.914062 C 3.085938 -1.511719 2.660156 -1.9375 2.015625 -1.9375 C 1.386719 -1.9375 0.960938 -1.511719 0.960938 -0.914062 C 0.960938 -0.316406 1.386719 0.125 2.015625 0.125 Z M 2.015625 0.125 "/></g></g></g><g fill="#2e2e2e" fill-opacity="1"><g transform="translate(182.612122, 166.955662)"><g/></g></g><g fill="#2e2e2e" fill-opacity="1"><g transform="translate(186.514537, 166.955662)"><g><path d="M 5.273438 0.203125 C 7.679688 0.203125 9.238281 -0.976562 9.238281 -2.894531 C 9.238281 -4.515625 8.152344 -5.492188 5.335938 -6.183594 C 3.195312 -6.703125 2.488281 -7.269531 2.488281 -8.183594 C 2.488281 -9.238281 3.429688 -9.898438 5.003906 -9.898438 C 6.625 -9.898438 7.632812 -9.082031 7.664062 -7.757812 L 9.035156 -7.757812 C 9.019531 -9.898438 7.476562 -11.222656 5.003906 -11.222656 C 2.597656 -11.222656 1.070312 -10.039062 1.070312 -8.183594 C 1.070312 -6.484375 2.28125 -5.539062 4.988281 -4.894531 C 6.972656 -4.421875 7.804688 -3.871094 7.804688 -2.847656 C 7.804688 -1.761719 6.832031 -1.117188 5.273438 -1.117188 C 3.558594 -1.117188 2.359375 -1.96875 2.328125 -3.382812 L 0.945312 -3.382812 C 0.960938 -1.226562 2.644531 0.203125 5.273438 0.203125 Z M 5.273438 0.203125 "/></g></g></g><g fill="#2e2e2e" fill-opacity="1"><g transform="translate(196.695424, 166.955662)"><g><path d="M 1.464844 0 L 2.785156 0 L 2.785156 -4.171875 C 2.785156 -5.964844 3.871094 -7.113281 5.414062 -7.113281 C 6.832031 -7.113281 7.710938 -6.105469 7.710938 -4.46875 L 7.710938 0 L 9.035156 0 L 9.035156 -4.59375 C 9.035156 -6.925781 7.742188 -8.371094 5.585938 -8.371094 C 4.53125 -8.371094 3.492188 -7.980469 2.785156 -7.097656 L 2.785156 -11.644531 L 1.464844 -11.644531 Z M 1.464844 0 "/></g></g></g><g fill="#2e2e2e" fill-opacity="1"><g transform="translate(207.033664, 166.955662)"><g><path d="M 5.144531 0.203125 C 7.679688 0.203125 9.472656 -1.589844 9.472656 -4.09375 C 9.472656 -6.59375 7.679688 -8.371094 5.144531 -8.371094 C 2.613281 -8.371094 0.820312 -6.59375 0.820312 -4.09375 C 0.820312 -1.589844 2.613281 0.203125 5.144531 0.203125 Z M 2.140625 -4.09375 C 2.140625 -5.871094 3.382812 -7.113281 5.144531 -7.113281 C 6.910156 -7.113281 8.152344 -5.871094 8.152344 -4.09375 C 8.152344 -2.296875 6.910156 -1.070312 5.144531 -1.070312 C 3.382812 -1.070312 2.140625 -2.296875 2.140625 -4.09375 Z M 2.140625 -4.09375 "/></g></g></g><g fill="#2e2e2e" fill-opacity="1"><g transform="translate(217.324696, 166.955662)"><g><path d="M 1.464844 0 L 2.785156 0 L 2.785156 -3.792969 C 2.785156 -6.121094 3.949219 -6.941406 5.429688 -6.941406 L 6.230469 -6.941406 L 6.230469 -8.167969 L 5.492188 -8.167969 C 4.109375 -8.167969 3.289062 -7.726562 2.707031 -6.75 L 2.550781 -8.167969 L 1.464844 -8.167969 Z M 1.464844 0 "/></g></g></g><g fill="#2e2e2e" fill-opacity="1"><g transform="translate(224.185386, 166.955662)"><g><path d="M 4.988281 0 L 6.214844 0 L 6.214844 -1.273438 L 5.050781 -1.273438 C 3.964844 -1.273438 3.460938 -1.824219 3.460938 -3.007812 L 3.460938 -6.957031 L 6.105469 -6.957031 L 6.105469 -8.167969 L 3.460938 -8.167969 L 3.460938 -10.199219 L 2.4375 -10.199219 L 2.3125 -9.097656 C 2.21875 -8.355469 2 -8.167969 1.242188 -8.167969 L 0.425781 -8.167969 L 0.425781 -6.957031 L 2.140625 -6.957031 L 2.140625 -2.941406 C 2.140625 -1.070312 3.179688 0 4.988281 0 Z M 4.988281 0 "/></g></g></g><g fill="#2e2e2e" fill-opacity="1"><g transform="translate(231.171957, 166.955662)"><g/></g></g><g fill="#2e2e2e" fill-opacity="1"><g transform="translate(235.07438, 166.955662)"><g><path d="M 4.140625 0.125 C 5.460938 0.125 6.5 -0.300781 7.238281 -1.132812 L 7.382812 0 L 8.46875 0 L 8.46875 -5.195312 C 8.46875 -7.082031 7.035156 -8.371094 4.894531 -8.371094 C 3.117188 -8.371094 1.777344 -7.414062 1.417969 -5.839844 L 2.753906 -5.839844 C 3.023438 -6.640625 3.855469 -7.144531 4.910156 -7.144531 C 6.296875 -7.144531 7.144531 -6.375 7.144531 -5.097656 L 7.144531 -4.800781 L 3.808594 -4.800781 C 2.109375 -4.800781 0.992188 -3.839844 0.992188 -2.359375 C 0.992188 -0.820312 2.171875 0.125 4.140625 0.125 Z M 2.3125 -2.375 C 2.3125 -3.148438 2.941406 -3.636719 3.855469 -3.636719 L 7.160156 -3.636719 C 7.113281 -2.125 5.886719 -1.054688 4.1875 -1.054688 C 3.039062 -1.054688 2.3125 -1.574219 2.3125 -2.375 Z M 2.3125 -2.375 "/></g></g></g><g fill="#2e2e2e" fill-opacity="1"><g transform="translate(244.830393, 166.955662)"><g><path d="M 1.464844 0 L 2.785156 0 L 2.785156 -4.125 C 2.785156 -5.917969 3.871094 -7.113281 5.398438 -7.113281 C 6.832031 -7.113281 7.710938 -6.074219 7.710938 -4.421875 L 7.710938 0 L 9.035156 0 L 9.035156 -4.546875 C 9.035156 -6.878906 7.742188 -8.371094 5.570312 -8.371094 C 4.46875 -8.371094 3.398438 -7.949219 2.691406 -6.972656 L 2.550781 -8.167969 L 1.464844 -8.167969 Z M 1.464844 0 "/></g></g></g><g fill="#2e2e2e" fill-opacity="1"><g transform="translate(255.168633, 166.955662)"><g><path d="M 4.988281 0.203125 C 6.3125 0.203125 7.445312 -0.347656 8.183594 -1.257812 L 8.339844 0 L 9.425781 0 L 9.425781 -11.644531 L 8.105469 -11.644531 L 8.105469 -7.019531 C 7.367188 -7.867188 6.261719 -8.371094 4.988281 -8.371094 C 2.566406 -8.371094 0.820312 -6.5625 0.820312 -4.09375 C 0.820312 -1.605469 2.566406 0.203125 4.988281 0.203125 Z M 2.140625 -4.09375 C 2.140625 -5.855469 3.382812 -7.113281 5.144531 -7.113281 C 6.925781 -7.113281 8.152344 -5.855469 8.152344 -4.09375 C 8.152344 -2.3125 6.925781 -1.070312 5.144531 -1.070312 C 3.382812 -1.070312 2.140625 -2.3125 2.140625 -4.09375 Z M 2.140625 -4.09375 "/></g></g></g><g fill="#2e2e2e" fill-opacity="1"><g transform="translate(266.057627, 166.955662)"><g/></g></g><g fill="#2e2e2e" fill-opacity="1"><g transform="translate(269.960032, 166.955662)"><g><path d="M 4.421875 0.203125 C 6.4375 0.203125 7.742188 -0.722656 7.742188 -2.140625 C 7.742188 -3.414062 6.671875 -4.28125 4.609375 -4.691406 C 2.910156 -5.019531 2.328125 -5.351562 2.328125 -6.042969 C 2.328125 -6.765625 3.023438 -7.207031 4.203125 -7.207031 C 5.445312 -7.207031 6.183594 -6.71875 6.28125 -5.824219 L 7.585938 -5.824219 C 7.476562 -7.429688 6.199219 -8.371094 4.1875 -8.371094 C 2.21875 -8.371094 1.023438 -7.507812 1.023438 -6.042969 C 1.023438 -4.753906 2.015625 -3.964844 4.125 -3.621094 C 5.710938 -3.351562 6.4375 -2.910156 6.4375 -2.171875 C 6.4375 -1.433594 5.679688 -0.976562 4.4375 -0.976562 C 3.039062 -0.976562 2.203125 -1.574219 2.15625 -2.566406 L 0.851562 -2.566406 C 0.882812 -0.898438 2.28125 0.203125 4.421875 0.203125 Z M 4.421875 0.203125 "/></g></g></g><g fill="#2e2e2e" fill-opacity="1"><g transform="translate(278.551629, 166.955662)"><g><path d="M 1.464844 0 L 2.785156 0 L 2.785156 -8.167969 L 1.464844 -8.167969 Z M 1.054688 -10.542969 C 1.054688 -9.960938 1.480469 -9.519531 2.125 -9.519531 C 2.769531 -9.519531 3.179688 -9.960938 3.179688 -10.542969 C 3.179688 -11.140625 2.769531 -11.582031 2.125 -11.582031 C 1.480469 -11.582031 1.054688 -11.140625 1.054688 -10.542969 Z M 1.054688 -10.542969 "/></g></g></g><g fill="#2e2e2e" fill-opacity="1"><g transform="translate(282.80021, 166.955662)"><g><path d="M 1.464844 0 L 2.785156 0 L 2.785156 -4.34375 C 2.785156 -6.027344 3.730469 -7.113281 5.144531 -7.113281 C 6.515625 -7.113281 7.382812 -6.074219 7.382812 -4.453125 L 7.382812 0 L 8.703125 0 L 8.703125 -4.34375 C 8.703125 -6.027344 9.648438 -7.113281 11.0625 -7.113281 C 12.433594 -7.113281 13.296875 -6.074219 13.296875 -4.453125 L 13.296875 0 L 14.621094 0 L 14.621094 -4.675781 C 14.621094 -6.957031 13.296875 -8.371094 11.238281 -8.371094 C 9.914062 -8.371094 8.84375 -7.804688 8.199219 -6.765625 C 7.648438 -7.820312 6.640625 -8.371094 5.335938 -8.371094 C 4.203125 -8.371094 3.289062 -7.949219 2.675781 -7.144531 L 2.550781 -8.167969 L 1.464844 -8.167969 Z M 1.464844 0 "/></g></g></g><g fill="#2e2e2e" fill-opacity="1"><g transform="translate(298.724554, 166.955662)"><g><path d="M 5.917969 0.203125 C 8.324219 0.203125 10.070312 -1.605469 10.070312 -4.09375 C 10.070312 -6.5625 8.324219 -8.371094 5.917969 -8.371094 C 4.578125 -8.371094 3.445312 -7.820312 2.707031 -6.910156 L 2.550781 -8.167969 L 1.464844 -8.167969 L 1.464844 3.148438 L 2.785156 3.148438 L 2.785156 -1.164062 C 3.523438 -0.316406 4.625 0.203125 5.917969 0.203125 Z M 2.738281 -4.09375 C 2.738281 -5.855469 3.980469 -7.113281 5.746094 -7.113281 C 7.523438 -7.113281 8.75 -5.855469 8.75 -4.09375 C 8.75 -2.3125 7.523438 -1.070312 5.746094 -1.070312 C 3.980469 -1.070312 2.738281 -2.3125 2.738281 -4.09375 Z M 2.738281 -4.09375 "/></g></g></g><g fill="#2e2e2e" fill-opacity="1"><g transform="translate(309.613529, 166.955662)"><g><path d="M 1.464844 0 L 2.785156 0 L 2.785156 -11.644531 L 1.464844 -11.644531 Z M 1.464844 0 "/></g></g></g><g fill="#2e2e2e" fill-opacity="1"><g transform="translate(313.862111, 166.955662)"><g><path d="M 5.003906 0.203125 C 6.847656 0.203125 8.355469 -0.785156 9.019531 -2.375 L 7.523438 -2.375 C 7.019531 -1.511719 6.089844 -1.039062 5.019531 -1.039062 C 3.460938 -1.039062 2.359375 -2.015625 2.15625 -3.558594 L 9.222656 -3.558594 C 9.316406 -6.40625 7.632812 -8.371094 5.019531 -8.371094 C 2.550781 -8.371094 0.820312 -6.609375 0.820312 -4.09375 C 0.820312 -1.558594 2.535156 0.203125 5.003906 0.203125 Z M 2.171875 -4.722656 C 2.40625 -6.167969 3.507812 -7.128906 5.019531 -7.128906 C 6.515625 -7.128906 7.617188 -6.214844 7.898438 -4.722656 Z M 2.171875 -4.722656 "/></g></g></g><g fill="#2e2e2e" fill-opacity="1"><g transform="translate(81.668738, 188.797314)"><g><path d="M 5.113281 3.351562 C 7.554688 3.351562 9.144531 1.839844 9.144531 -0.472656 L 9.144531 -8.167969 L 8.058594 -8.167969 L 7.917969 -7.066406 C 7.191406 -7.882812 6.121094 -8.371094 4.894531 -8.371094 C 2.566406 -8.371094 0.820312 -6.609375 0.820312 -4.234375 C 0.820312 -1.839844 2.566406 -0.078125 4.894531 -0.078125 C 6.074219 -0.078125 7.097656 -0.535156 7.820312 -1.289062 L 7.820312 -0.519531 C 7.820312 1.164062 6.832031 2.125 5.113281 2.125 C 3.777344 2.125 2.847656 1.511719 2.597656 0.519531 L 1.257812 0.519531 C 1.558594 2.265625 3.039062 3.351562 5.113281 3.351562 Z M 2.140625 -4.234375 C 2.140625 -5.902344 3.351562 -7.097656 5.035156 -7.097656 C 6.734375 -7.097656 7.933594 -5.902344 7.933594 -4.234375 C 7.933594 -2.550781 6.734375 -1.371094 5.035156 -1.371094 C 3.351562 -1.371094 2.140625 -2.550781 2.140625 -4.234375 Z M 2.140625 -4.234375 "/></g></g></g><g fill="#2e2e2e" fill-opacity="1"><g transform="translate(92.274482, 188.797314)"><g><path d="M 4.722656 0.203125 C 5.808594 0.203125 6.863281 -0.234375 7.570312 -1.195312 L 7.710938 0 L 8.796875 0 L 8.796875 -8.167969 L 7.476562 -8.167969 L 7.476562 -4.042969 C 7.476562 -2.265625 6.421875 -1.070312 4.894531 -1.070312 C 3.492188 -1.070312 2.628906 -2.109375 2.628906 -3.746094 L 2.628906 -8.167969 L 1.304688 -8.167969 L 1.304688 -3.621094 C 1.304688 -1.289062 2.582031 0.203125 4.722656 0.203125 Z M 4.722656 0.203125 "/></g></g></g><g fill="#2e2e2e" fill-opacity="1"><g transform="translate(102.534041, 188.797314)"><g><path d="M 1.464844 0 L 2.785156 0 L 2.785156 -8.167969 L 1.464844 -8.167969 Z M 1.054688 -10.542969 C 1.054688 -9.960938 1.480469 -9.519531 2.125 -9.519531 C 2.769531 -9.519531 3.179688 -9.960938 3.179688 -10.542969 C 3.179688 -11.140625 2.769531 -11.582031 2.125 -11.582031 C 1.480469 -11.582031 1.054688 -11.140625 1.054688 -10.542969 Z M 1.054688 -10.542969 "/></g></g></g><g fill="#2e2e2e" fill-opacity="1"><g transform="translate(106.782632, 188.797314)"><g><path d="M 4.988281 0.203125 C 6.3125 0.203125 7.445312 -0.347656 8.183594 -1.257812 L 8.339844 0 L 9.425781 0 L 9.425781 -11.644531 L 8.105469 -11.644531 L 8.105469 -7.019531 C 7.367188 -7.867188 6.261719 -8.371094 4.988281 -8.371094 C 2.566406 -8.371094 0.820312 -6.5625 0.820312 -4.09375 C 0.820312 -1.605469 2.566406 0.203125 4.988281 0.203125 Z M 2.140625 -4.09375 C 2.140625 -5.855469 3.382812 -7.113281 5.144531 -7.113281 C 6.925781 -7.113281 8.152344 -5.855469 8.152344 -4.09375 C 8.152344 -2.3125 6.925781 -1.070312 5.144531 -1.070312 C 3.382812 -1.070312 2.140625 -2.3125 2.140625 -4.09375 Z M 2.140625 -4.09375 "/></g></g></g><g fill="#2e2e2e" fill-opacity="1"><g transform="translate(117.671616, 188.797314)"><g><path d="M 5.003906 0.203125 C 6.847656 0.203125 8.355469 -0.785156 9.019531 -2.375 L 7.523438 -2.375 C 7.019531 -1.511719 6.089844 -1.039062 5.019531 -1.039062 C 3.460938 -1.039062 2.359375 -2.015625 2.15625 -3.558594 L 9.222656 -3.558594 C 9.316406 -6.40625 7.632812 -8.371094 5.019531 -8.371094 C 2.550781 -8.371094 0.820312 -6.609375 0.820312 -4.09375 C 0.820312 -1.558594 2.535156 0.203125 5.003906 0.203125 Z M 2.171875 -4.722656 C 2.40625 -6.167969 3.507812 -7.128906 5.019531 -7.128906 C 6.515625 -7.128906 7.617188 -6.214844 7.898438 -4.722656 Z M 2.171875 -4.722656 "/></g></g></g><g fill="#2e2e2e" fill-opacity="1"><g transform="translate(127.679407, 188.797314)"><g><path d="M 4.421875 0.203125 C 6.4375 0.203125 7.742188 -0.722656 7.742188 -2.140625 C 7.742188 -3.414062 6.671875 -4.28125 4.609375 -4.691406 C 2.910156 -5.019531 2.328125 -5.351562 2.328125 -6.042969 C 2.328125 -6.765625 3.023438 -7.207031 4.203125 -7.207031 C 5.445312 -7.207031 6.183594 -6.71875 6.28125 -5.824219 L 7.585938 -5.824219 C 7.476562 -7.429688 6.199219 -8.371094 4.1875 -8.371094 C 2.21875 -8.371094 1.023438 -7.507812 1.023438 -6.042969 C 1.023438 -4.753906 2.015625 -3.964844 4.125 -3.621094 C 5.710938 -3.351562 6.4375 -2.910156 6.4375 -2.171875 C 6.4375 -1.433594 5.679688 -0.976562 4.4375 -0.976562 C 3.039062 -0.976562 2.203125 -1.574219 2.15625 -2.566406 L 0.851562 -2.566406 C 0.882812 -0.898438 2.28125 0.203125 4.421875 0.203125 Z M 4.421875 0.203125 "/></g></g></g><g fill="#2e2e2e" fill-opacity="1"><g transform="translate(136.271004, 188.797314)"><g/></g></g><g fill="#2e2e2e" fill-opacity="1"><g transform="translate(140.173419, 188.797314)"><g><path d="M 4.140625 0.125 C 5.460938 0.125 6.5 -0.300781 7.238281 -1.132812 L 7.382812 0 L 8.46875 0 L 8.46875 -5.195312 C 8.46875 -7.082031 7.035156 -8.371094 4.894531 -8.371094 C 3.117188 -8.371094 1.777344 -7.414062 1.417969 -5.839844 L 2.753906 -5.839844 C 3.023438 -6.640625 3.855469 -7.144531 4.910156 -7.144531 C 6.296875 -7.144531 7.144531 -6.375 7.144531 -5.097656 L 7.144531 -4.800781 L 3.808594 -4.800781 C 2.109375 -4.800781 0.992188 -3.839844 0.992188 -2.359375 C 0.992188 -0.820312 2.171875 0.125 4.140625 0.125 Z M 2.3125 -2.375 C 2.3125 -3.148438 2.941406 -3.636719 3.855469 -3.636719 L 7.160156 -3.636719 C 7.113281 -2.125 5.886719 -1.054688 4.1875 -1.054688 C 3.039062 -1.054688 2.3125 -1.574219 2.3125 -2.375 Z M 2.3125 -2.375 "/></g></g></g><g fill="#2e2e2e" fill-opacity="1"><g transform="translate(149.929441, 188.797314)"><g><path d="M 1.464844 0 L 2.785156 0 L 2.785156 -3.792969 C 2.785156 -6.121094 3.949219 -6.941406 5.429688 -6.941406 L 6.230469 -6.941406 L 6.230469 -8.167969 L 5.492188 -8.167969 C 4.109375 -8.167969 3.289062 -7.726562 2.707031 -6.75 L 2.550781 -8.167969 L 1.464844 -8.167969 Z M 1.464844 0 "/></g></g></g><g fill="#2e2e2e" fill-opacity="1"><g transform="translate(156.790132, 188.797314)"><g><path d="M 5.003906 0.203125 C 6.847656 0.203125 8.355469 -0.785156 9.019531 -2.375 L 7.523438 -2.375 C 7.019531 -1.511719 6.089844 -1.039062 5.019531 -1.039062 C 3.460938 -1.039062 2.359375 -2.015625 2.15625 -3.558594 L 9.222656 -3.558594 C 9.316406 -6.40625 7.632812 -8.371094 5.019531 -8.371094 C 2.550781 -8.371094 0.820312 -6.609375 0.820312 -4.09375 C 0.820312 -1.558594 2.535156 0.203125 5.003906 0.203125 Z M 2.171875 -4.722656 C 2.40625 -6.167969 3.507812 -7.128906 5.019531 -7.128906 C 6.515625 -7.128906 7.617188 -6.214844 7.898438 -4.722656 Z M 2.171875 -4.722656 "/></g></g></g><g fill="#2e2e2e" fill-opacity="1"><g transform="translate(166.797923, 188.797314)"><g/></g></g><g fill="#2e2e2e" fill-opacity="1"><g transform="translate(170.700337, 188.797314)"><g><path d="M 4.988281 0 L 6.214844 0 L 6.214844 -1.273438 L 5.050781 -1.273438 C 3.964844 -1.273438 3.460938 -1.824219 3.460938 -3.007812 L 3.460938 -6.957031 L 6.105469 -6.957031 L 6.105469 -8.167969 L 3.460938 -8.167969 L 3.460938 -10.199219 L 2.4375 -10.199219 L 2.3125 -9.097656 C 2.21875 -8.355469 2 -8.167969 1.242188 -8.167969 L 0.425781 -8.167969 L 0.425781 -6.957031 L 2.140625 -6.957031 L 2.140625 -2.941406 C 2.140625 -1.070312 3.179688 0 4.988281 0 Z M 4.988281 0 "/></g></g></g><g fill="#2e2e2e" fill-opacity="1"><g transform="translate(177.686907, 188.797314)"><g><path d="M 1.464844 0 L 2.785156 0 L 2.785156 -4.171875 C 2.785156 -5.964844 3.871094 -7.113281 5.414062 -7.113281 C 6.832031 -7.113281 7.710938 -6.105469 7.710938 -4.46875 L 7.710938 0 L 9.035156 0 L 9.035156 -4.59375 C 9.035156 -6.925781 7.742188 -8.371094 5.585938 -8.371094 C 4.53125 -8.371094 3.492188 -7.980469 2.785156 -7.097656 L 2.785156 -11.644531 L 1.464844 -11.644531 Z M 1.464844 0 "/></g></g></g><g fill="#2e2e2e" fill-opacity="1"><g transform="translate(188.025147, 188.797314)"><g><path d="M 5.003906 0.203125 C 6.847656 0.203125 8.355469 -0.785156 9.019531 -2.375 L 7.523438 -2.375 C 7.019531 -1.511719 6.089844 -1.039062 5.019531 -1.039062 C 3.460938 -1.039062 2.359375 -2.015625 2.15625 -3.558594 L 9.222656 -3.558594 C 9.316406 -6.40625 7.632812 -8.371094 5.019531 -8.371094 C 2.550781 -8.371094 0.820312 -6.609375 0.820312 -4.09375 C 0.820312 -1.558594 2.535156 0.203125 5.003906 0.203125 Z M 2.171875 -4.722656 C 2.40625 -6.167969 3.507812 -7.128906 5.019531 -7.128906 C 6.515625 -7.128906 7.617188 -6.214844 7.898438 -4.722656 Z M 2.171875 -4.722656 "/></g></g></g><g fill="#2e2e2e" fill-opacity="1"><g transform="translate(198.032938, 188.797314)"><g/></g></g><g fill="#2e2e2e" fill-opacity="1"><g transform="translate(201.935352, 188.797314)"><g><path d="M 5.917969 0.203125 C 8.324219 0.203125 10.070312 -1.605469 10.070312 -4.09375 C 10.070312 -6.5625 8.324219 -8.371094 5.917969 -8.371094 C 4.625 -8.371094 3.523438 -7.851562 2.785156 -7.003906 L 2.785156 -11.644531 L 1.464844 -11.644531 L 1.464844 0 L 2.550781 0 L 2.707031 -1.257812 C 3.445312 -0.347656 4.578125 0.203125 5.917969 0.203125 Z M 2.738281 -4.09375 C 2.738281 -5.855469 3.980469 -7.113281 5.746094 -7.113281 C 7.523438 -7.113281 8.75 -5.855469 8.75 -4.09375 C 8.75 -2.3125 7.523438 -1.070312 5.746094 -1.070312 C 3.980469 -1.070312 2.738281 -2.3125 2.738281 -4.09375 Z M 2.738281 -4.09375 "/></g></g></g><g fill="#2e2e2e" fill-opacity="1"><g transform="translate(212.824337, 188.797314)"><g><path d="M 5.003906 0.203125 C 6.847656 0.203125 8.355469 -0.785156 9.019531 -2.375 L 7.523438 -2.375 C 7.019531 -1.511719 6.089844 -1.039062 5.019531 -1.039062 C 3.460938 -1.039062 2.359375 -2.015625 2.15625 -3.558594 L 9.222656 -3.558594 C 9.316406 -6.40625 7.632812 -8.371094 5.019531 -8.371094 C 2.550781 -8.371094 0.820312 -6.609375 0.820312 -4.09375 C 0.820312 -1.558594 2.535156 0.203125 5.003906 0.203125 Z M 2.171875 -4.722656 C 2.40625 -6.167969 3.507812 -7.128906 5.019531 -7.128906 C 6.515625 -7.128906 7.617188 -6.214844 7.898438 -4.722656 Z M 2.171875 -4.722656 "/></g></g></g><g fill="#2e2e2e" fill-opacity="1"><g transform="translate(222.832128, 188.797314)"><g><path d="M 4.421875 0.203125 C 6.4375 0.203125 7.742188 -0.722656 7.742188 -2.140625 C 7.742188 -3.414062 6.671875 -4.28125 4.609375 -4.691406 C 2.910156 -5.019531 2.328125 -5.351562 2.328125 -6.042969 C 2.328125 -6.765625 3.023438 -7.207031 4.203125 -7.207031 C 5.445312 -7.207031 6.183594 -6.71875 6.28125 -5.824219 L 7.585938 -5.824219 C 7.476562 -7.429688 6.199219 -8.371094 4.1875 -8.371094 C 2.21875 -8.371094 1.023438 -7.507812 1.023438 -6.042969 C 1.023438 -4.753906 2.015625 -3.964844 4.125 -3.621094 C 5.710938 -3.351562 6.4375 -2.910156 6.4375 -2.171875 C 6.4375 -1.433594 5.679688 -0.976562 4.4375 -0.976562 C 3.039062 -0.976562 2.203125 -1.574219 2.15625 -2.566406 L 0.851562 -2.566406 C 0.882812 -0.898438 2.28125 0.203125 4.421875 0.203125 Z M 4.421875 0.203125 "/></g></g></g><g fill="#2e2e2e" fill-opacity="1"><g transform="translate(231.423725, 188.797314)"><g><path d="M 4.988281 0 L 6.214844 0 L 6.214844 -1.273438 L 5.050781 -1.273438 C 3.964844 -1.273438 3.460938 -1.824219 3.460938 -3.007812 L 3.460938 -6.957031 L 6.105469 -6.957031 L 6.105469 -8.167969 L 3.460938 -8.167969 L 3.460938 -10.199219 L 2.4375 -10.199219 L 2.3125 -9.097656 C 2.21875 -8.355469 2 -8.167969 1.242188 -8.167969 L 0.425781 -8.167969 L 0.425781 -6.957031 L 2.140625 -6.957031 L 2.140625 -2.941406 C 2.140625 -1.070312 3.179688 0 4.988281 0 Z M 4.988281 0 "/></g></g></g><g fill="#2e2e2e" fill-opacity="1"><g transform="translate(238.410286, 188.797314)"><g><path d="M 2.015625 0.125 C 2.660156 0.125 3.085938 -0.316406 3.085938 -0.914062 C 3.085938 -1.511719 2.660156 -1.9375 2.015625 -1.9375 C 1.386719 -1.9375 0.960938 -1.511719 0.960938 -0.914062 C 0.960938 -0.316406 1.386719 0.125 2.015625 0.125 Z M 2.015625 0.125 "/></g></g></g><g clip-path="url(#ae8461445d)"><g clip-path="url(#ce56ff3025)"><g clip-path="url(#7d78ebf394)"><path fill="#3a5dc4" d="M 206.761719 368.933594 L 106.691406 430.917969 C 102.054688 433.796875 95.960938 432.347656 93.085938 427.710938 L 31.101562 327.640625 C 28.222656 323 29.671875 316.90625 34.308594 314.03125 L 134.378906 252.046875 C 139.015625 249.167969 145.113281 250.617188 147.988281 255.257812 L 209.972656 355.324219 C 212.851562 359.964844 211.402344 366.058594 206.761719 368.933594 Z M 206.761719 368.933594 " fill-opacity="1" fill-rule="nonzero"/></g></g></g><g clip-path="url(#92bbfdc48f)"><g clip-path="url(#1d72eec68f)"><g clip-path="url(#61b46c8d3d)"><path fill="#ffffff" d="M 113.453125 329.960938 C 111.039062 338.585938 102.105469 343.574219 93.523438 341.167969 C 84.941406 338.765625 79.914062 329.820312 82.316406 321.238281 C 84.722656 312.65625 93.664062 307.628906 102.246094 310.03125 C 110.828125 312.4375 115.871094 321.339844 113.453125 329.960938 Z M 152.75 323.234375 C 144.128906 320.820312 135.226562 325.859375 132.820312 334.441406 C 130.414062 343.023438 135.445312 351.964844 144.027344 354.371094 C 152.609375 356.777344 161.550781 351.746094 163.957031 343.164062 C 166.363281 334.582031 161.371094 325.652344 152.75 323.234375 Z M 152.75 323.234375 " fill-opacity="1" fill-rule="nonzero"/></g></g></g><g clip-path="url(#98ceb76231)"><g clip-path="url(#c6884667bd)"><g clip-path="url(#a42c2e3a16)"><path fill="#ff7f1d" d="M 171.828125 365.777344 C 170.328125 371.125 164.8125 374.230469 159.460938 372.730469 C 154.113281 371.230469 151.007812 365.714844 152.507812 360.363281 C 154.007812 355.015625 159.527344 351.910156 164.875 353.410156 C 170.195312 354.859375 173.328125 360.429688 171.828125 365.777344 Z M 76.261719 329.488281 C 70.910156 327.988281 65.390625 331.089844 63.894531 336.441406 C 62.394531 341.789062 65.5 347.308594 70.847656 348.808594 C 76.195312 350.304688 81.714844 347.203125 83.214844 341.851562 C 84.714844 336.503906 81.609375 330.984375 76.261719 329.488281 Z M 76.261719 329.488281 " fill-opacity="1" fill-rule="nonzero"/></g></g></g><g clip-path="url(#b6fd763fae)"><g clip-path="url(#733249636f)"><g clip-path="url(#d34cf2fd77)"><path fill="#2e2e2e" d="M 107.386719 328.261719 C 105.921875 333.492188 100.453125 336.566406 95.222656 335.101562 C 89.992188 333.636719 86.917969 328.167969 88.382812 322.9375 C 89.851562 317.710938 95.316406 314.632812 100.546875 316.101562 C 105.777344 317.566406 108.863281 322.992188 107.386719 328.261719 Z M 151.050781 329.300781 C 145.820312 327.835938 140.351562 330.910156 138.886719 336.140625 C 137.421875 341.371094 140.496094 346.839844 145.726562 348.304688 C 150.957031 349.769531 156.425781 346.695312 157.890625 341.464844 C 159.355469 336.234375 156.28125 330.769531 151.050781 329.300781 Z M 151.050781 329.300781 " fill-opacity="1" fill-rule="nonzero"/></g></g></g><g clip-path="url(#0233d749fd)"><g clip-path="url(#3bbe019649)"><g clip-path="url(#bd30872bc4)"><path fill="#2e2e2e" d="M 116.878906 356.453125 C 116.519531 356.351562 116.160156 356.25 115.8125 356.109375 C 105.820312 352.75 101.480469 342.882812 101.292969 342.484375 C 100.433594 340.476562 101.355469 338.109375 103.359375 337.25 C 105.367188 336.394531 107.734375 337.316406 108.59375 339.320312 C 108.679688 339.472656 111.8125 346.421875 118.390625 348.609375 C 122.722656 350.039062 127.746094 349.164062 133.421875 345.976562 C 135.363281 344.882812 137.757812 345.554688 138.847656 347.496094 C 139.941406 349.4375 139.269531 351.832031 137.328125 352.925781 C 130.058594 357.046875 123.1875 358.21875 116.878906 356.453125 Z M 116.878906 356.453125 " fill-opacity="1" fill-rule="nonzero"/></g></g></g><g clip-path="url(#72c6905add)"><g clip-path="url(#b4ee4be889)"><g clip-path="url(#6c5d5cdb75)"><path fill="#ffc544" d="M 326.011719 349.785156 C 333.636719 354.859375 339.355469 362.777344 341.449219 372.402344 C 345.75 392.183594 333.125 411.742188 313.265625 416.058594 C 298.332031 419.304688 283.570312 413.03125 275.34375 401.316406 C 272.390625 414.945312 261.75 426.34375 247.160156 429.515625 C 227.300781 433.832031 207.695312 421.28125 203.394531 401.503906 C 201.351562 392.105469 203.15625 382.75 207.6875 375.074219 C 193.761719 372.285156 182.121094 361.589844 178.925781 346.90625 C 174.625 327.125 187.253906 307.566406 207.109375 303.25 C 210.164062 302.585938 213.1875 302.328125 216.132812 302.445312 C 215.34375 300.464844 214.660156 298.421875 214.195312 296.292969 C 209.894531 276.511719 222.523438 256.953125 242.378906 252.636719 C 262.238281 248.320312 281.84375 260.867188 286.144531 280.648438 C 286.667969 283.046875 286.941406 285.414062 286.972656 287.761719 C 290.238281 285.855469 293.839844 284.394531 297.773438 283.539062 C 317.628906 279.222656 337.238281 291.769531 341.539062 311.550781 C 344.78125 326.660156 338.160156 341.644531 326.011719 349.785156 Z M 326.011719 349.785156 " fill-opacity="1" fill-rule="nonzero"/></g></g></g><g clip-path="url(#ff20bea449)"><g clip-path="url(#b6c2bac576)"><g clip-path="url(#e7b898dea0)"><path fill="#f5f5ef" d="M 258.207031 327.636719 C 260.222656 336.917969 254.292969 346.058594 245.011719 348.074219 C 235.730469 350.09375 226.53125 344.203125 224.523438 334.960938 C 222.515625 325.714844 228.4375 316.539062 237.71875 314.523438 C 246.996094 312.503906 256.195312 318.394531 258.207031 327.636719 Z M 274.570312 306.511719 C 265.253906 308.535156 259.367188 317.703125 261.375 326.949219 C 263.386719 336.191406 272.585938 342.078125 281.863281 340.0625 C 291.144531 338.042969 297.070312 328.867188 295.058594 319.625 C 293.050781 310.382812 283.851562 304.492188 274.570312 306.511719 Z M 274.570312 306.511719 " fill-opacity="1" fill-rule="nonzero"/></g></g></g><g clip-path="url(#c5a1bc02b3)"><g clip-path="url(#febfe518cc)"><g clip-path="url(#7fd57380c4)"><path fill="#ff7f1d" d="M 313.691406 336.886719 C 314.9375 342.632812 311.257812 348.332031 305.492188 349.585938 C 299.726562 350.839844 294.011719 347.179688 292.761719 341.4375 C 291.515625 335.691406 295.195312 329.992188 300.960938 328.738281 C 306.726562 327.484375 312.441406 331.144531 313.691406 336.886719 Z M 222.910156 345.75 C 217.144531 347.003906 213.460938 352.703125 214.710938 358.445312 C 215.960938 364.191406 221.675781 367.847656 227.441406 366.59375 C 233.207031 365.339844 236.886719 359.640625 235.640625 353.898438 C 234.382812 348.113281 228.714844 344.488281 222.910156 345.75 Z M 222.910156 345.75 " fill-opacity="1" fill-rule="nonzero"/></g></g></g><g clip-path="url(#b1cb6012e2)"><g clip-path="url(#4b707a750f)"><g clip-path="url(#738c263999)"><path fill="#2e2e2e" d="M 268.855469 364.839844 C 253.273438 368.230469 239.148438 362.496094 231.867188 358.621094 C 229.835938 357.550781 229.089844 355.042969 230.167969 353.015625 C 231.246094 350.988281 233.765625 350.242188 235.796875 351.3125 C 248.328125 357.988281 272.359375 365.316406 292.851562 338.90625 C 294.257812 337.089844 296.867188 336.761719 298.6875 338.15625 C 300.511719 339.554688 300.835938 342.152344 299.433594 343.972656 C 289.601562 356.703125 278.898438 362.65625 268.855469 364.839844 Z M 268.855469 364.839844 " fill-opacity="1" fill-rule="nonzero"/></g></g></g><g clip-path="url(#3b921da0c4)"><g clip-path="url(#74d9ef6fd4)"><g clip-path="url(#90c5451cee)"><path fill="#2e2e2e" d="M 251.601562 329.074219 C 252.824219 334.703125 249.242188 340.300781 243.550781 341.539062 C 237.898438 342.769531 232.285156 339.207031 231.054688 333.539062 C 229.820312 327.871094 233.410156 322.3125 239.101562 321.074219 C 244.792969 319.835938 250.375 323.445312 251.601562 329.074219 Z M 275.992188 313.054688 C 270.339844 314.28125 266.710938 319.851562 267.945312 325.519531 C 269.175781 331.1875 274.753906 334.757812 280.441406 333.519531 C 286.09375 332.289062 289.722656 326.722656 288.492188 321.054688 C 287.257812 315.386719 281.644531 311.824219 275.992188 313.054688 Z M 275.992188 313.054688 " fill-opacity="1" fill-rule="nonzero"/></g></g></g></svg>