<svg xmlns="http://www.w3.org/2000/svg" xmlns:xlink="http://www.w3.org/1999/xlink" width="500" zoomAndPan="magnify" viewBox="0 0 375 374.999991" height="500" preserveAspectRatio="xMidYMid meet" version="1.0"><defs><clipPath id="c7f89919a2"><path d="M 261 11 L 340 11 L 340 109 L 261 109 Z M 261 11 " clip-rule="nonzero"/></clipPath><clipPath id="26fd6cc20f"><path d="M 252.355469 24.945312 L 314.066406 1.535156 L 349.445312 94.796875 L 287.738281 118.207031 Z M 252.355469 24.945312 " clip-rule="nonzero"/></clipPath><clipPath id="0523e0b367"><path d="M 252.355469 24.945312 L 314.066406 1.535156 L 349.445312 94.796875 L 287.738281 118.207031 Z M 252.355469 24.945312 " clip-rule="nonzero"/></clipPath><clipPath id="adfd508ffc"><path d="M 270 33 L 321 33 L 321 59 L 270 59 Z M 270 33 " clip-rule="nonzero"/></clipPath><clipPath id="69b1482f1f"><path d="M 252.355469 24.945312 L 314.066406 1.535156 L 349.445312 94.796875 L 287.738281 118.207031 Z M 252.355469 24.945312 " clip-rule="nonzero"/></clipPath><clipPath id="c4e32816d6"><path d="M 252.355469 24.945312 L 314.066406 1.535156 L 349.445312 94.796875 L 287.738281 118.207031 Z M 252.355469 24.945312 " clip-rule="nonzero"/></clipPath><clipPath id="a45514ea07"><path d="M 275 28 L 309 28 L 309 51 L 275 51 Z M 275 28 " clip-rule="nonzero"/></clipPath><clipPath id="0e8629856d"><path d="M 252.355469 24.945312 L 314.066406 1.535156 L 349.445312 94.796875 L 287.738281 118.207031 Z M 252.355469 24.945312 " clip-rule="nonzero"/></clipPath><clipPath id="94a053e698"><path d="M 252.355469 24.945312 L 314.066406 1.535156 L 349.445312 94.796875 L 287.738281 118.207031 Z M 252.355469 24.945312 " clip-rule="nonzero"/></clipPath><clipPath id="dcb23a3354"><path d="M 233 117 L 349 117 L 349 233 L 233 233 Z M 233 117 " clip-rule="nonzero"/></clipPath><clipPath id="3546ada51a"><path d="M 260.480469 93.183594 L 373.0625 144.558594 L 321.691406 257.140625 L 209.109375 205.769531 Z M 260.480469 93.183594 " clip-rule="nonzero"/></clipPath><clipPath id="cde4cab327"><path d="M 260.480469 93.183594 L 373.0625 144.558594 L 321.691406 257.140625 L 209.109375 205.769531 Z M 260.480469 93.183594 " clip-rule="nonzero"/></clipPath><clipPath id="2c4cb8effc"><path d="M 267 151 L 321 151 L 321 187 L 267 187 Z M 267 151 " clip-rule="nonzero"/></clipPath><clipPath id="c8bb03cce6"><path d="M 260.480469 93.183594 L 373.0625 144.558594 L 321.691406 257.140625 L 209.109375 205.769531 Z M 260.480469 93.183594 " clip-rule="nonzero"/></clipPath><clipPath id="61b0f2ad97"><path d="M 260.480469 93.183594 L 373.0625 144.558594 L 321.691406 257.140625 L 209.109375 205.769531 Z M 260.480469 93.183594 " clip-rule="nonzero"/></clipPath><clipPath id="fb87974d23"><path d="M 254 162 L 323 162 L 323 201 L 254 201 Z M 254 162 " clip-rule="nonzero"/></clipPath><clipPath id="8bab33e0a7"><path d="M 260.480469 93.183594 L 373.0625 144.558594 L 321.691406 257.140625 L 209.109375 205.769531 Z M 260.480469 93.183594 " clip-rule="nonzero"/></clipPath><clipPath id="a9fa4601e1"><path d="M 260.480469 93.183594 L 373.0625 144.558594 L 321.691406 257.140625 L 209.109375 205.769531 Z M 260.480469 93.183594 " clip-rule="nonzero"/></clipPath><clipPath id="acb45c43b0"><path d="M 271 156 L 316 156 L 316 183 L 271 183 Z M 271 156 " clip-rule="nonzero"/></clipPath><clipPath id="ac968874b9"><path d="M 260.480469 93.183594 L 373.0625 144.558594 L 321.691406 257.140625 L 209.109375 205.769531 Z M 260.480469 93.183594 " clip-rule="nonzero"/></clipPath><clipPath id="4669dfc6f6"><path d="M 260.480469 93.183594 L 373.0625 144.558594 L 321.691406 257.140625 L 209.109375 205.769531 Z M 260.480469 93.183594 " clip-rule="nonzero"/></clipPath><clipPath id="e4dc60697e"><path d="M 278 170 L 303 170 L 303 186 L 278 186 Z M 278 170 " clip-rule="nonzero"/></clipPath><clipPath id="f69809801c"><path d="M 260.480469 93.183594 L 373.0625 144.558594 L 321.691406 257.140625 L 209.109375 205.769531 Z M 260.480469 93.183594 " clip-rule="nonzero"/></clipPath><clipPath id="4846e0fe55"><path d="M 260.480469 93.183594 L 373.0625 144.558594 L 321.691406 257.140625 L 209.109375 205.769531 Z M 260.480469 93.183594 " clip-rule="nonzero"/></clipPath><clipPath id="73a8a90932"><path d="M 190 304.464844 L 356 304.464844 L 356 375 L 190 375 Z M 190 304.464844 " clip-rule="nonzero"/></clipPath><clipPath id="864fde4dd6"><path d="M 66 44 L 121 44 L 121 98 L 66 98 Z M 66 44 " clip-rule="nonzero"/></clipPath><clipPath id="96543b6c07"><path d="M 73.679688 34.472656 L 129.753906 51.140625 L 113.089844 107.214844 L 57.011719 90.550781 Z M 73.679688 34.472656 " clip-rule="nonzero"/></clipPath><clipPath id="93e4d776d8"><path d="M 73.679688 34.472656 L 129.753906 51.140625 L 113.089844 107.214844 L 57.011719 90.550781 Z M 73.679688 34.472656 " clip-rule="nonzero"/></clipPath><clipPath id="755f2c10f6"><path d="M 78 56 L 111 56 L 111 77 L 78 77 Z M 78 56 " clip-rule="nonzero"/></clipPath><clipPath id="04e9a7b9b4"><path d="M 73.679688 34.472656 L 129.753906 51.140625 L 113.089844 107.214844 L 57.011719 90.550781 Z M 73.679688 34.472656 " clip-rule="nonzero"/></clipPath><clipPath id="ee50e8cb61"><path d="M 73.679688 34.472656 L 129.753906 51.140625 L 113.089844 107.214844 L 57.011719 90.550781 Z M 73.679688 34.472656 " clip-rule="nonzero"/></clipPath><clipPath id="87d2cb5ac9"><path d="M 81 59 L 108 59 L 108 74 L 81 74 Z M 81 59 " clip-rule="nonzero"/></clipPath><clipPath id="e2d2b3147f"><path d="M 73.679688 34.472656 L 129.753906 51.140625 L 113.089844 107.214844 L 57.011719 90.550781 Z M 73.679688 34.472656 " clip-rule="nonzero"/></clipPath><clipPath id="f0ad1502ad"><path d="M 73.679688 34.472656 L 129.753906 51.140625 L 113.089844 107.214844 L 57.011719 90.550781 Z M 73.679688 34.472656 " clip-rule="nonzero"/></clipPath><clipPath id="c8fb00038b"><path d="M 70 65 L 115 65 L 115 86 L 70 86 Z M 70 65 " clip-rule="nonzero"/></clipPath><clipPath id="3f5f7f4a09"><path d="M 73.679688 34.472656 L 129.753906 51.140625 L 113.089844 107.214844 L 57.011719 90.550781 Z M 73.679688 34.472656 " clip-rule="nonzero"/></clipPath><clipPath id="14ebbe009a"><path d="M 73.679688 34.472656 L 129.753906 51.140625 L 113.089844 107.214844 L 57.011719 90.550781 Z M 73.679688 34.472656 " clip-rule="nonzero"/></clipPath><clipPath id="2fde6b406b"><path d="M 77 71 L 107 71 L 107 84 L 77 84 Z M 77 71 " clip-rule="nonzero"/></clipPath><clipPath id="26b6f049b3"><path d="M 73.679688 34.472656 L 129.753906 51.140625 L 113.089844 107.214844 L 57.011719 90.550781 Z M 73.679688 34.472656 " clip-rule="nonzero"/></clipPath><clipPath id="5bf45e711c"><path d="M 73.679688 34.472656 L 129.753906 51.140625 L 113.089844 107.214844 L 57.011719 90.550781 Z M 73.679688 34.472656 " clip-rule="nonzero"/></clipPath><clipPath id="aaf2270a53"><path d="M 83 143 L 243 143 L 243 307 L 83 307 Z M 83 143 " clip-rule="nonzero"/></clipPath><clipPath id="03f5e16aad"><path d="M 122.550781 110.765625 L 290.019531 170.347656 L 238.230469 315.910156 L 70.765625 256.328125 Z M 122.550781 110.765625 " clip-rule="nonzero"/></clipPath><clipPath id="962d24650e"><path d="M 122.550781 110.765625 L 290.019531 170.347656 L 238.230469 315.910156 L 70.765625 256.328125 Z M 122.550781 110.765625 " clip-rule="nonzero"/></clipPath><clipPath id="84ff9a567a"><path d="M 135 204 L 213 204 L 213 257 L 135 257 Z M 135 204 " clip-rule="nonzero"/></clipPath><clipPath id="5854c9c91e"><path d="M 122.550781 110.765625 L 290.019531 170.347656 L 238.230469 315.910156 L 70.765625 256.328125 Z M 122.550781 110.765625 " clip-rule="nonzero"/></clipPath><clipPath id="be1f32a482"><path d="M 122.550781 110.765625 L 290.019531 170.347656 L 238.230469 315.910156 L 70.765625 256.328125 Z M 122.550781 110.765625 " clip-rule="nonzero"/></clipPath><clipPath id="35ce86c94d"><path d="M 113 225 L 220 225 L 220 279 L 113 279 Z M 113 225 " clip-rule="nonzero"/></clipPath><clipPath id="8570e25b85"><path d="M 122.550781 110.765625 L 290.019531 170.347656 L 238.230469 315.910156 L 70.765625 256.328125 Z M 122.550781 110.765625 " clip-rule="nonzero"/></clipPath><clipPath id="e32fe5f26f"><path d="M 122.550781 110.765625 L 290.019531 170.347656 L 238.230469 315.910156 L 70.765625 256.328125 Z M 122.550781 110.765625 " clip-rule="nonzero"/></clipPath><clipPath id="50ebdc4375"><path d="M 143 212 L 206 212 L 206 259 L 143 259 Z M 143 212 " clip-rule="nonzero"/></clipPath><clipPath id="20410fa162"><path d="M 122.550781 110.765625 L 290.019531 170.347656 L 238.230469 315.910156 L 70.765625 256.328125 Z M 122.550781 110.765625 " clip-rule="nonzero"/></clipPath><clipPath id="545ee20508"><path d="M 122.550781 110.765625 L 290.019531 170.347656 L 238.230469 315.910156 L 70.765625 256.328125 Z M 122.550781 110.765625 " clip-rule="nonzero"/></clipPath><clipPath id="94eac36052"><path d="M 150 190 L 215 190 L 215 218 L 150 218 Z M 150 190 " clip-rule="nonzero"/></clipPath><clipPath id="0cfb98cba3"><path d="M 122.550781 110.765625 L 290.019531 170.347656 L 238.230469 315.910156 L 70.765625 256.328125 Z M 122.550781 110.765625 " clip-rule="nonzero"/></clipPath><clipPath id="64f22af875"><path d="M 122.550781 110.765625 L 290.019531 170.347656 L 238.230469 315.910156 L 70.765625 256.328125 Z M 122.550781 110.765625 " clip-rule="nonzero"/></clipPath><clipPath id="9fa4eba3b8"><path d="M 252 238 L 310 238 L 310 296 L 252 296 Z M 252 238 " clip-rule="nonzero"/></clipPath><clipPath id="ea53684c98"><path d="M 243.113281 243.992188 L 303.632812 229.414062 L 318.207031 289.933594 L 257.6875 304.511719 Z M 243.113281 243.992188 " clip-rule="nonzero"/></clipPath><clipPath id="cce45f55ff"><path d="M 243.113281 243.992188 L 303.632812 229.414062 L 318.207031 289.933594 L 257.6875 304.511719 Z M 243.113281 243.992188 " clip-rule="nonzero"/></clipPath><clipPath id="0c6135ba60"><path d="M 262 251 L 297 251 L 297 273 L 262 273 Z M 262 251 " clip-rule="nonzero"/></clipPath><clipPath id="7ca6ba024b"><path d="M 243.113281 243.992188 L 303.632812 229.414062 L 318.207031 289.933594 L 257.6875 304.511719 Z M 243.113281 243.992188 " clip-rule="nonzero"/></clipPath><clipPath id="7f6c0a37f1"><path d="M 243.113281 243.992188 L 303.632812 229.414062 L 318.207031 289.933594 L 257.6875 304.511719 Z M 243.113281 243.992188 " clip-rule="nonzero"/></clipPath><clipPath id="ecf1a617fe"><path d="M 265 254 L 294 254 L 294 270 L 265 270 Z M 265 254 " clip-rule="nonzero"/></clipPath><clipPath id="fba9433bd2"><path d="M 243.113281 243.992188 L 303.632812 229.414062 L 318.207031 289.933594 L 257.6875 304.511719 Z M 243.113281 243.992188 " clip-rule="nonzero"/></clipPath><clipPath id="1f5d84585d"><path d="M 243.113281 243.992188 L 303.632812 229.414062 L 318.207031 289.933594 L 257.6875 304.511719 Z M 243.113281 243.992188 " clip-rule="nonzero"/></clipPath><clipPath id="42e4a7378a"><path d="M 258 262 L 306 262 L 306 282 L 258 282 Z M 258 262 " clip-rule="nonzero"/></clipPath><clipPath id="189c37bd99"><path d="M 243.113281 243.992188 L 303.632812 229.414062 L 318.207031 289.933594 L 257.6875 304.511719 Z M 243.113281 243.992188 " clip-rule="nonzero"/></clipPath><clipPath id="836b60461a"><path d="M 243.113281 243.992188 L 303.632812 229.414062 L 318.207031 289.933594 L 257.6875 304.511719 Z M 243.113281 243.992188 " clip-rule="nonzero"/></clipPath><clipPath id="008bfcd083"><path d="M 267 268 L 298 268 L 298 281 L 267 281 Z M 267 268 " clip-rule="nonzero"/></clipPath><clipPath id="531a9de5b2"><path d="M 243.113281 243.992188 L 303.632812 229.414062 L 318.207031 289.933594 L 257.6875 304.511719 Z M 243.113281 243.992188 " clip-rule="nonzero"/></clipPath><clipPath id="9138418ff3"><path d="M 243.113281 243.992188 L 303.632812 229.414062 L 318.207031 289.933594 L 257.6875 304.511719 Z M 243.113281 243.992188 " clip-rule="nonzero"/></clipPath><clipPath id="0f3e0ffa7f"><path d="M 55 109 L 135 109 L 135 189 L 55 189 Z M 55 109 " clip-rule="nonzero"/></clipPath><clipPath id="db25bb67a2"><path d="M 33.777344 130.378906 L 114.101562 88.144531 L 156.332031 168.46875 L 76.007812 210.703125 Z M 33.777344 130.378906 " clip-rule="nonzero"/></clipPath><clipPath id="d7fd28c769"><path d="M 33.777344 130.378906 L 114.101562 88.144531 L 156.332031 168.46875 L 76.007812 210.703125 Z M 33.777344 130.378906 " clip-rule="nonzero"/></clipPath><clipPath id="dd81682098"><path d="M 74 131 L 112 131 L 112 160 L 74 160 Z M 74 131 " clip-rule="nonzero"/></clipPath><clipPath id="d90a0e34a9"><path d="M 33.777344 130.378906 L 114.101562 88.144531 L 156.332031 168.46875 L 76.007812 210.703125 Z M 33.777344 130.378906 " clip-rule="nonzero"/></clipPath><clipPath id="f0f01621d6"><path d="M 33.777344 130.378906 L 114.101562 88.144531 L 156.332031 168.46875 L 76.007812 210.703125 Z M 33.777344 130.378906 " clip-rule="nonzero"/></clipPath><clipPath id="a792503240"><path d="M 72 138 L 122 138 L 122 170 L 72 170 Z M 72 138 " clip-rule="nonzero"/></clipPath><clipPath id="3a25e0426b"><path d="M 33.777344 130.378906 L 114.101562 88.144531 L 156.332031 168.46875 L 76.007812 210.703125 Z M 33.777344 130.378906 " clip-rule="nonzero"/></clipPath><clipPath id="13320e1f8e"><path d="M 33.777344 130.378906 L 114.101562 88.144531 L 156.332031 168.46875 L 76.007812 210.703125 Z M 33.777344 130.378906 " clip-rule="nonzero"/></clipPath><clipPath id="b703bf586f"><path d="M 77 134 L 109 134 L 109 157 L 77 157 Z M 77 134 " clip-rule="nonzero"/></clipPath><clipPath id="02802efc13"><path d="M 33.777344 130.378906 L 114.101562 88.144531 L 156.332031 168.46875 L 76.007812 210.703125 Z M 33.777344 130.378906 " clip-rule="nonzero"/></clipPath><clipPath id="d29f33504a"><path d="M 33.777344 130.378906 L 114.101562 88.144531 L 156.332031 168.46875 L 76.007812 210.703125 Z M 33.777344 130.378906 " clip-rule="nonzero"/></clipPath><clipPath id="5ac476c4ce"><path d="M 87 145 L 105 145 L 105 158 L 87 158 Z M 87 145 " clip-rule="nonzero"/></clipPath><clipPath id="4360f6c2da"><path d="M 33.777344 130.378906 L 114.101562 88.144531 L 156.332031 168.46875 L 76.007812 210.703125 Z M 33.777344 130.378906 " clip-rule="nonzero"/></clipPath><clipPath id="f7bd1b8cb0"><path d="M 33.777344 130.378906 L 114.101562 88.144531 L 156.332031 168.46875 L 76.007812 210.703125 Z M 33.777344 130.378906 " clip-rule="nonzero"/></clipPath><clipPath id="3a75db12b3"><path d="M 105 293 L 184 293 L 184 375 L 105 375 Z M 105 293 " clip-rule="nonzero"/></clipPath><clipPath id="3aab3be9e4"><path d="M 95.097656 306.796875 L 167.527344 282.171875 L 193.359375 358.152344 L 120.929688 382.777344 Z M 95.097656 306.796875 " clip-rule="nonzero"/></clipPath><clipPath id="4d036828f9"><path d="M 95.097656 306.796875 L 167.527344 282.171875 L 193.359375 358.152344 L 120.929688 382.777344 Z M 95.097656 306.796875 " clip-rule="nonzero"/></clipPath><clipPath id="724a071305"><path d="M 126 317 L 159 317 L 159 339 L 126 339 Z M 126 317 " clip-rule="nonzero"/></clipPath><clipPath id="2903106703"><path d="M 95.097656 306.796875 L 167.527344 282.171875 L 193.359375 358.152344 L 120.929688 382.777344 Z M 95.097656 306.796875 " clip-rule="nonzero"/></clipPath><clipPath id="20e57d081e"><path d="M 95.097656 306.796875 L 167.527344 282.171875 L 193.359375 358.152344 L 120.929688 382.777344 Z M 95.097656 306.796875 " clip-rule="nonzero"/></clipPath><clipPath id="b395eb178b"><path d="M 123 326 L 168 326 L 168 348 L 123 348 Z M 123 326 " clip-rule="nonzero"/></clipPath><clipPath id="718a335af4"><path d="M 95.097656 306.796875 L 167.527344 282.171875 L 193.359375 358.152344 L 120.929688 382.777344 Z M 95.097656 306.796875 " clip-rule="nonzero"/></clipPath><clipPath id="be9317ed62"><path d="M 95.097656 306.796875 L 167.527344 282.171875 L 193.359375 358.152344 L 120.929688 382.777344 Z M 95.097656 306.796875 " clip-rule="nonzero"/></clipPath><clipPath id="27b692826b"><path d="M 130 330 L 162 330 L 162 346 L 130 346 Z M 130 330 " clip-rule="nonzero"/></clipPath><clipPath id="364480dd2b"><path d="M 95.097656 306.796875 L 167.527344 282.171875 L 193.359375 358.152344 L 120.929688 382.777344 Z M 95.097656 306.796875 " clip-rule="nonzero"/></clipPath><clipPath id="7b4020bd6d"><path d="M 95.097656 306.796875 L 167.527344 282.171875 L 193.359375 358.152344 L 120.929688 382.777344 Z M 95.097656 306.796875 " clip-rule="nonzero"/></clipPath><clipPath id="40dc85a4d7"><path d="M 129 320 L 156 320 L 156 336 L 129 336 Z M 129 320 " clip-rule="nonzero"/></clipPath><clipPath id="7fb12526bf"><path d="M 95.097656 306.796875 L 167.527344 282.171875 L 193.359375 358.152344 L 120.929688 382.777344 Z M 95.097656 306.796875 " clip-rule="nonzero"/></clipPath><clipPath id="12a45a5abc"><path d="M 95.097656 306.796875 L 167.527344 282.171875 L 193.359375 358.152344 L 120.929688 382.777344 Z M 95.097656 306.796875 " clip-rule="nonzero"/></clipPath><clipPath id="eb794c8a5b"><path d="M 9 266 L 103 266 L 103 375 L 9 375 Z M 9 266 " clip-rule="nonzero"/></clipPath><clipPath id="d8c9f69e69"><path d="M 33.871094 256.691406 L 112.542969 278.90625 L 78.710938 398.722656 L 0.0351562 376.507812 Z M 33.871094 256.691406 " clip-rule="nonzero"/></clipPath><clipPath id="467478b65a"><path d="M 33.871094 256.691406 L 112.542969 278.90625 L 78.710938 398.722656 L 0.0351562 376.507812 Z M 33.871094 256.691406 " clip-rule="nonzero"/></clipPath><clipPath id="8f47562e3f"><path d="M 29 295 L 93 295 L 93 324 L 29 324 Z M 29 295 " clip-rule="nonzero"/></clipPath><clipPath id="15e36ad386"><path d="M 33.871094 256.691406 L 112.542969 278.90625 L 78.710938 398.722656 L 0.0351562 376.507812 Z M 33.871094 256.691406 " clip-rule="nonzero"/></clipPath><clipPath id="3a9a32bc9c"><path d="M 33.871094 256.691406 L 112.542969 278.90625 L 78.710938 398.722656 L 0.0351562 376.507812 Z M 33.871094 256.691406 " clip-rule="nonzero"/></clipPath><clipPath id="239fd12a2e"><path d="M 44 289 L 86 289 L 86 316 L 44 316 Z M 44 289 " clip-rule="nonzero"/></clipPath><clipPath id="5bdcc47f6a"><path d="M 33.871094 256.691406 L 112.542969 278.90625 L 78.710938 398.722656 L 0.0351562 376.507812 Z M 33.871094 256.691406 " clip-rule="nonzero"/></clipPath><clipPath id="35efe9b8e9"><path d="M 33.871094 256.691406 L 112.542969 278.90625 L 78.710938 398.722656 L 0.0351562 376.507812 Z M 33.871094 256.691406 " clip-rule="nonzero"/></clipPath><clipPath id="34a8617c8f"><path d="M 131 0 L 259 0 L 259 140 L 131 140 Z M 131 0 " clip-rule="nonzero"/></clipPath><clipPath id="1618ba1d26"><path d="M 141.265625 -9.101562 L 267.8125 11.722656 L 245.890625 144.929688 L 119.34375 124.105469 Z M 141.265625 -9.101562 " clip-rule="nonzero"/></clipPath><clipPath id="bc4021b4d9"><path d="M 141.265625 -9.101562 L 267.8125 11.722656 L 245.890625 144.929688 L 119.34375 124.105469 Z M 141.265625 -9.101562 " clip-rule="nonzero"/></clipPath><clipPath id="e28e9d63d8"><path d="M 167 44 L 223 44 L 223 76 L 167 76 Z M 167 44 " clip-rule="nonzero"/></clipPath><clipPath id="028447b012"><path d="M 141.265625 -9.101562 L 267.8125 11.722656 L 245.890625 144.929688 L 119.34375 124.105469 Z M 141.265625 -9.101562 " clip-rule="nonzero"/></clipPath><clipPath id="1ba51a0538"><path d="M 141.265625 -9.101562 L 267.8125 11.722656 L 245.890625 144.929688 L 119.34375 124.105469 Z M 141.265625 -9.101562 " clip-rule="nonzero"/></clipPath><clipPath id="eff631a090"><path d="M 153 62 L 231 62 L 231 89 L 153 89 Z M 153 62 " clip-rule="nonzero"/></clipPath><clipPath id="76172b1bda"><path d="M 141.265625 -9.101562 L 267.8125 11.722656 L 245.890625 144.929688 L 119.34375 124.105469 Z M 141.265625 -9.101562 " clip-rule="nonzero"/></clipPath><clipPath id="61850c84a0"><path d="M 141.265625 -9.101562 L 267.8125 11.722656 L 245.890625 144.929688 L 119.34375 124.105469 Z M 141.265625 -9.101562 " clip-rule="nonzero"/></clipPath><clipPath id="5ba650777c"><path d="M 165 69 L 221 69 L 221 90 L 165 90 Z M 165 69 " clip-rule="nonzero"/></clipPath><clipPath id="175c939e7d"><path d="M 141.265625 -9.101562 L 267.8125 11.722656 L 245.890625 144.929688 L 119.34375 124.105469 Z M 141.265625 -9.101562 " clip-rule="nonzero"/></clipPath><clipPath id="9d4a67f07c"><path d="M 141.265625 -9.101562 L 267.8125 11.722656 L 245.890625 144.929688 L 119.34375 124.105469 Z M 141.265625 -9.101562 " clip-rule="nonzero"/></clipPath><clipPath id="bfc4a1816b"><path d="M 172 49 L 218 49 L 218 71 L 172 71 Z M 172 49 " clip-rule="nonzero"/></clipPath><clipPath id="883ce3470d"><path d="M 141.265625 -9.101562 L 267.8125 11.722656 L 245.890625 144.929688 L 119.34375 124.105469 Z M 141.265625 -9.101562 " clip-rule="nonzero"/></clipPath><clipPath id="fcbb2cf33d"><path d="M 141.265625 -9.101562 L 267.8125 11.722656 L 245.890625 144.929688 L 119.34375 124.105469 Z M 141.265625 -9.101562 " clip-rule="nonzero"/></clipPath></defs><rect x="-37.5" width="450" fill="#ffffff" y="-37.499999" height="449.999989" fill-opacity="1"/><rect x="-37.5" width="450" fill="#ffffff" y="-37.499999" height="449.999989" fill-opacity="1"/><rect x="-37.5" width="450" fill="#ffffff" y="-37.499999" height="449.999989" fill-opacity="1"/><g clip-path="url(#c7f89919a2)"><g clip-path="url(#26fd6cc20f)"><g clip-path="url(#0523e0b367)"><path fill="#ffb72c" d="M 318.554688 106.40625 C 301.59375 112.84375 282.457031 104.292969 276.058594 87.421875 L 264.035156 55.730469 C 257.636719 38.859375 266.285156 19.769531 283.246094 13.335938 C 300.210938 6.898438 319.34375 15.449219 325.746094 32.320312 L 337.765625 64.011719 C 344.167969 80.882812 335.519531 99.972656 318.554688 106.40625 Z M 318.554688 106.40625 " fill-opacity="1" fill-rule="nonzero"/></g></g></g><g clip-path="url(#adfd508ffc)"><g clip-path="url(#69b1482f1f)"><g clip-path="url(#c4e32816d6)"><path fill="#ff7f1d" d="M 320.089844 36.628906 C 321.171875 39.476562 319.726562 42.664062 316.863281 43.75 C 314.003906 44.832031 310.808594 43.40625 309.730469 40.558594 C 308.648438 37.714844 310.09375 34.527344 312.957031 33.441406 C 315.816406 32.355469 319.011719 33.78125 320.089844 36.628906 Z M 274.328125 48.09375 C 271.46875 49.179688 270.023438 52.367188 271.105469 55.210938 C 272.183594 58.058594 275.378906 59.488281 278.238281 58.402344 C 281.101562 57.316406 282.539062 54.109375 281.464844 51.28125 C 280.394531 48.457031 277.191406 47.007812 274.328125 48.09375 Z M 274.328125 48.09375 " fill-opacity="1" fill-rule="nonzero"/></g></g></g><g clip-path="url(#a45514ea07)"><g clip-path="url(#0e8629856d)"><g clip-path="url(#94a053e698)"><path fill="#2e2e2e" d="M 285.445312 44.449219 C 281.414062 45.976562 277.210938 43.53125 276.746094 43.253906 C 275.605469 42.570312 275.257812 41.085938 275.96875 39.9375 C 276.664062 38.816406 278.148438 38.445312 279.292969 39.128906 C 279.972656 39.535156 282.265625 40.542969 283.796875 39.914062 C 284.769531 39.523438 285.484375 38.441406 285.957031 36.671875 C 286.304688 35.375 287.617188 34.617188 288.917969 34.953125 C 290.214844 35.292969 290.972656 36.597656 290.628906 37.894531 C 289.519531 42.023438 287.265625 43.710938 285.5625 44.378906 C 285.550781 44.410156 285.484375 44.433594 285.445312 44.449219 Z M 303.035156 37.777344 C 304.730469 37.085938 306.992188 35.417969 308.101562 31.289062 C 308.445312 29.992188 307.667969 28.695312 306.386719 28.351562 C 305.089844 28.011719 303.777344 28.769531 303.429688 30.066406 C 302.96875 31.808594 302.242188 32.917969 301.269531 33.3125 C 299.71875 33.945312 297.445312 32.929688 296.765625 32.523438 C 295.621094 31.839844 294.148438 32.183594 293.4375 33.332031 C 292.75 34.476562 293.097656 35.960938 294.21875 36.652344 C 294.691406 36.949219 298.882812 39.375 302.917969 37.84375 C 302.949219 37.808594 302.992188 37.792969 303.035156 37.777344 Z M 297.574219 50.28125 C 299.273438 49.589844 301.53125 47.925781 302.640625 43.796875 C 302.984375 42.5 302.207031 41.203125 300.929688 40.855469 C 299.628906 40.515625 298.316406 41.277344 297.972656 42.574219 C 297.507812 44.316406 296.78125 45.425781 295.808594 45.816406 C 294.277344 46.445312 291.984375 45.4375 291.304688 45.03125 C 290.160156 44.347656 288.691406 44.691406 287.980469 45.839844 C 287.289062 46.980469 287.636719 48.464844 288.761719 49.15625 C 289.230469 49.453125 293.425781 51.878906 297.457031 50.351562 C 297.492188 50.3125 297.53125 50.296875 297.574219 50.28125 Z M 297.574219 50.28125 " fill-opacity="1" fill-rule="nonzero"/></g></g></g><g clip-path="url(#dcb23a3354)"><g clip-path="url(#3546ada51a)"><g clip-path="url(#cde4cab327)"><path fill="#05a552" d="M 344.304688 201.738281 L 273.023438 231.847656 C 269.71875 233.246094 265.90625 231.6875 264.507812 228.382812 L 234.402344 157.101562 C 233.003906 153.796875 234.5625 149.984375 237.867188 148.585938 L 309.148438 118.476562 C 312.453125 117.078125 316.265625 118.640625 317.660156 121.945312 L 347.769531 193.226562 C 349.167969 196.53125 347.609375 200.339844 344.304688 201.738281 Z M 344.304688 201.738281 " fill-opacity="1" fill-rule="nonzero"/></g></g></g><g clip-path="url(#2c4cb8effc)"><g clip-path="url(#c8bb03cce6)"><g clip-path="url(#61b0f2ad97)"><path fill="#ffffff" d="M 287.652344 166.960938 C 285.210938 172.316406 278.902344 174.652344 273.574219 172.21875 C 268.242188 169.785156 265.882812 163.46875 268.316406 158.136719 C 270.746094 152.808594 277.066406 150.449219 282.398438 152.878906 C 287.726562 155.3125 290.097656 161.605469 287.652344 166.960938 Z M 313.859375 166.578125 C 308.503906 164.132812 302.210938 166.503906 299.777344 171.835938 C 297.347656 177.164062 299.703125 183.484375 305.035156 185.917969 C 310.367188 188.347656 316.683594 185.988281 319.117188 180.660156 C 321.546875 175.328125 319.214844 169.023438 313.859375 166.578125 Z M 313.859375 166.578125 " fill-opacity="1" fill-rule="nonzero"/></g></g></g><g clip-path="url(#fb87974d23)"><g clip-path="url(#8bab33e0a7)"><g clip-path="url(#a9fa4601e1)"><path fill="#05a552" d="M 321.933594 196.144531 C 320.417969 199.464844 316.519531 200.921875 313.199219 199.40625 C 309.875 197.890625 308.417969 193.992188 309.9375 190.667969 C 311.453125 187.347656 315.351562 185.890625 318.671875 187.40625 C 321.980469 188.886719 323.453125 192.824219 321.933594 196.144531 Z M 263.546875 162.878906 C 260.222656 161.363281 256.324219 162.820312 254.808594 166.140625 C 253.292969 169.464844 254.746094 173.363281 258.070312 174.878906 C 261.390625 176.394531 265.292969 174.941406 266.808594 171.617188 C 268.324219 168.296875 266.867188 164.394531 263.546875 162.878906 Z M 263.546875 162.878906 " fill-opacity="1" fill-rule="nonzero"/></g></g></g><g clip-path="url(#acb45c43b0)"><g clip-path="url(#ac968874b9)"><g clip-path="url(#4669dfc6f6)"><path fill="#2e2e2e" d="M 283.886719 165.242188 C 282.402344 168.488281 278.539062 169.933594 275.292969 168.449219 C 272.042969 166.96875 270.601562 163.105469 272.085938 159.855469 C 273.566406 156.609375 277.429688 155.167969 280.675781 156.648438 C 283.925781 158.132812 285.378906 161.96875 283.886719 165.242188 Z M 312.140625 170.347656 C 308.890625 168.863281 305.027344 170.308594 303.546875 173.554688 C 302.066406 176.804688 303.507812 180.667969 306.753906 182.148438 C 310.003906 183.628906 313.867188 182.1875 315.347656 178.941406 C 316.828125 175.691406 315.386719 171.828125 312.140625 170.347656 Z M 312.140625 170.347656 " fill-opacity="1" fill-rule="nonzero"/></g></g></g><g clip-path="url(#e4dc60697e)"><g clip-path="url(#f69809801c)"><g clip-path="url(#4846e0fe55)"><path fill="#2e2e2e" d="M 287.191406 184.515625 C 286.96875 184.414062 286.746094 184.3125 286.535156 184.183594 C 280.382812 180.988281 278.566406 174.136719 278.484375 173.859375 C 278.128906 172.472656 278.96875 171.027344 280.359375 170.671875 C 281.75 170.316406 283.191406 171.15625 283.546875 172.546875 C 283.589844 172.65625 284.917969 177.484375 288.96875 179.574219 C 291.640625 180.941406 294.992188 180.882812 299 179.386719 C 300.371094 178.875 301.859375 179.554688 302.371094 180.925781 C 302.882812 182.296875 302.203125 183.785156 300.832031 184.296875 C 295.691406 186.238281 291.109375 186.300781 287.191406 184.515625 Z M 287.191406 184.515625 " fill-opacity="1" fill-rule="nonzero"/></g></g></g><g clip-path="url(#73a8a90932)"><path fill="#ff9441" d="M 216.171875 392.214844 C 197.882812 392.214844 185.558594 373.402344 192.972656 356.695312 C 206.582031 325.917969 237.394531 304.464844 273.210938 304.464844 C 309.03125 304.464844 339.839844 325.917969 353.480469 356.695312 C 360.894531 373.402344 348.570312 392.214844 330.285156 392.214844 Z M 216.171875 392.214844 " fill-opacity="1" fill-rule="nonzero"/></g><path fill="#ffffff" d="M 271.894531 339.527344 C 271.894531 347.335938 265.566406 353.664062 257.757812 353.664062 C 249.949219 353.664062 243.621094 347.335938 243.621094 339.527344 C 243.621094 331.71875 249.949219 325.390625 257.757812 325.390625 C 265.566406 325.390625 271.894531 331.71875 271.894531 339.527344 Z M 288.699219 325.390625 C 280.890625 325.390625 274.5625 331.71875 274.5625 339.527344 C 274.5625 347.335938 280.890625 353.664062 288.699219 353.664062 C 296.507812 353.664062 302.835938 347.335938 302.835938 339.527344 C 302.835938 331.71875 296.507812 325.390625 288.699219 325.390625 Z M 288.699219 325.390625 " fill-opacity="1" fill-rule="nonzero"/><path fill="#2e2e2e" d="M 272.980469 371.851562 C 266.09375 371.851562 260.523438 366.25 260.523438 359.394531 C 260.523438 352.507812 266.125 346.941406 272.980469 346.941406 C 279.867188 346.941406 285.4375 352.542969 285.4375 359.394531 C 285.4375 366.25 279.867188 371.851562 272.980469 371.851562 Z M 272.980469 353.730469 C 269.851562 353.730469 267.3125 356.265625 267.3125 359.394531 C 267.3125 362.527344 269.851562 365.0625 272.980469 365.0625 C 276.109375 365.0625 278.648438 362.527344 278.648438 359.394531 C 278.648438 356.265625 276.109375 353.730469 272.980469 353.730469 Z M 272.980469 353.730469 " fill-opacity="1" fill-rule="nonzero"/><path fill="#ff9441" d="M 314.796875 356.695312 C 314.796875 361.539062 310.875 365.492188 305.996094 365.492188 C 301.152344 365.492188 297.199219 361.570312 297.199219 356.695312 C 297.199219 351.816406 301.121094 347.894531 305.996094 347.894531 C 310.84375 347.894531 314.796875 351.851562 314.796875 356.695312 Z M 240.457031 347.894531 C 235.613281 347.894531 231.660156 351.816406 231.660156 356.695312 C 231.660156 361.570312 235.582031 365.492188 240.457031 365.492188 C 245.335938 365.492188 249.253906 361.570312 249.253906 356.695312 C 249.253906 351.816406 245.300781 347.894531 240.457031 347.894531 Z M 240.457031 347.894531 " fill-opacity="1" fill-rule="nonzero"/><path fill="#2e2e2e" d="M 266.355469 339.527344 C 266.355469 344.304688 262.5 348.160156 257.722656 348.160156 C 252.945312 348.160156 249.089844 344.304688 249.089844 339.527344 C 249.089844 334.75 252.945312 330.894531 257.722656 330.894531 C 262.5 330.894531 266.355469 334.75 266.355469 339.527344 Z M 288.699219 330.894531 C 283.921875 330.894531 280.066406 334.75 280.066406 339.527344 C 280.066406 344.304688 283.921875 348.160156 288.699219 348.160156 C 293.476562 348.160156 297.332031 344.304688 297.332031 339.527344 C 297.332031 334.75 293.476562 330.894531 288.699219 330.894531 Z M 288.699219 330.894531 " fill-opacity="1" fill-rule="nonzero"/><g clip-path="url(#864fde4dd6)"><g clip-path="url(#96543b6c07)"><g clip-path="url(#93e4d776d8)"><path fill="#84caed" d="M 116.808594 58.164062 C 123.824219 71.097656 119.019531 87.265625 106.078125 94.269531 C 93.136719 101.273438 76.972656 96.472656 69.957031 83.535156 C 62.941406 70.601562 67.746094 54.433594 80.6875 47.429688 C 93.625 40.425781 109.796875 45.21875 116.808594 58.164062 Z M 116.808594 58.164062 " fill-opacity="1" fill-rule="nonzero"/></g></g></g><g clip-path="url(#755f2c10f6)"><g clip-path="url(#04e9a7b9b4)"><g clip-path="url(#ee50e8cb61)"><path fill="#ffffff" d="M 94.046875 66.042969 C 92.835938 70.121094 88.546875 72.441406 84.460938 71.226562 C 80.375 70.015625 78.050781 65.726562 79.261719 61.648438 C 80.472656 57.574219 84.761719 55.253906 88.847656 56.46875 C 92.933594 57.679688 95.261719 61.96875 94.046875 66.042969 Z M 105.023438 61.273438 C 100.941406 60.058594 96.648438 62.378906 95.4375 66.457031 C 94.226562 70.535156 96.554688 74.820312 100.636719 76.035156 C 104.722656 77.25 109.011719 74.929688 110.226562 70.851562 C 111.4375 66.773438 109.109375 62.488281 105.023438 61.273438 Z M 105.023438 61.273438 " fill-opacity="1" fill-rule="nonzero"/></g></g></g><g clip-path="url(#87d2cb5ac9)"><g clip-path="url(#e2d2b3147f)"><g clip-path="url(#f0ad1502ad)"><path fill="#2e2e2e" d="M 91.167969 65.1875 C 90.429688 67.675781 87.8125 69.082031 85.328125 68.347656 C 82.847656 67.609375 81.425781 64.988281 82.160156 62.511719 C 82.898438 60.035156 85.519531 58.617188 88 59.355469 C 90.484375 60.09375 91.90625 62.703125 91.167969 65.1875 Z M 104.167969 64.160156 C 101.675781 63.417969 99.0625 64.839844 98.328125 67.316406 C 97.589844 69.792969 99.015625 72.414062 101.496094 73.148438 C 103.976562 73.886719 106.597656 72.46875 107.335938 69.992188 C 108.070312 67.515625 106.660156 64.898438 104.167969 64.160156 Z M 104.167969 64.160156 " fill-opacity="1" fill-rule="nonzero"/></g></g></g><g clip-path="url(#c8fb00038b)"><g clip-path="url(#3f5f7f4a09)"><g clip-path="url(#14ebbe009a)"><path fill="#84caed" d="M 113.804688 81.65625 C 113.054688 84.183594 110.390625 85.625 107.859375 84.871094 C 105.328125 84.117188 103.882812 81.460938 104.632812 78.929688 C 105.386719 76.402344 108.046875 74.964844 110.578125 75.71875 C 113.113281 76.46875 114.554688 79.128906 113.804688 81.65625 Z M 76.332031 65.527344 C 73.796875 64.773438 71.136719 66.214844 70.386719 68.742188 C 69.632812 71.269531 71.078125 73.929688 73.609375 74.683594 C 76.144531 75.433594 78.804688 73.996094 79.554688 71.46875 C 80.304688 68.949219 78.863281 66.28125 76.332031 65.527344 Z M 76.332031 65.527344 " fill-opacity="1" fill-rule="nonzero"/></g></g></g><g clip-path="url(#2fde6b406b)"><g clip-path="url(#26b6f049b3)"><g clip-path="url(#5bf45e711c)"><path fill="#2e2e2e" d="M 105.410156 81.445312 C 90.050781 88.097656 81.375 78.363281 78.085938 73.316406 C 77.457031 72.351562 78.375 71.140625 79.476562 71.464844 L 105.273438 79.132812 C 106.378906 79.449219 106.46875 80.984375 105.410156 81.445312 Z M 105.410156 81.445312 " fill-opacity="1" fill-rule="nonzero"/></g></g></g><g clip-path="url(#aaf2270a53)"><g clip-path="url(#03f5e16aad)"><g clip-path="url(#962d24650e)"><path fill="#3a5dc4" d="M 180.785156 148.976562 C 195.160156 136.710938 217.339844 144.601562 220.738281 163.191406 L 231.230469 220.582031 L 241.71875 277.96875 C 245.117188 296.558594 227.160156 311.859375 209.390625 305.535156 L 154.550781 286.023438 L 99.675781 266.5 C 81.90625 260.179688 77.660156 236.945312 92.023438 224.710938 L 136.40625 186.84375 Z M 180.785156 148.976562 " fill-opacity="1" fill-rule="nonzero"/></g></g></g><g clip-path="url(#84ff9a567a)"><g clip-path="url(#5854c9c91e)"><g clip-path="url(#be1f32a482)"><path fill="#ffffff" d="M 172.570312 230.019531 C 169.046875 239.925781 158.183594 245.105469 148.296875 241.585938 C 138.410156 238.070312 133.257812 227.195312 136.78125 217.285156 C 140.308594 207.378906 151.171875 202.199219 161.058594 205.71875 C 170.945312 209.234375 176.097656 220.109375 172.570312 230.019531 Z M 200.195312 219.640625 C 190.308594 216.125 179.445312 221.300781 175.917969 231.210938 C 172.394531 241.117188 177.546875 251.996094 187.433594 255.511719 C 197.320312 259.027344 208.183594 253.851562 211.707031 243.941406 C 215.234375 234.035156 210.082031 223.160156 200.195312 219.640625 Z M 200.195312 219.640625 " fill-opacity="1" fill-rule="nonzero"/></g></g></g><g clip-path="url(#35ce86c94d)"><g clip-path="url(#8570e25b85)"><g clip-path="url(#e32fe5f26f)"><path fill="#3a5dc4" d="M 219.046875 271.070312 C 216.859375 277.214844 210.113281 280.429688 203.980469 278.25 C 197.847656 276.066406 194.648438 269.3125 196.832031 263.164062 C 199.019531 257.019531 205.769531 253.804688 211.898438 255.984375 C 218.03125 258.167969 221.234375 264.921875 219.046875 271.070312 Z M 129.027344 226.5 C 122.894531 224.320312 116.148438 227.535156 113.960938 233.679688 C 111.773438 239.828125 114.976562 246.582031 121.105469 248.765625 C 127.238281 250.945312 133.988281 247.730469 136.171875 241.582031 C 138.359375 235.4375 135.160156 228.683594 129.027344 226.5 Z M 129.027344 226.5 " fill-opacity="1" fill-rule="nonzero"/></g></g></g><g clip-path="url(#50ebdc4375)"><g clip-path="url(#20410fa162)"><g clip-path="url(#545ee20508)"><path fill="#2e2e2e" d="M 165.5625 227.527344 C 163.421875 233.546875 156.789062 236.734375 150.753906 234.585938 C 144.714844 232.4375 141.574219 225.808594 143.726562 219.757812 C 145.878906 213.707031 152.5 210.550781 158.539062 212.699219 C 164.578125 214.847656 167.707031 221.503906 165.5625 227.527344 Z M 197.695312 226.664062 C 191.6875 224.527344 185.039062 227.671875 182.882812 233.722656 C 180.730469 239.773438 183.871094 246.402344 189.910156 248.550781 C 195.949219 250.699219 202.566406 247.542969 204.722656 241.492188 C 206.875 235.441406 203.734375 228.8125 197.695312 226.664062 Z M 166.320312 258.386719 L 180.390625 253.710938 C 182.261719 253.105469 183.269531 251.0625 182.667969 249.1875 C 182.066406 247.316406 180.027344 246.308594 178.15625 246.914062 L 166.722656 250.722656 L 160.074219 240.480469 C 159.003906 238.828125 156.777344 238.351562 155.128906 239.425781 C 153.476562 240.5 153 242.730469 154.066406 244.382812 L 162.179688 256.949219 C 162.605469 257.628906 163.25 258.105469 163.96875 258.359375 C 164.71875 258.628906 165.527344 258.632812 166.320312 258.386719 Z M 166.320312 258.386719 " fill-opacity="1" fill-rule="nonzero"/></g></g></g><g clip-path="url(#94eac36052)"><g clip-path="url(#0cfb98cba3)"><g clip-path="url(#64f22af875)"><path fill="#2e2e2e" d="M 209.949219 217.390625 L 153.292969 197.230469 C 151.445312 196.574219 150.480469 194.535156 151.136719 192.6875 C 151.796875 190.835938 153.832031 189.867188 155.679688 190.523438 L 212.335938 210.679688 C 214.179688 211.335938 215.148438 213.375 214.488281 215.226562 C 213.832031 217.074219 211.824219 218.058594 209.949219 217.390625 Z M 209.949219 217.390625 " fill-opacity="1" fill-rule="nonzero"/></g></g></g><g clip-path="url(#9fa4eba3b8)"><g clip-path="url(#ea53684c98)"><g clip-path="url(#cce45f55ff)"><path fill="#ffb72c" d="M 295.460938 242.792969 C 308.820312 250.957031 313.023438 268.40625 304.847656 281.757812 C 296.667969 295.109375 279.222656 299.3125 265.863281 291.144531 C 252.503906 282.980469 248.300781 265.53125 256.480469 252.179688 C 264.65625 238.828125 282.101562 234.617188 295.460938 242.792969 Z M 295.460938 242.792969 " fill-opacity="1" fill-rule="nonzero"/></g></g></g><g clip-path="url(#0c6135ba60)"><g clip-path="url(#7ca6ba024b)"><g clip-path="url(#7f6c0a37f1)"><path fill="#ffffff" d="M 278.710938 262.1875 C 279.773438 266.589844 277.058594 271.015625 272.652344 272.074219 C 268.242188 273.136719 263.8125 270.433594 262.753906 266.03125 C 261.695312 261.632812 264.40625 257.207031 268.816406 256.144531 C 273.222656 255.085938 277.652344 257.789062 278.710938 262.1875 Z M 286.273438 251.941406 C 281.863281 253.003906 279.152344 257.429688 280.210938 261.828125 C 281.273438 266.230469 285.699219 268.933594 290.109375 267.871094 C 294.519531 266.808594 297.230469 262.386719 296.171875 257.984375 C 295.113281 253.585938 290.683594 250.878906 286.273438 251.941406 Z M 286.273438 251.941406 " fill-opacity="1" fill-rule="nonzero"/></g></g></g><g clip-path="url(#ecf1a617fe)"><g clip-path="url(#fba9433bd2)"><g clip-path="url(#1f5d84585d)"><path fill="#2e2e2e" d="M 275.605469 262.9375 C 276.25 265.621094 274.589844 268.316406 271.914062 268.960938 C 269.234375 269.605469 266.527344 267.953125 265.882812 265.277344 C 265.238281 262.605469 266.898438 259.902344 269.574219 259.257812 C 272.253906 258.613281 274.957031 260.253906 275.605469 262.9375 Z M 287.023438 255.054688 C 284.332031 255.703125 282.6875 258.402344 283.332031 261.078125 C 283.976562 263.75 286.679688 265.402344 289.359375 264.757812 C 292.039062 264.113281 293.695312 261.410156 293.050781 258.734375 C 292.40625 256.0625 289.710938 254.40625 287.023438 255.054688 Z M 287.023438 255.054688 " fill-opacity="1" fill-rule="nonzero"/></g></g></g><g clip-path="url(#42e4a7378a)"><g clip-path="url(#189c37bd99)"><g clip-path="url(#836b60461a)"><path fill="#ff7f1d" d="M 305.230469 266.023438 C 305.886719 268.75 304.207031 271.496094 301.472656 272.152344 C 298.738281 272.8125 295.992188 271.132812 295.335938 268.40625 C 294.675781 265.675781 296.359375 262.933594 299.09375 262.273438 C 301.828125 261.617188 304.574219 263.292969 305.230469 266.023438 Z M 262.125 271.164062 C 259.390625 271.824219 257.707031 274.570312 258.363281 277.296875 C 259.023438 280.023438 261.769531 281.703125 264.503906 281.042969 C 267.238281 280.386719 268.917969 277.640625 268.261719 274.914062 C 267.609375 272.195312 264.855469 270.507812 262.125 271.164062 Z M 262.125 271.164062 " fill-opacity="1" fill-rule="nonzero"/></g></g></g><g clip-path="url(#008bfcd083)"><g clip-path="url(#531a9de5b2)"><g clip-path="url(#9138418ff3)"><path fill="#2e2e2e" d="M 297.390625 270.308594 C 286.796875 284.625 273.617188 280.292969 267.894531 277.398438 C 266.804688 276.847656 267 275.242188 268.191406 274.953125 L 296.03125 268.25 C 297.21875 267.953125 298.117188 269.316406 297.390625 270.308594 Z M 297.390625 270.308594 " fill-opacity="1" fill-rule="nonzero"/></g></g></g><g clip-path="url(#0f3e0ffa7f)"><g clip-path="url(#db25bb67a2)"><g clip-path="url(#d7fd28c769)"><path fill="#ff9441" d="M 134.351562 130.488281 L 119.820312 185.339844 C 119.148438 187.882812 116.53125 189.394531 113.988281 188.722656 L 59.136719 174.1875 C 56.59375 173.515625 55.082031 170.902344 55.753906 168.359375 L 70.289062 113.503906 C 70.960938 110.960938 73.574219 109.453125 76.117188 110.125 L 130.972656 124.65625 C 133.515625 125.328125 135.027344 127.945312 134.351562 130.488281 Z M 134.351562 130.488281 " fill-opacity="1" fill-rule="nonzero"/></g></g></g><g clip-path="url(#dd81682098)"><g clip-path="url(#d90a0e34a9)"><g clip-path="url(#f0f01621d6)"><path fill="#ffffff" d="M 88.757812 147.734375 C 90.765625 151.554688 89.289062 156.257812 85.484375 158.257812 C 81.683594 160.257812 76.960938 158.789062 74.960938 154.988281 C 72.960938 151.183594 74.429688 146.460938 78.230469 144.460938 C 82.035156 142.460938 86.75 143.910156 88.757812 147.734375 Z M 100.296875 132.363281 C 96.476562 134.371094 95.027344 139.085938 97.027344 142.890625 C 99.027344 146.691406 103.75 148.160156 107.550781 146.160156 C 111.355469 144.160156 112.824219 139.4375 110.824219 135.632812 C 108.824219 131.832031 104.117188 130.355469 100.296875 132.363281 Z M 100.296875 132.363281 " fill-opacity="1" fill-rule="nonzero"/></g></g></g><g clip-path="url(#a792503240)"><g clip-path="url(#3a25e0426b)"><g clip-path="url(#13320e1f8e)"><path fill="#ff9441" d="M 121.070312 140.949219 C 122.316406 143.320312 121.410156 146.234375 119.039062 147.480469 C 116.667969 148.726562 113.753906 147.820312 112.507812 145.453125 C 111.261719 143.082031 112.167969 140.167969 114.539062 138.921875 C 116.878906 137.664062 119.824219 138.578125 121.070312 140.949219 Z M 75.570312 159.882812 C 73.199219 161.128906 72.292969 164.042969 73.539062 166.414062 C 74.785156 168.785156 77.699219 169.691406 80.070312 168.445312 C 82.441406 167.195312 83.347656 164.28125 82.101562 161.914062 C 80.855469 159.542969 77.941406 158.636719 75.570312 159.882812 Z M 75.570312 159.882812 " fill-opacity="1" fill-rule="nonzero"/></g></g></g><g clip-path="url(#b703bf586f)"><g clip-path="url(#02802efc13)"><g clip-path="url(#d29f33504a)"><path fill="#2e2e2e" d="M 86.070312 149.144531 C 87.289062 151.464844 86.390625 154.351562 84.074219 155.570312 C 81.753906 156.789062 78.867188 155.890625 77.648438 153.574219 C 76.429688 151.257812 77.328125 148.367188 79.644531 147.148438 C 81.960938 145.929688 84.839844 146.8125 86.070312 149.144531 Z M 101.710938 135.050781 C 99.394531 136.269531 98.496094 139.15625 99.714844 141.476562 C 100.933594 143.792969 103.820312 144.691406 106.136719 143.472656 C 108.457031 142.253906 109.351562 139.367188 108.132812 137.046875 C 106.917969 134.730469 104.027344 133.832031 101.710938 135.050781 Z M 101.710938 135.050781 " fill-opacity="1" fill-rule="nonzero"/></g></g></g><g clip-path="url(#5ac476c4ce)"><g clip-path="url(#4360f6c2da)"><g clip-path="url(#f7bd1b8cb0)"><path fill="#2e2e2e" d="M 98.730469 155.878906 C 98.570312 155.960938 98.410156 156.046875 98.242188 156.113281 C 93.628906 158.246094 88.839844 156.222656 88.644531 156.148438 C 87.679688 155.730469 87.21875 154.59375 87.636719 153.628906 C 88.054688 152.664062 89.1875 152.203125 90.152344 152.621094 C 90.234375 152.644531 93.632812 154.042969 96.660156 152.632812 C 98.652344 151.695312 100.125 149.726562 101.054688 146.730469 C 101.375 145.707031 102.433594 145.148438 103.460938 145.464844 C 104.488281 145.785156 105.042969 146.847656 104.726562 147.871094 C 103.542969 151.722656 101.523438 154.410156 98.730469 155.878906 Z M 98.730469 155.878906 " fill-opacity="1" fill-rule="nonzero"/></g></g></g><g clip-path="url(#3a75db12b3)"><g clip-path="url(#3aab3be9e4)"><g clip-path="url(#4d036828f9)"><path fill="#05a552" d="M 174.035156 334.625 C 177.777344 336.542969 180.800781 339.859375 182.257812 344.140625 C 185.25 352.941406 180.503906 362.523438 171.664062 365.527344 C 165.015625 367.789062 157.949219 365.695312 153.585938 360.78125 C 152.945312 367.152344 148.683594 372.90625 142.1875 375.113281 C 133.347656 378.121094 123.746094 373.417969 120.753906 364.617188 C 119.332031 360.433594 119.667969 356.070312 121.335938 352.332031 C 114.835938 351.785156 108.964844 347.511719 106.742188 340.980469 C 103.75 332.179688 108.496094 322.597656 117.335938 319.589844 C 118.699219 319.128906 120.0625 318.851562 121.414062 318.753906 C 120.949219 317.890625 120.53125 316.996094 120.210938 316.046875 C 117.21875 307.246094 121.964844 297.664062 130.804688 294.660156 C 139.644531 291.652344 149.246094 296.355469 152.238281 305.160156 C 152.601562 306.226562 152.851562 307.292969 152.984375 308.359375 C 154.375 307.320312 155.945312 306.464844 157.695312 305.871094 C 166.535156 302.867188 176.136719 307.570312 179.128906 316.371094 C 181.398438 323.097656 179.15625 330.277344 174.035156 334.625 Z M 174.035156 334.625 " fill-opacity="1" fill-rule="nonzero"/></g></g></g><g clip-path="url(#724a071305)"><g clip-path="url(#2903106703)"><g clip-path="url(#20e57d081e)"><path fill="#f5f5ef" d="M 141.929688 328.054688 C 143.332031 332.183594 141.101562 336.664062 136.96875 338.066406 C 132.839844 339.472656 128.332031 337.265625 126.9375 333.152344 C 125.539062 329.039062 127.765625 324.542969 131.894531 323.140625 C 136.027344 321.734375 140.53125 323.941406 141.929688 328.054688 Z M 148.300781 317.5625 C 144.152344 318.972656 141.941406 323.460938 143.339844 327.574219 C 144.738281 331.6875 149.246094 333.894531 153.375 332.492188 C 157.507812 331.085938 159.734375 326.589844 158.335938 322.476562 C 156.9375 318.363281 152.429688 316.15625 148.300781 317.5625 Z M 148.300781 317.5625 " fill-opacity="1" fill-rule="nonzero"/></g></g></g><g clip-path="url(#b395eb178b)"><g clip-path="url(#718a335af4)"><g clip-path="url(#be9317ed62)"><path fill="#05a552" d="M 167.738281 329.382812 C 168.605469 331.9375 167.222656 334.730469 164.65625 335.605469 C 162.089844 336.476562 159.289062 335.105469 158.421875 332.550781 C 157.550781 329.992188 158.9375 327.203125 161.503906 326.328125 C 164.070312 325.457031 166.867188 326.828125 167.738281 329.382812 Z M 126.761719 338.160156 C 124.191406 339.03125 122.808594 341.824219 123.679688 344.378906 C 124.546875 346.9375 127.347656 348.308594 129.914062 347.433594 C 132.480469 346.5625 133.863281 343.769531 132.996094 341.214844 C 132.121094 338.640625 129.34375 337.28125 126.761719 338.160156 Z M 126.761719 338.160156 " fill-opacity="1" fill-rule="nonzero"/></g></g></g><g clip-path="url(#27b692826b)"><g clip-path="url(#364480dd2b)"><g clip-path="url(#7b4020bd6d)"><path fill="#2e2e2e" d="M 148.726562 344.476562 C 141.789062 346.832031 135.042969 344.953125 131.519531 343.566406 C 130.535156 343.183594 130.066406 342.078125 130.453125 341.09375 C 130.839844 340.113281 131.949219 339.640625 132.933594 340.027344 C 139 342.417969 150.347656 344.507812 158.332031 331.390625 C 158.878906 330.488281 160.050781 330.203125 160.957031 330.746094 C 161.859375 331.285156 162.144531 332.453125 161.597656 333.359375 C 157.773438 339.679688 153.195312 342.953125 148.726562 344.476562 Z M 148.726562 344.476562 " fill-opacity="1" fill-rule="nonzero"/></g></g></g><g clip-path="url(#40dc85a4d7)"><g clip-path="url(#7fb12526bf)"><g clip-path="url(#12a45a5abc)"><path fill="#2e2e2e" d="M 138.988281 329.054688 C 139.839844 331.558594 138.496094 334.300781 135.964844 335.164062 C 133.449219 336.015625 130.699219 334.6875 129.84375 332.164062 C 128.984375 329.640625 130.335938 326.917969 132.867188 326.054688 C 135.402344 325.195312 138.136719 326.550781 138.988281 329.054688 Z M 149.289062 320.472656 C 146.773438 321.328125 145.40625 324.058594 146.265625 326.582031 C 147.121094 329.101562 149.851562 330.441406 152.386719 329.578125 C 154.902344 328.722656 156.269531 325.992188 155.410156 323.472656 C 154.554688 320.949219 151.804688 319.617188 149.289062 320.472656 Z M 149.289062 320.472656 " fill-opacity="1" fill-rule="nonzero"/></g></g></g><g clip-path="url(#eb794c8a5b)"><g clip-path="url(#d8c9f69e69)"><g clip-path="url(#467478b65a)"><path fill="#84caed" d="M 39.40625 387.496094 C 17.78125 381.386719 5.082031 358.632812 11.203125 336.957031 L 22.699219 296.242188 C 28.824219 274.566406 51.546875 261.8125 73.171875 267.917969 C 94.796875 274.027344 107.496094 296.78125 101.375 318.457031 L 89.878906 359.171875 C 83.757812 380.847656 61.03125 393.601562 39.40625 387.496094 Z M 39.40625 387.496094 " fill-opacity="1" fill-rule="nonzero"/></g></g></g><g clip-path="url(#8f47562e3f)"><g clip-path="url(#15e36ad386)"><g clip-path="url(#3a9a32bc9c)"><path fill="#ff7f1d" d="M 92.566406 318.59375 C 91.53125 322.25 87.738281 324.378906 84.089844 323.351562 C 80.441406 322.320312 78.324219 318.519531 79.355469 314.863281 C 80.386719 311.207031 84.179688 309.078125 87.832031 310.109375 C 91.480469 311.136719 93.597656 314.9375 92.566406 318.59375 Z M 38.585938 296.203125 C 34.9375 295.171875 31.144531 297.300781 30.113281 300.957031 C 29.078125 304.617188 31.199219 308.414062 34.847656 309.445312 C 38.496094 310.476562 42.296875 308.320312 43.320312 304.6875 C 44.347656 301.058594 42.234375 297.234375 38.585938 296.203125 Z M 38.585938 296.203125 " fill-opacity="1" fill-rule="nonzero"/></g></g></g><g clip-path="url(#239fd12a2e)"><g clip-path="url(#5bdcc47f6a)"><g clip-path="url(#35efe9b8e9)"><path fill="#2e2e2e" d="M 52.335938 300.777344 C 47.195312 299.324219 44.828125 293.757812 44.570312 293.136719 C 43.9375 291.601562 44.691406 289.855469 46.25 289.230469 C 47.773438 288.621094 49.523438 289.347656 50.152344 290.878906 C 50.527344 291.792969 52.0625 294.503906 54.050781 295.007812 C 55.308594 295.332031 56.816406 294.777344 58.601562 293.351562 C 59.902344 292.304688 61.769531 292.515625 62.8125 293.820312 C 63.851562 295.121094 63.640625 296.992188 62.339844 298.039062 C 58.179688 301.359375 54.691406 301.386719 52.5 300.796875 C 52.46875 300.8125 52.386719 300.792969 52.335938 300.777344 Z M 74.757812 307.109375 C 76.957031 307.671875 80.4375 307.675781 84.597656 304.351562 C 85.898438 303.308594 86.082031 301.429688 85.066406 300.132812 C 84.027344 298.828125 82.160156 298.621094 80.859375 299.664062 C 79.109375 301.074219 77.566406 301.648438 76.308594 301.320312 C 74.292969 300.808594 72.785156 298.105469 72.410156 297.191406 C 71.78125 295.660156 70.0625 294.914062 68.507812 295.542969 C 66.976562 296.175781 66.222656 297.925781 66.828125 299.449219 C 67.078125 300.097656 69.453125 305.640625 74.589844 307.089844 C 74.652344 307.078125 74.707031 307.09375 74.757812 307.109375 Z M 60.078125 315.617188 C 62.277344 316.179688 65.753906 316.183594 69.914062 312.859375 C 71.214844 311.816406 71.402344 309.9375 70.386719 308.640625 C 69.34375 307.339844 67.476562 307.128906 66.175781 308.171875 C 64.425781 309.582031 62.886719 310.15625 61.625 309.828125 C 59.640625 309.324219 58.105469 306.613281 57.730469 305.703125 C 57.097656 304.167969 55.382812 303.425781 53.824219 304.050781 C 52.292969 304.6875 51.542969 306.433594 52.144531 307.957031 C 52.394531 308.605469 54.769531 314.148438 59.910156 315.597656 C 59.972656 315.585938 60.023438 315.601562 60.078125 315.617188 Z M 60.078125 315.617188 " fill-opacity="1" fill-rule="nonzero"/></g></g></g><g clip-path="url(#34a8617c8f)"><g clip-path="url(#1618ba1d26)"><g clip-path="url(#bc4021b4d9)"><path fill="#f69aa2" d="M 235.9375 94.710938 C 239.953125 100.523438 241.800781 107.835938 240.566406 115.34375 C 238.027344 130.773438 223.429688 141.234375 207.984375 138.691406 C 196.371094 136.78125 187.582031 128.082031 185.019531 117.328125 C 179.03125 126.277344 168.171875 131.441406 156.828125 129.574219 C 141.378906 127.03125 130.90625 112.445312 133.445312 97.015625 C 134.652344 89.683594 138.601562 83.476562 144.027344 79.25 C 134.847656 73.289062 129.550781 62.296875 131.433594 50.84375 C 133.972656 35.414062 148.570312 24.953125 164.015625 27.496094 C 166.390625 27.886719 168.632812 28.558594 170.707031 29.480469 C 170.703125 27.835938 170.792969 26.171875 171.066406 24.511719 C 173.605469 9.082031 188.203125 -1.378906 203.648438 1.164062 C 219.09375 3.707031 229.570312 18.289062 227.027344 33.722656 C 226.722656 35.589844 226.246094 37.371094 225.601562 39.0625 C 228.480469 38.625 231.472656 38.597656 234.535156 39.101562 C 249.980469 41.644531 260.453125 56.230469 257.914062 71.660156 C 255.945312 83.4375 246.949219 92.316406 235.9375 94.710938 Z M 235.9375 94.710938 " fill-opacity="1" fill-rule="nonzero"/></g></g></g><g clip-path="url(#e28e9d63d8)"><g clip-path="url(#028447b012)"><g clip-path="url(#1ba51a0538)"><path fill="#f5f5ef" d="M 193.675781 59.535156 C 192.484375 66.773438 185.640625 71.652344 178.421875 70.464844 C 171.203125 69.277344 166.289062 62.433594 167.476562 55.222656 C 168.664062 48.011719 175.511719 43.101562 182.730469 44.292969 C 189.949219 45.480469 194.863281 52.324219 193.675781 59.535156 Z M 211.394531 49.007812 C 204.148438 47.816406 197.328125 52.726562 196.140625 59.9375 C 194.953125 67.148438 199.867188 73.992188 207.085938 75.179688 C 214.304688 76.371094 221.152344 71.460938 222.339844 64.25 C 223.527344 57.039062 218.613281 50.195312 211.394531 49.007812 Z M 211.394531 49.007812 " fill-opacity="1" fill-rule="nonzero"/></g></g></g><g clip-path="url(#eff631a090)"><g clip-path="url(#76172b1bda)"><g clip-path="url(#61850c84a0)"><path fill="#ff7f1d" d="M 230.777344 81.945312 C 230.039062 86.425781 225.785156 89.476562 221.300781 88.738281 C 216.816406 88 213.761719 83.746094 214.5 79.265625 C 215.238281 74.785156 219.492188 71.738281 223.976562 72.476562 C 228.460938 73.214844 231.515625 77.464844 230.777344 81.945312 Z M 163.257812 62.511719 C 158.769531 61.773438 154.515625 64.824219 153.78125 69.304688 C 153.042969 73.785156 156.09375 78.035156 160.582031 78.773438 C 165.066406 79.511719 169.320312 76.464844 170.058594 71.984375 C 170.800781 67.472656 167.773438 63.253906 163.257812 62.511719 Z M 163.257812 62.511719 " fill-opacity="1" fill-rule="nonzero"/></g></g></g><g clip-path="url(#5ba650777c)"><g clip-path="url(#175c939e7d)"><g clip-path="url(#9d4a67f07c)"><path fill="#2e2e2e" d="M 190.730469 89.28125 C 178.613281 87.289062 170.128906 79.15625 166.015625 74.304688 C 164.863281 72.957031 165.042969 70.945312 166.390625 69.792969 C 167.738281 68.644531 169.753906 68.824219 170.90625 70.171875 C 177.980469 78.527344 193.105469 90.617188 215.28125 77.476562 C 216.804688 76.566406 218.765625 77.074219 219.675781 78.59375 C 220.582031 80.113281 220.078125 82.074219 218.554688 82.980469 C 207.898438 89.335938 198.542969 90.570312 190.730469 89.28125 Z M 190.730469 89.28125 " fill-opacity="1" fill-rule="nonzero"/></g></g></g><g clip-path="url(#bfc4a1816b)"><g clip-path="url(#883ce3470d)"><g clip-path="url(#fcbb2cf33d)"><path fill="#2e2e2e" d="M 188.535156 58.6875 C 187.8125 63.078125 183.660156 66.082031 179.234375 65.355469 C 174.835938 64.632812 171.828125 60.480469 172.554688 56.058594 C 173.285156 51.636719 177.433594 48.660156 181.859375 49.390625 C 186.285156 50.117188 189.261719 54.296875 188.535156 58.6875 Z M 210.554688 54.113281 C 206.160156 53.390625 201.976562 56.359375 201.25 60.78125 C 200.523438 65.203125 203.5 69.347656 207.925781 70.078125 C 212.324219 70.800781 216.503906 67.832031 217.230469 63.410156 C 217.957031 58.988281 214.949219 54.835938 210.554688 54.113281 Z M 210.554688 54.113281 " fill-opacity="1" fill-rule="nonzero"/></g></g></g></svg>