<svg xmlns="http://www.w3.org/2000/svg" xmlns:xlink="http://www.w3.org/1999/xlink" width="500" zoomAndPan="magnify" viewBox="0 0 375 374.999991" height="500" preserveAspectRatio="xMidYMid meet" version="1.0"><defs><g/><clipPath id="55da1d42e1"><path d="M 35.066406 52.738281 L 339.777344 52.738281 L 339.777344 357.453125 L 35.066406 357.453125 Z M 35.066406 52.738281 " clip-rule="nonzero"/></clipPath><clipPath id="8c16645b33"><path d="M 187.421875 52.738281 C 103.277344 52.738281 35.066406 120.953125 35.066406 205.09375 C 35.066406 289.238281 103.277344 357.453125 187.421875 357.453125 C 271.566406 357.453125 339.777344 289.238281 339.777344 205.09375 C 339.777344 120.953125 271.566406 52.738281 187.421875 52.738281 " clip-rule="nonzero"/></clipPath><clipPath id="f1f587e2d8"><path d="M 71 1 L 174 1 L 174 112 L 71 112 Z M 71 1 " clip-rule="nonzero"/></clipPath><clipPath id="4d94d266ed"><path d="M 56.796875 18.417969 L 152.65625 -14.171875 L 187.179688 87.371094 L 91.316406 119.960938 Z M 56.796875 18.417969 " clip-rule="nonzero"/></clipPath><clipPath id="6f9c0a576a"><path d="M 56.796875 18.417969 L 152.65625 -14.171875 L 187.179688 87.371094 L 91.316406 119.960938 Z M 56.796875 18.417969 " clip-rule="nonzero"/></clipPath><clipPath id="582a902fee"><path d="M 98 32 L 142 32 L 142 61 L 98 61 Z M 98 32 " clip-rule="nonzero"/></clipPath><clipPath id="9453d02c3c"><path d="M 56.796875 18.417969 L 152.65625 -14.171875 L 187.179688 87.371094 L 91.316406 119.960938 Z M 56.796875 18.417969 " clip-rule="nonzero"/></clipPath><clipPath id="682b9a3844"><path d="M 56.796875 18.417969 L 152.65625 -14.171875 L 187.179688 87.371094 L 91.316406 119.960938 Z M 56.796875 18.417969 " clip-rule="nonzero"/></clipPath><clipPath id="b9713574a6"><path d="M 94 44 L 154 44 L 154 74 L 94 74 Z M 94 44 " clip-rule="nonzero"/></clipPath><clipPath id="d570aaa108"><path d="M 56.796875 18.417969 L 152.65625 -14.171875 L 187.179688 87.371094 L 91.316406 119.960938 Z M 56.796875 18.417969 " clip-rule="nonzero"/></clipPath><clipPath id="0271a265cd"><path d="M 56.796875 18.417969 L 152.65625 -14.171875 L 187.179688 87.371094 L 91.316406 119.960938 Z M 56.796875 18.417969 " clip-rule="nonzero"/></clipPath><clipPath id="b8f64296a9"><path d="M 103 50 L 146 50 L 146 71 L 103 71 Z M 103 50 " clip-rule="nonzero"/></clipPath><clipPath id="1191e1bf87"><path d="M 56.796875 18.417969 L 152.65625 -14.171875 L 187.179688 87.371094 L 91.316406 119.960938 Z M 56.796875 18.417969 " clip-rule="nonzero"/></clipPath><clipPath id="47801d2231"><path d="M 56.796875 18.417969 L 152.65625 -14.171875 L 187.179688 87.371094 L 91.316406 119.960938 Z M 56.796875 18.417969 " clip-rule="nonzero"/></clipPath><clipPath id="b4eb352c34"><path d="M 102 36 L 138 36 L 138 57 L 102 57 Z M 102 36 " clip-rule="nonzero"/></clipPath><clipPath id="2efd097ba7"><path d="M 56.796875 18.417969 L 152.65625 -14.171875 L 187.179688 87.371094 L 91.316406 119.960938 Z M 56.796875 18.417969 " clip-rule="nonzero"/></clipPath><clipPath id="26b82273ad"><path d="M 56.796875 18.417969 L 152.65625 -14.171875 L 187.179688 87.371094 L 91.316406 119.960938 Z M 56.796875 18.417969 " clip-rule="nonzero"/></clipPath><clipPath id="84214d4881"><path d="M 191 293.363281 L 346 293.363281 L 346 375 L 191 375 Z M 191 293.363281 " clip-rule="nonzero"/></clipPath></defs><rect x="-37.5" width="450" fill="#ffffff" y="-37.499999" height="449.999989" fill-opacity="1"/><rect x="-37.5" width="450" fill="#ffffff" y="-37.499999" height="449.999989" fill-opacity="1"/><g clip-path="url(#55da1d42e1)"><g clip-path="url(#8c16645b33)"><path fill="#f69aa2" d="M 35.066406 52.738281 L 339.777344 52.738281 L 339.777344 357.453125 L 35.066406 357.453125 Z M 35.066406 52.738281 " fill-opacity="1" fill-rule="nonzero"/></g></g><g clip-path="url(#f1f587e2d8)"><g clip-path="url(#4d94d266ed)"><g clip-path="url(#6f9c0a576a)"><path fill="#05a552" d="M 161.484375 55.882812 C 166.449219 58.460938 170.46875 62.898438 172.414062 68.621094 C 176.414062 80.382812 170.164062 93.15625 158.464844 97.132812 C 149.664062 100.125 140.296875 97.304688 134.496094 90.722656 C 133.671875 99.226562 128.046875 106.894531 119.449219 109.816406 C 107.75 113.792969 95.011719 107.476562 91.011719 95.714844 C 89.113281 90.125 89.542969 84.304688 91.738281 79.316406 C 83.121094 78.5625 75.324219 72.835938 72.355469 64.101562 C 68.359375 52.339844 74.609375 39.566406 86.308594 35.589844 C 88.109375 34.976562 89.917969 34.613281 91.707031 34.484375 C 91.089844 33.332031 90.53125 32.132812 90.101562 30.867188 C 86.101562 19.105469 92.351562 6.332031 104.050781 2.355469 C 115.75 -1.625 128.492188 4.695312 132.492188 16.457031 C 132.976562 17.882812 133.308594 19.308594 133.492188 20.734375 C 135.332031 19.351562 137.40625 18.21875 139.722656 17.429688 C 151.425781 13.453125 164.164062 19.769531 168.164062 31.53125 C 171.195312 40.519531 168.25 50.101562 161.484375 55.882812 Z M 161.484375 55.882812 " fill-opacity="1" fill-rule="nonzero"/></g></g></g><g clip-path="url(#582a902fee)"><g clip-path="url(#9453d02c3c)"><g clip-path="url(#682b9a3844)"><path fill="#f5f5ef" d="M 118.921875 46.984375 C 120.800781 52.503906 117.859375 58.476562 112.390625 60.332031 C 106.925781 62.191406 100.945312 59.226562 99.078125 53.730469 C 97.210938 48.234375 100.140625 42.242188 105.609375 40.382812 C 111.078125 38.523438 117.054688 41.488281 118.921875 46.984375 Z M 127.324219 33 C 121.832031 34.867188 118.921875 40.851562 120.789062 46.351562 C 122.660156 51.847656 128.636719 54.8125 134.105469 52.953125 C 139.574219 51.09375 142.503906 45.101562 140.636719 39.601562 C 138.769531 34.105469 132.789062 31.140625 127.324219 33 Z M 127.324219 33 " fill-opacity="1" fill-rule="nonzero"/></g></g></g><g clip-path="url(#b9713574a6)"><g clip-path="url(#d570aaa108)"><g clip-path="url(#0271a265cd)"><path fill="#05a552" d="M 153.121094 48.859375 C 154.28125 52.273438 152.460938 56 149.0625 57.152344 C 145.664062 58.308594 141.953125 56.46875 140.789062 53.050781 C 139.628906 49.636719 141.449219 45.914062 144.847656 44.757812 C 148.246094 43.601562 151.960938 45.445312 153.121094 48.859375 Z M 98.867188 60.414062 C 95.46875 61.570312 93.644531 65.292969 94.808594 68.710938 C 95.96875 72.125 99.683594 73.964844 103.078125 72.8125 C 106.476562 71.65625 108.296875 67.933594 107.136719 64.515625 C 105.96875 61.078125 102.285156 59.253906 98.867188 60.414062 Z M 98.867188 60.414062 " fill-opacity="1" fill-rule="nonzero"/></g></g></g><g clip-path="url(#b8f64296a9)"><g clip-path="url(#1191e1bf87)"><g clip-path="url(#47801d2231)"><path fill="#000000" d="M 127.992188 68.933594 C 118.8125 72.054688 109.867188 69.519531 105.191406 67.652344 C 103.886719 67.136719 103.257812 65.660156 103.769531 64.351562 C 104.277344 63.042969 105.746094 62.417969 107.050781 62.933594 C 115.097656 66.152344 130.144531 68.984375 140.667969 51.503906 C 141.386719 50.300781 142.941406 49.921875 144.140625 50.648438 C 145.34375 51.378906 145.722656 52.9375 145.003906 54.144531 C 139.960938 62.570312 133.910156 66.921875 127.992188 68.933594 Z M 127.992188 68.933594 " fill-opacity="1" fill-rule="nonzero"/></g></g></g><g clip-path="url(#b4eb352c34)"><g clip-path="url(#2efd097ba7)"><g clip-path="url(#26b82273ad)"><path fill="#000000" d="M 115.03125 48.308594 C 116.167969 51.65625 114.398438 55.3125 111.046875 56.449219 C 107.71875 57.582031 104.070312 55.792969 102.925781 52.421875 C 101.78125 49.054688 103.558594 45.421875 106.910156 44.28125 C 110.261719 43.140625 113.894531 44.960938 115.03125 48.308594 Z M 128.644531 36.890625 C 125.316406 38.023438 123.515625 41.664062 124.660156 45.035156 C 125.808594 48.40625 129.429688 50.199219 132.78125 49.0625 C 136.113281 47.929688 137.914062 44.289062 136.765625 40.917969 C 135.621094 37.546875 131.976562 35.757812 128.644531 36.890625 Z M 128.644531 36.890625 " fill-opacity="1" fill-rule="nonzero"/></g></g></g><g clip-path="url(#84214d4881)"><path fill="#ff9441" d="M 215.601562 375.113281 C 198.566406 375.113281 187.085938 357.585938 193.992188 342.019531 C 206.671875 313.347656 235.375 293.363281 268.742188 293.363281 C 302.113281 293.363281 330.816406 313.347656 343.523438 342.019531 C 350.429688 357.585938 338.949219 375.113281 321.914062 375.113281 Z M 215.601562 375.113281 " fill-opacity="1" fill-rule="nonzero"/></g><path fill="#ffffff" d="M 267.515625 326.027344 C 267.515625 333.300781 261.621094 339.195312 254.34375 339.195312 C 247.070312 339.195312 241.175781 333.300781 241.175781 326.027344 C 241.175781 318.75 247.070312 312.855469 254.34375 312.855469 C 261.621094 312.855469 267.515625 318.75 267.515625 326.027344 Z M 283.171875 312.855469 C 275.894531 312.855469 270 318.75 270 326.027344 C 270 333.300781 275.894531 339.195312 283.171875 339.195312 C 290.445312 339.195312 296.339844 333.300781 296.339844 326.027344 C 296.339844 318.75 290.445312 312.855469 283.171875 312.855469 Z M 283.171875 312.855469 " fill-opacity="1" fill-rule="nonzero"/><path fill="#000000" d="M 268.527344 356.140625 C 262.113281 356.140625 256.921875 350.921875 256.921875 344.539062 C 256.921875 338.121094 262.140625 332.933594 268.527344 332.933594 C 274.945312 332.933594 280.132812 338.152344 280.132812 344.539062 C 280.132812 350.921875 274.945312 356.140625 268.527344 356.140625 Z M 268.527344 339.257812 C 265.609375 339.257812 263.246094 341.621094 263.246094 344.539062 C 263.246094 347.453125 265.609375 349.816406 268.527344 349.816406 C 271.445312 349.816406 273.808594 347.453125 273.808594 344.539062 C 273.808594 341.621094 271.445312 339.257812 268.527344 339.257812 Z M 268.527344 339.257812 " fill-opacity="1" fill-rule="nonzero"/><path fill="#ff9441" d="M 307.484375 342.019531 C 307.484375 346.53125 303.832031 350.214844 299.289062 350.214844 C 294.773438 350.214844 291.089844 346.5625 291.089844 342.019531 C 291.089844 337.476562 294.742188 333.824219 299.289062 333.824219 C 303.800781 333.824219 307.484375 337.507812 307.484375 342.019531 Z M 238.226562 333.824219 C 233.714844 333.824219 230.03125 337.476562 230.03125 342.019531 C 230.03125 346.5625 233.683594 350.214844 238.226562 350.214844 C 242.773438 350.214844 246.425781 346.5625 246.425781 342.019531 C 246.425781 337.476562 242.742188 333.824219 238.226562 333.824219 Z M 238.226562 333.824219 " fill-opacity="1" fill-rule="nonzero"/><path fill="#000000" d="M 262.355469 326.027344 C 262.355469 330.476562 258.765625 334.070312 254.3125 334.070312 C 249.863281 334.070312 246.269531 330.476562 246.269531 326.027344 C 246.269531 321.574219 249.863281 317.984375 254.3125 317.984375 C 258.765625 317.984375 262.355469 321.574219 262.355469 326.027344 Z M 283.171875 317.984375 C 278.71875 317.984375 275.128906 321.574219 275.128906 326.027344 C 275.128906 330.476562 278.71875 334.070312 283.171875 334.070312 C 287.621094 334.070312 291.214844 330.476562 291.214844 326.027344 C 291.214844 321.574219 287.621094 317.984375 283.171875 317.984375 Z M 283.171875 317.984375 " fill-opacity="1" fill-rule="nonzero"/><g fill="#2e2e2e" fill-opacity="1"><g transform="translate(87.818973, 157.952123)"><g><path d="M 18.738281 -9.847656 C 20.425781 -11.035156 21.335938 -12.949219 21.335938 -15.5 C 21.335938 -20.152344 18.511719 -22.796875 13.539062 -22.796875 L 1.503906 -22.796875 L 1.503906 0 L 8.890625 0 L 8.890625 -8.207031 L 11.625 -8.207031 C 13.449219 -7.886719 14.453125 -6.65625 14.453125 -4.695312 L 14.453125 0 L 21.199219 0 L 21.199219 -3.738281 C 21.199219 -6.472656 20.335938 -8.570312 18.738281 -9.847656 Z M 12.539062 -13.675781 L 8.890625 -13.675781 L 8.890625 -17.097656 L 12.539062 -17.097656 C 13.90625 -17.097656 14.726562 -16.503906 14.726562 -15.363281 C 14.726562 -14.316406 13.90625 -13.675781 12.539062 -13.675781 Z M 12.539062 -13.675781 "/></g></g></g><g fill="#2e2e2e" fill-opacity="1"><g transform="translate(110.386432, 157.952123)"><g><path d="M 20.925781 -9.117188 C 20.925781 -15.183594 17.324219 -18.601562 10.988281 -18.601562 C 4.652344 -18.601562 1.09375 -15.183594 1.09375 -9.117188 C 1.09375 -3.101562 4.652344 0.363281 10.988281 0.363281 C 15.546875 0.363281 18.875 -1.640625 20.242188 -5.199219 L 12.902344 -6.429688 C 12.582031 -5.609375 11.945312 -5.152344 11.078125 -5.152344 C 9.9375 -5.152344 9.164062 -5.789062 8.707031 -7.019531 L 20.652344 -7.019531 C 20.789062 -7.707031 20.925781 -8.433594 20.925781 -9.117188 Z M 13.3125 -10.804688 L 8.527344 -10.804688 C 8.890625 -12.308594 9.710938 -13.128906 10.988281 -13.128906 C 11.898438 -13.128906 12.71875 -12.308594 13.3125 -10.804688 Z M 13.3125 -10.804688 "/></g></g></g><g fill="#2e2e2e" fill-opacity="1"><g transform="translate(132.361205, 157.952123)"><g><path d="M 26.535156 -18.601562 C 23.707031 -18.554688 21.703125 -17.007812 20.746094 -14.269531 C 19.742188 -17.050781 17.460938 -18.601562 14.226562 -18.601562 C 11.808594 -18.554688 9.984375 -17.460938 8.890625 -15.363281 L 8.890625 -18.238281 L 1.503906 -18.238281 L 1.503906 0 L 8.890625 0 L 8.890625 -9.074219 C 9.347656 -11.261719 10.304688 -12.445312 11.582031 -12.445312 C 13.085938 -12.445312 13.90625 -10.761719 13.90625 -7.75 L 13.90625 0 L 21.335938 0 L 21.335938 -9.4375 C 21.792969 -11.351562 22.703125 -12.445312 23.84375 -12.445312 C 25.347656 -12.445312 26.214844 -10.761719 26.214844 -7.75 L 26.214844 0 L 33.601562 0 L 33.601562 -10.347656 C 33.601562 -15.59375 31.046875 -18.601562 26.535156 -18.601562 Z M 26.535156 -18.601562 "/></g></g></g><g fill="#2e2e2e" fill-opacity="1"><g transform="translate(167.192589, 157.952123)"><g><path d="M 5.199219 -19.46875 C 7.566406 -19.46875 8.9375 -20.5625 8.9375 -22.429688 C 8.9375 -24.300781 7.566406 -25.394531 5.199219 -25.394531 C 2.828125 -25.394531 1.503906 -24.300781 1.503906 -22.429688 C 1.503906 -20.5625 2.828125 -19.46875 5.199219 -19.46875 Z M 8.9375 -18.238281 L 1.503906 -18.238281 L 1.503906 0 L 8.9375 0 Z M 8.9375 -18.238281 "/></g></g></g><g fill="#2e2e2e" fill-opacity="1"><g transform="translate(177.587292, 157.952123)"><g><path d="M 14.226562 -18.601562 C 11.808594 -18.554688 9.984375 -17.460938 8.890625 -15.363281 L 8.890625 -18.238281 L 1.503906 -18.238281 L 1.503906 0 L 8.890625 0 L 8.890625 -9.074219 C 9.347656 -11.261719 10.304688 -12.445312 11.582031 -12.445312 C 13.085938 -12.445312 13.90625 -10.761719 13.90625 -7.75 L 13.90625 0 L 21.335938 0 L 21.335938 -10.347656 C 21.335938 -15.59375 18.785156 -18.601562 14.226562 -18.601562 Z M 14.226562 -18.601562 "/></g></g></g><g fill="#2e2e2e" fill-opacity="1"><g transform="translate(200.109157, 157.952123)"><g><path d="M 20.925781 -22.796875 L 13.496094 -22.796875 L 13.496094 -15.730469 C 12.445312 -17.597656 10.851562 -18.601562 8.84375 -18.601562 C 3.875 -18.601562 1.09375 -15.183594 1.09375 -9.117188 C 1.09375 -3.101562 3.875 0.363281 8.84375 0.363281 C 10.851562 0.363281 12.445312 -0.683594 13.496094 -2.554688 L 13.496094 0 L 20.925781 0 Z M 10.988281 -5.609375 C 9.300781 -5.609375 8.390625 -6.882812 8.390625 -9.117188 C 8.390625 -11.398438 9.300781 -12.675781 10.988281 -12.675781 C 12.628906 -12.675781 13.496094 -11.398438 13.496094 -9.117188 C 13.496094 -6.882812 12.628906 -5.609375 10.988281 -5.609375 Z M 10.988281 -5.609375 "/></g></g></g><g fill="#2e2e2e" fill-opacity="1"><g transform="translate(222.494252, 157.952123)"><g><path d="M 20.925781 -9.117188 C 20.925781 -15.183594 17.324219 -18.601562 10.988281 -18.601562 C 4.652344 -18.601562 1.09375 -15.183594 1.09375 -9.117188 C 1.09375 -3.101562 4.652344 0.363281 10.988281 0.363281 C 15.546875 0.363281 18.875 -1.640625 20.242188 -5.199219 L 12.902344 -6.429688 C 12.582031 -5.609375 11.945312 -5.152344 11.078125 -5.152344 C 9.9375 -5.152344 9.164062 -5.789062 8.707031 -7.019531 L 20.652344 -7.019531 C 20.789062 -7.707031 20.925781 -8.433594 20.925781 -9.117188 Z M 13.3125 -10.804688 L 8.527344 -10.804688 C 8.890625 -12.308594 9.710938 -13.128906 10.988281 -13.128906 C 11.898438 -13.128906 12.71875 -12.308594 13.3125 -10.804688 Z M 13.3125 -10.804688 "/></g></g></g><g fill="#2e2e2e" fill-opacity="1"><g transform="translate(244.469026, 157.952123)"><g><path d="M 14.132812 -18.601562 C 11.761719 -18.554688 9.9375 -17.460938 8.890625 -15.363281 L 8.890625 -18.238281 L 1.503906 -18.238281 L 1.503906 0 L 8.890625 0 L 8.890625 -7.566406 C 9.300781 -10.714844 10.210938 -12.445312 11.488281 -12.445312 C 12.765625 -12.445312 13.996094 -11.761719 14.863281 -10.578125 L 19.925781 -15.273438 C 18.691406 -17.554688 16.503906 -18.601562 14.132812 -18.601562 Z M 14.132812 -18.601562 "/></g></g></g><g fill="#2e2e2e" fill-opacity="1"><g transform="translate(264.75695, 157.952123)"><g><path d="M 5.5625 -6.703125 C 7.113281 -5.5625 8.980469 -4.96875 10.714844 -4.96875 C 12.949219 -4.96875 14.179688 -5.335938 14.179688 -5.925781 C 14.179688 -7.933594 0.820312 -4.375 0.820312 -12.675781 C 0.820312 -16.457031 4.285156 -18.601562 10.484375 -18.601562 C 14.179688 -18.601562 17.597656 -17.324219 19.96875 -15.089844 L 15.910156 -11.535156 C 14.316406 -12.71875 12.445312 -13.359375 10.714844 -13.359375 C 8.527344 -13.359375 7.292969 -12.949219 7.292969 -12.308594 C 7.292969 -10.578125 20.652344 -13.90625 20.652344 -5.609375 C 20.652344 -1.777344 17.144531 0.363281 10.941406 0.320312 C 7.660156 0.320312 4.238281 -0.957031 1.503906 -3.144531 Z M 5.5625 -6.703125 "/></g></g></g><g fill="#2e2e2e" fill-opacity="1"><g transform="translate(113.630968, 193.071143)"><g><path d="M 8.949219 0 L 10.355469 0 L 10.355469 -11.167969 L 8.949219 -11.167969 L 8.949219 -6.367188 L 3.03125 -6.367188 L 3.03125 -11.167969 L 1.628906 -11.167969 L 1.628906 0 L 3.03125 0 L 3.03125 -5.027344 L 8.949219 -5.027344 Z M 8.949219 0 "/></g></g></g><g fill="#2e2e2e" fill-opacity="1"><g transform="translate(125.61095, 193.071143)"><g><path d="M 5.074219 0.207031 C 6.941406 0.207031 8.472656 -0.796875 9.140625 -2.410156 L 7.625 -2.410156 C 7.117188 -1.53125 6.175781 -1.054688 5.089844 -1.054688 C 3.511719 -1.054688 2.394531 -2.042969 2.1875 -3.605469 L 9.347656 -3.605469 C 9.445312 -6.492188 7.738281 -8.488281 5.089844 -8.488281 C 2.585938 -8.488281 0.828125 -6.699219 0.828125 -4.148438 C 0.828125 -1.578125 2.570312 0.207031 5.074219 0.207031 Z M 2.203125 -4.785156 C 2.441406 -6.253906 3.558594 -7.226562 5.089844 -7.226562 C 6.605469 -7.226562 7.722656 -6.300781 8.007812 -4.785156 Z M 2.203125 -4.785156 "/></g></g></g><g fill="#2e2e2e" fill-opacity="1"><g transform="translate(135.756447, 193.071143)"><g><path d="M 1.484375 0 L 2.824219 0 L 2.824219 -11.804688 L 1.484375 -11.804688 Z M 1.484375 0 "/></g></g></g><g fill="#2e2e2e" fill-opacity="1"><g transform="translate(140.063497, 193.071143)"><g><path d="M 6 0.207031 C 8.441406 0.207031 10.210938 -1.628906 10.210938 -4.148438 C 10.210938 -6.652344 8.441406 -8.488281 6 -8.488281 C 4.644531 -8.488281 3.492188 -7.929688 2.746094 -7.003906 L 2.585938 -8.28125 L 1.484375 -8.28125 L 1.484375 3.191406 L 2.824219 3.191406 L 2.824219 -1.179688 C 3.574219 -0.320312 4.691406 0.207031 6 0.207031 Z M 2.777344 -4.148438 C 2.777344 -5.933594 4.035156 -7.210938 5.824219 -7.210938 C 7.625 -7.210938 8.871094 -5.933594 8.871094 -4.148438 C 8.871094 -2.34375 7.625 -1.085938 5.824219 -1.085938 C 4.035156 -1.085938 2.777344 -2.34375 2.777344 -4.148438 Z M 2.777344 -4.148438 "/></g></g></g><g fill="#2e2e2e" fill-opacity="1"><g transform="translate(151.102312, 193.071143)"><g/></g></g><g fill="#2e2e2e" fill-opacity="1"><g transform="translate(155.058423, 193.071143)"><g><path d="M 5.058594 0 L 6.300781 0 L 6.300781 -1.292969 L 5.121094 -1.292969 C 4.019531 -1.292969 3.511719 -1.851562 3.511719 -3.046875 L 3.511719 -7.050781 L 6.191406 -7.050781 L 6.191406 -8.28125 L 3.511719 -8.28125 L 3.511719 -10.339844 L 2.472656 -10.339844 L 2.34375 -9.222656 C 2.25 -8.472656 2.027344 -8.28125 1.261719 -8.28125 L 0.429688 -8.28125 L 0.429688 -7.050781 L 2.167969 -7.050781 L 2.167969 -2.984375 C 2.167969 -1.085938 3.222656 0 5.058594 0 Z M 5.058594 0 "/></g></g></g><g fill="#2e2e2e" fill-opacity="1"><g transform="translate(162.141127, 193.071143)"><g><path d="M 1.484375 0 L 2.824219 0 L 2.824219 -4.226562 C 2.824219 -6.046875 3.925781 -7.210938 5.488281 -7.210938 C 6.925781 -7.210938 7.816406 -6.191406 7.816406 -4.53125 L 7.816406 0 L 9.15625 0 L 9.15625 -4.660156 C 9.15625 -7.019531 7.847656 -8.488281 5.664062 -8.488281 C 4.59375 -8.488281 3.542969 -8.089844 2.824219 -7.195312 L 2.824219 -11.804688 L 1.484375 -11.804688 Z M 1.484375 0 "/></g></g></g><g fill="#2e2e2e" fill-opacity="1"><g transform="translate(172.621619, 193.071143)"><g><path d="M 5.074219 0.207031 C 6.941406 0.207031 8.472656 -0.796875 9.140625 -2.410156 L 7.625 -2.410156 C 7.117188 -1.53125 6.175781 -1.054688 5.089844 -1.054688 C 3.511719 -1.054688 2.394531 -2.042969 2.1875 -3.605469 L 9.347656 -3.605469 C 9.445312 -6.492188 7.738281 -8.488281 5.089844 -8.488281 C 2.585938 -8.488281 0.828125 -6.699219 0.828125 -4.148438 C 0.828125 -1.578125 2.570312 0.207031 5.074219 0.207031 Z M 2.203125 -4.785156 C 2.441406 -6.253906 3.558594 -7.226562 5.089844 -7.226562 C 6.605469 -7.226562 7.722656 -6.300781 8.007812 -4.785156 Z M 2.203125 -4.785156 "/></g></g></g><g fill="#2e2e2e" fill-opacity="1"><g transform="translate(182.767115, 193.071143)"><g/></g></g><g fill="#2e2e2e" fill-opacity="1"><g transform="translate(186.723226, 193.071143)"><g><path d="M 4.484375 0.207031 C 6.523438 0.207031 7.847656 -0.734375 7.847656 -2.167969 C 7.847656 -3.460938 6.765625 -4.339844 4.675781 -4.753906 C 2.953125 -5.089844 2.359375 -5.425781 2.359375 -6.125 C 2.359375 -6.859375 3.0625 -7.308594 4.261719 -7.308594 C 5.519531 -7.308594 6.269531 -6.8125 6.367188 -5.902344 L 7.691406 -5.902344 C 7.578125 -7.53125 6.285156 -8.488281 4.242188 -8.488281 C 2.25 -8.488281 1.035156 -7.609375 1.035156 -6.125 C 1.035156 -4.816406 2.042969 -4.019531 4.179688 -3.667969 C 5.792969 -3.398438 6.523438 -2.953125 6.523438 -2.203125 C 6.523438 -1.453125 5.757812 -0.988281 4.5 -0.988281 C 3.078125 -0.988281 2.234375 -1.59375 2.1875 -2.601562 L 0.863281 -2.601562 C 0.894531 -0.910156 2.3125 0.207031 4.484375 0.207031 Z M 4.484375 0.207031 "/></g></g></g><g fill="#2e2e2e" fill-opacity="1"><g transform="translate(195.433042, 193.071143)"><g><path d="M 5.058594 0 L 6.300781 0 L 6.300781 -1.292969 L 5.121094 -1.292969 C 4.019531 -1.292969 3.511719 -1.851562 3.511719 -3.046875 L 3.511719 -7.050781 L 6.191406 -7.050781 L 6.191406 -8.28125 L 3.511719 -8.28125 L 3.511719 -10.339844 L 2.472656 -10.339844 L 2.34375 -9.222656 C 2.25 -8.472656 2.027344 -8.28125 1.261719 -8.28125 L 0.429688 -8.28125 L 0.429688 -7.050781 L 2.167969 -7.050781 L 2.167969 -2.984375 C 2.167969 -1.085938 3.222656 0 5.058594 0 Z M 5.058594 0 "/></g></g></g><g fill="#2e2e2e" fill-opacity="1"><g transform="translate(202.515747, 193.071143)"><g><path d="M 4.785156 0.207031 C 5.886719 0.207031 6.957031 -0.238281 7.675781 -1.210938 L 7.816406 0 L 8.917969 0 L 8.917969 -8.28125 L 7.578125 -8.28125 L 7.578125 -4.101562 C 7.578125 -2.296875 6.507812 -1.085938 4.960938 -1.085938 C 3.542969 -1.085938 2.664062 -2.136719 2.664062 -3.796875 L 2.664062 -8.28125 L 1.324219 -8.28125 L 1.324219 -3.667969 C 1.324219 -1.308594 2.617188 0.207031 4.785156 0.207031 Z M 4.785156 0.207031 "/></g></g></g><g fill="#2e2e2e" fill-opacity="1"><g transform="translate(212.916476, 193.071143)"><g><path d="M 5.058594 0.207031 C 6.398438 0.207031 7.546875 -0.351562 8.296875 -1.277344 L 8.457031 0 L 9.558594 0 L 9.558594 -11.804688 L 8.214844 -11.804688 L 8.214844 -7.117188 C 7.464844 -7.976562 6.351562 -8.488281 5.058594 -8.488281 C 2.601562 -8.488281 0.828125 -6.652344 0.828125 -4.148438 C 0.828125 -1.628906 2.601562 0.207031 5.058594 0.207031 Z M 2.167969 -4.148438 C 2.167969 -5.933594 3.429688 -7.210938 5.21875 -7.210938 C 7.019531 -7.210938 8.265625 -5.933594 8.265625 -4.148438 C 8.265625 -2.34375 7.019531 -1.085938 5.21875 -1.085938 C 3.429688 -1.085938 2.167969 -2.34375 2.167969 -4.148438 Z M 2.167969 -4.148438 "/></g></g></g><g fill="#2e2e2e" fill-opacity="1"><g transform="translate(223.955291, 193.071143)"><g><path d="M 5.074219 0.207031 C 6.941406 0.207031 8.472656 -0.796875 9.140625 -2.410156 L 7.625 -2.410156 C 7.117188 -1.53125 6.175781 -1.054688 5.089844 -1.054688 C 3.511719 -1.054688 2.394531 -2.042969 2.1875 -3.605469 L 9.347656 -3.605469 C 9.445312 -6.492188 7.738281 -8.488281 5.089844 -8.488281 C 2.585938 -8.488281 0.828125 -6.699219 0.828125 -4.148438 C 0.828125 -1.578125 2.570312 0.207031 5.074219 0.207031 Z M 2.203125 -4.785156 C 2.441406 -6.253906 3.558594 -7.226562 5.089844 -7.226562 C 6.605469 -7.226562 7.722656 -6.300781 8.007812 -4.785156 Z M 2.203125 -4.785156 "/></g></g></g><g fill="#2e2e2e" fill-opacity="1"><g transform="translate(234.100787, 193.071143)"><g><path d="M 1.484375 0 L 2.824219 0 L 2.824219 -4.179688 C 2.824219 -6 3.925781 -7.210938 5.472656 -7.210938 C 6.925781 -7.210938 7.816406 -6.160156 7.816406 -4.484375 L 7.816406 0 L 9.15625 0 L 9.15625 -4.609375 C 9.15625 -6.972656 7.847656 -8.488281 5.648438 -8.488281 C 4.53125 -8.488281 3.445312 -8.058594 2.726562 -7.066406 L 2.585938 -8.28125 L 1.484375 -8.28125 Z M 1.484375 0 "/></g></g></g><g fill="#2e2e2e" fill-opacity="1"><g transform="translate(244.581279, 193.071143)"><g><path d="M 5.058594 0 L 6.300781 0 L 6.300781 -1.292969 L 5.121094 -1.292969 C 4.019531 -1.292969 3.511719 -1.851562 3.511719 -3.046875 L 3.511719 -7.050781 L 6.191406 -7.050781 L 6.191406 -8.28125 L 3.511719 -8.28125 L 3.511719 -10.339844 L 2.472656 -10.339844 L 2.34375 -9.222656 C 2.25 -8.472656 2.027344 -8.28125 1.261719 -8.28125 L 0.429688 -8.28125 L 0.429688 -7.050781 L 2.167969 -7.050781 L 2.167969 -2.984375 C 2.167969 -1.085938 3.222656 0 5.058594 0 Z M 5.058594 0 "/></g></g></g><g fill="#2e2e2e" fill-opacity="1"><g transform="translate(251.663984, 193.071143)"><g><path d="M 4.484375 0.207031 C 6.523438 0.207031 7.847656 -0.734375 7.847656 -2.167969 C 7.847656 -3.460938 6.765625 -4.339844 4.675781 -4.753906 C 2.953125 -5.089844 2.359375 -5.425781 2.359375 -6.125 C 2.359375 -6.859375 3.0625 -7.308594 4.261719 -7.308594 C 5.519531 -7.308594 6.269531 -6.8125 6.367188 -5.902344 L 7.691406 -5.902344 C 7.578125 -7.53125 6.285156 -8.488281 4.242188 -8.488281 C 2.25 -8.488281 1.035156 -7.609375 1.035156 -6.125 C 1.035156 -4.816406 2.042969 -4.019531 4.179688 -3.667969 C 5.792969 -3.398438 6.523438 -2.953125 6.523438 -2.203125 C 6.523438 -1.453125 5.757812 -0.988281 4.5 -0.988281 C 3.078125 -0.988281 2.234375 -1.59375 2.1875 -2.601562 L 0.863281 -2.601562 C 0.894531 -0.910156 2.3125 0.207031 4.484375 0.207031 Z M 4.484375 0.207031 "/></g></g></g><g fill="#2e2e2e" fill-opacity="1"><g transform="translate(96.042514, 215.213333)"><g><path d="M 1.484375 0 L 2.824219 0 L 2.824219 -3.84375 C 2.824219 -6.207031 4.003906 -7.035156 5.503906 -7.035156 L 6.316406 -7.035156 L 6.316406 -8.28125 L 5.566406 -8.28125 C 4.164062 -8.28125 3.335938 -7.832031 2.746094 -6.84375 L 2.585938 -8.28125 L 1.484375 -8.28125 Z M 1.484375 0 "/></g></g></g><g fill="#2e2e2e" fill-opacity="1"><g transform="translate(102.997606, 215.213333)"><g><path d="M 5.074219 0.207031 C 6.941406 0.207031 8.472656 -0.796875 9.140625 -2.410156 L 7.625 -2.410156 C 7.117188 -1.53125 6.175781 -1.054688 5.089844 -1.054688 C 3.511719 -1.054688 2.394531 -2.042969 2.1875 -3.605469 L 9.347656 -3.605469 C 9.445312 -6.492188 7.738281 -8.488281 5.089844 -8.488281 C 2.585938 -8.488281 0.828125 -6.699219 0.828125 -4.148438 C 0.828125 -1.578125 2.570312 0.207031 5.074219 0.207031 Z M 2.203125 -4.785156 C 2.441406 -6.253906 3.558594 -7.226562 5.089844 -7.226562 C 6.605469 -7.226562 7.722656 -6.300781 8.007812 -4.785156 Z M 2.203125 -4.785156 "/></g></g></g><g fill="#2e2e2e" fill-opacity="1"><g transform="translate(113.143103, 215.213333)"><g><path d="M 1.484375 0 L 2.824219 0 L 2.824219 -4.402344 C 2.824219 -6.109375 3.78125 -7.210938 5.21875 -7.210938 C 6.605469 -7.210938 7.484375 -6.160156 7.484375 -4.515625 L 7.484375 0 L 8.824219 0 L 8.824219 -4.402344 C 8.824219 -6.109375 9.78125 -7.210938 11.214844 -7.210938 C 12.605469 -7.210938 13.480469 -6.160156 13.480469 -4.515625 L 13.480469 0 L 14.820312 0 L 14.820312 -4.738281 C 14.820312 -7.050781 13.480469 -8.488281 11.390625 -8.488281 C 10.050781 -8.488281 8.964844 -7.914062 8.3125 -6.859375 C 7.753906 -7.929688 6.734375 -8.488281 5.410156 -8.488281 C 4.261719 -8.488281 3.335938 -8.058594 2.710938 -7.242188 L 2.585938 -8.28125 L 1.484375 -8.28125 Z M 1.484375 0 "/></g></g></g><g fill="#2e2e2e" fill-opacity="1"><g transform="translate(129.286571, 215.213333)"><g><path d="M 5.074219 0.207031 C 6.941406 0.207031 8.472656 -0.796875 9.140625 -2.410156 L 7.625 -2.410156 C 7.117188 -1.53125 6.175781 -1.054688 5.089844 -1.054688 C 3.511719 -1.054688 2.394531 -2.042969 2.1875 -3.605469 L 9.347656 -3.605469 C 9.445312 -6.492188 7.738281 -8.488281 5.089844 -8.488281 C 2.585938 -8.488281 0.828125 -6.699219 0.828125 -4.148438 C 0.828125 -1.578125 2.570312 0.207031 5.074219 0.207031 Z M 2.203125 -4.785156 C 2.441406 -6.253906 3.558594 -7.226562 5.089844 -7.226562 C 6.605469 -7.226562 7.722656 -6.300781 8.007812 -4.785156 Z M 2.203125 -4.785156 "/></g></g></g><g fill="#2e2e2e" fill-opacity="1"><g transform="translate(139.432067, 215.213333)"><g><path d="M 1.484375 0 L 2.824219 0 L 2.824219 -4.402344 C 2.824219 -6.109375 3.78125 -7.210938 5.21875 -7.210938 C 6.605469 -7.210938 7.484375 -6.160156 7.484375 -4.515625 L 7.484375 0 L 8.824219 0 L 8.824219 -4.402344 C 8.824219 -6.109375 9.78125 -7.210938 11.214844 -7.210938 C 12.605469 -7.210938 13.480469 -6.160156 13.480469 -4.515625 L 13.480469 0 L 14.820312 0 L 14.820312 -4.738281 C 14.820312 -7.050781 13.480469 -8.488281 11.390625 -8.488281 C 10.050781 -8.488281 8.964844 -7.914062 8.3125 -6.859375 C 7.753906 -7.929688 6.734375 -8.488281 5.410156 -8.488281 C 4.261719 -8.488281 3.335938 -8.058594 2.710938 -7.242188 L 2.585938 -8.28125 L 1.484375 -8.28125 Z M 1.484375 0 "/></g></g></g><g fill="#2e2e2e" fill-opacity="1"><g transform="translate(155.575536, 215.213333)"><g><path d="M 6 0.207031 C 8.441406 0.207031 10.210938 -1.628906 10.210938 -4.148438 C 10.210938 -6.652344 8.441406 -8.488281 6 -8.488281 C 4.691406 -8.488281 3.574219 -7.960938 2.824219 -7.101562 L 2.824219 -11.804688 L 1.484375 -11.804688 L 1.484375 0 L 2.585938 0 L 2.746094 -1.277344 C 3.492188 -0.351562 4.644531 0.207031 6 0.207031 Z M 2.777344 -4.148438 C 2.777344 -5.933594 4.035156 -7.210938 5.824219 -7.210938 C 7.625 -7.210938 8.871094 -5.933594 8.871094 -4.148438 C 8.871094 -2.34375 7.625 -1.085938 5.824219 -1.085938 C 4.035156 -1.085938 2.777344 -2.34375 2.777344 -4.148438 Z M 2.777344 -4.148438 "/></g></g></g><g fill="#2e2e2e" fill-opacity="1"><g transform="translate(166.614351, 215.213333)"><g><path d="M 5.074219 0.207031 C 6.941406 0.207031 8.472656 -0.796875 9.140625 -2.410156 L 7.625 -2.410156 C 7.117188 -1.53125 6.175781 -1.054688 5.089844 -1.054688 C 3.511719 -1.054688 2.394531 -2.042969 2.1875 -3.605469 L 9.347656 -3.605469 C 9.445312 -6.492188 7.738281 -8.488281 5.089844 -8.488281 C 2.585938 -8.488281 0.828125 -6.699219 0.828125 -4.148438 C 0.828125 -1.578125 2.570312 0.207031 5.074219 0.207031 Z M 2.203125 -4.785156 C 2.441406 -6.253906 3.558594 -7.226562 5.089844 -7.226562 C 6.605469 -7.226562 7.722656 -6.300781 8.007812 -4.785156 Z M 2.203125 -4.785156 "/></g></g></g><g fill="#2e2e2e" fill-opacity="1"><g transform="translate(176.759847, 215.213333)"><g><path d="M 1.484375 0 L 2.824219 0 L 2.824219 -3.84375 C 2.824219 -6.207031 4.003906 -7.035156 5.503906 -7.035156 L 6.316406 -7.035156 L 6.316406 -8.28125 L 5.566406 -8.28125 C 4.164062 -8.28125 3.335938 -7.832031 2.746094 -6.84375 L 2.585938 -8.28125 L 1.484375 -8.28125 Z M 1.484375 0 "/></g></g></g><g fill="#2e2e2e" fill-opacity="1"><g transform="translate(183.71494, 215.213333)"><g/></g></g><g fill="#2e2e2e" fill-opacity="1"><g transform="translate(187.671051, 215.213333)"><g><path d="M 5.058594 0 L 6.300781 0 L 6.300781 -1.292969 L 5.121094 -1.292969 C 4.019531 -1.292969 3.511719 -1.851562 3.511719 -3.046875 L 3.511719 -7.050781 L 6.191406 -7.050781 L 6.191406 -8.28125 L 3.511719 -8.28125 L 3.511719 -10.339844 L 2.472656 -10.339844 L 2.34375 -9.222656 C 2.25 -8.472656 2.027344 -8.28125 1.261719 -8.28125 L 0.429688 -8.28125 L 0.429688 -7.050781 L 2.167969 -7.050781 L 2.167969 -2.984375 C 2.167969 -1.085938 3.222656 0 5.058594 0 Z M 5.058594 0 "/></g></g></g><g fill="#2e2e2e" fill-opacity="1"><g transform="translate(194.753755, 215.213333)"><g><path d="M 1.484375 0 L 2.824219 0 L 2.824219 -4.226562 C 2.824219 -6.046875 3.925781 -7.210938 5.488281 -7.210938 C 6.925781 -7.210938 7.816406 -6.191406 7.816406 -4.53125 L 7.816406 0 L 9.15625 0 L 9.15625 -4.660156 C 9.15625 -7.019531 7.847656 -8.488281 5.664062 -8.488281 C 4.59375 -8.488281 3.542969 -8.089844 2.824219 -7.195312 L 2.824219 -11.804688 L 1.484375 -11.804688 Z M 1.484375 0 "/></g></g></g><g fill="#2e2e2e" fill-opacity="1"><g transform="translate(205.234247, 215.213333)"><g><path d="M 1.484375 0 L 2.824219 0 L 2.824219 -8.28125 L 1.484375 -8.28125 Z M 1.070312 -10.6875 C 1.070312 -10.097656 1.5 -9.652344 2.152344 -9.652344 C 2.808594 -9.652344 3.222656 -10.097656 3.222656 -10.6875 C 3.222656 -11.296875 2.808594 -11.742188 2.152344 -11.742188 C 1.5 -11.742188 1.070312 -11.296875 1.070312 -10.6875 Z M 1.070312 -10.6875 "/></g></g></g><g fill="#2e2e2e" fill-opacity="1"><g transform="translate(209.541297, 215.213333)"><g><path d="M 1.484375 0 L 2.824219 0 L 2.824219 -4.179688 C 2.824219 -6 3.925781 -7.210938 5.472656 -7.210938 C 6.925781 -7.210938 7.816406 -6.160156 7.816406 -4.484375 L 7.816406 0 L 9.15625 0 L 9.15625 -4.609375 C 9.15625 -6.972656 7.847656 -8.488281 5.648438 -8.488281 C 4.53125 -8.488281 3.445312 -8.058594 2.726562 -7.066406 L 2.585938 -8.28125 L 1.484375 -8.28125 Z M 1.484375 0 "/></g></g></g><g fill="#2e2e2e" fill-opacity="1"><g transform="translate(220.021789, 215.213333)"><g><path d="M 5.183594 3.398438 C 7.65625 3.398438 9.269531 1.867188 9.269531 -0.480469 L 9.269531 -8.28125 L 8.167969 -8.28125 L 8.023438 -7.164062 C 7.292969 -7.992188 6.207031 -8.488281 4.960938 -8.488281 C 2.601562 -8.488281 0.828125 -6.699219 0.828125 -4.292969 C 0.828125 -1.867188 2.601562 -0.078125 4.960938 -0.078125 C 6.160156 -0.078125 7.195312 -0.542969 7.929688 -1.308594 L 7.929688 -0.527344 C 7.929688 1.179688 6.925781 2.152344 5.183594 2.152344 C 3.828125 2.152344 2.886719 1.53125 2.632812 0.527344 L 1.277344 0.527344 C 1.578125 2.296875 3.078125 3.398438 5.183594 3.398438 Z M 2.167969 -4.292969 C 2.167969 -5.984375 3.398438 -7.195312 5.105469 -7.195312 C 6.828125 -7.195312 8.039062 -5.984375 8.039062 -4.292969 C 8.039062 -2.585938 6.828125 -1.386719 5.105469 -1.386719 C 3.398438 -1.386719 2.167969 -2.585938 2.167969 -4.292969 Z M 2.167969 -4.292969 "/></g></g></g><g fill="#2e2e2e" fill-opacity="1"><g transform="translate(230.773467, 215.213333)"><g><path d="M 4.484375 0.207031 C 6.523438 0.207031 7.847656 -0.734375 7.847656 -2.167969 C 7.847656 -3.460938 6.765625 -4.339844 4.675781 -4.753906 C 2.953125 -5.089844 2.359375 -5.425781 2.359375 -6.125 C 2.359375 -6.859375 3.0625 -7.308594 4.261719 -7.308594 C 5.519531 -7.308594 6.269531 -6.8125 6.367188 -5.902344 L 7.691406 -5.902344 C 7.578125 -7.53125 6.285156 -8.488281 4.242188 -8.488281 C 2.25 -8.488281 1.035156 -7.609375 1.035156 -6.125 C 1.035156 -4.816406 2.042969 -4.019531 4.179688 -3.667969 C 5.792969 -3.398438 6.523438 -2.953125 6.523438 -2.203125 C 6.523438 -1.453125 5.757812 -0.988281 4.5 -0.988281 C 3.078125 -0.988281 2.234375 -1.59375 2.1875 -2.601562 L 0.863281 -2.601562 C 0.894531 -0.910156 2.3125 0.207031 4.484375 0.207031 Z M 4.484375 0.207031 "/></g></g></g><g fill="#2e2e2e" fill-opacity="1"><g transform="translate(239.483283, 215.213333)"><g/></g></g><g fill="#2e2e2e" fill-opacity="1"><g transform="translate(243.439394, 215.213333)"><g><path d="M 5.058594 0 L 6.300781 0 L 6.300781 -1.292969 L 5.121094 -1.292969 C 4.019531 -1.292969 3.511719 -1.851562 3.511719 -3.046875 L 3.511719 -7.050781 L 6.191406 -7.050781 L 6.191406 -8.28125 L 3.511719 -8.28125 L 3.511719 -10.339844 L 2.472656 -10.339844 L 2.34375 -9.222656 C 2.25 -8.472656 2.027344 -8.28125 1.261719 -8.28125 L 0.429688 -8.28125 L 0.429688 -7.050781 L 2.167969 -7.050781 L 2.167969 -2.984375 C 2.167969 -1.085938 3.222656 0 5.058594 0 Z M 5.058594 0 "/></g></g></g><g fill="#2e2e2e" fill-opacity="1"><g transform="translate(250.522098, 215.213333)"><g><path d="M 1.484375 0 L 2.824219 0 L 2.824219 -4.226562 C 2.824219 -6.046875 3.925781 -7.210938 5.488281 -7.210938 C 6.925781 -7.210938 7.816406 -6.191406 7.816406 -4.53125 L 7.816406 0 L 9.15625 0 L 9.15625 -4.660156 C 9.15625 -7.019531 7.847656 -8.488281 5.664062 -8.488281 C 4.59375 -8.488281 3.542969 -8.089844 2.824219 -7.195312 L 2.824219 -11.804688 L 1.484375 -11.804688 Z M 1.484375 0 "/></g></g></g><g fill="#2e2e2e" fill-opacity="1"><g transform="translate(261.00259, 215.213333)"><g><path d="M 4.195312 0.128906 C 5.535156 0.128906 6.589844 -0.304688 7.339844 -1.148438 L 7.484375 0 L 8.582031 0 L 8.582031 -5.265625 C 8.582031 -7.179688 7.132812 -8.488281 4.960938 -8.488281 C 3.160156 -8.488281 1.804688 -7.515625 1.4375 -5.917969 L 2.792969 -5.917969 C 3.0625 -6.734375 3.910156 -7.242188 4.976562 -7.242188 C 6.382812 -7.242188 7.242188 -6.460938 7.242188 -5.167969 L 7.242188 -4.867188 L 3.859375 -4.867188 C 2.136719 -4.867188 1.003906 -3.894531 1.003906 -2.394531 C 1.003906 -0.828125 2.203125 0.128906 4.195312 0.128906 Z M 2.34375 -2.410156 C 2.34375 -3.191406 2.984375 -3.683594 3.910156 -3.683594 L 7.257812 -3.683594 C 7.210938 -2.152344 5.96875 -1.070312 4.242188 -1.070312 C 3.078125 -1.070312 2.34375 -1.59375 2.34375 -2.410156 Z M 2.34375 -2.410156 "/></g></g></g><g fill="#2e2e2e" fill-opacity="1"><g transform="translate(270.892863, 215.213333)"><g><path d="M 5.058594 0 L 6.300781 0 L 6.300781 -1.292969 L 5.121094 -1.292969 C 4.019531 -1.292969 3.511719 -1.851562 3.511719 -3.046875 L 3.511719 -7.050781 L 6.191406 -7.050781 L 6.191406 -8.28125 L 3.511719 -8.28125 L 3.511719 -10.339844 L 2.472656 -10.339844 L 2.34375 -9.222656 C 2.25 -8.472656 2.027344 -8.28125 1.261719 -8.28125 L 0.429688 -8.28125 L 0.429688 -7.050781 L 2.167969 -7.050781 L 2.167969 -2.984375 C 2.167969 -1.085938 3.222656 0 5.058594 0 Z M 5.058594 0 "/></g></g></g><g fill="#2e2e2e" fill-opacity="1"><g transform="translate(85.251936, 237.355523)"><g><path d="M 5.058594 0 L 6.300781 0 L 6.300781 -1.292969 L 5.121094 -1.292969 C 4.019531 -1.292969 3.511719 -1.851562 3.511719 -3.046875 L 3.511719 -7.050781 L 6.191406 -7.050781 L 6.191406 -8.28125 L 3.511719 -8.28125 L 3.511719 -10.339844 L 2.472656 -10.339844 L 2.34375 -9.222656 C 2.25 -8.472656 2.027344 -8.28125 1.261719 -8.28125 L 0.429688 -8.28125 L 0.429688 -7.050781 L 2.167969 -7.050781 L 2.167969 -2.984375 C 2.167969 -1.085938 3.222656 0 5.058594 0 Z M 5.058594 0 "/></g></g></g><g fill="#2e2e2e" fill-opacity="1"><g transform="translate(92.334641, 237.355523)"><g><path d="M 1.484375 0 L 2.824219 0 L 2.824219 -4.226562 C 2.824219 -6.046875 3.925781 -7.210938 5.488281 -7.210938 C 6.925781 -7.210938 7.816406 -6.191406 7.816406 -4.53125 L 7.816406 0 L 9.15625 0 L 9.15625 -4.660156 C 9.15625 -7.019531 7.847656 -8.488281 5.664062 -8.488281 C 4.59375 -8.488281 3.542969 -8.089844 2.824219 -7.195312 L 2.824219 -11.804688 L 1.484375 -11.804688 Z M 1.484375 0 "/></g></g></g><g fill="#2e2e2e" fill-opacity="1"><g transform="translate(102.815133, 237.355523)"><g><path d="M 5.074219 0.207031 C 6.941406 0.207031 8.472656 -0.796875 9.140625 -2.410156 L 7.625 -2.410156 C 7.117188 -1.53125 6.175781 -1.054688 5.089844 -1.054688 C 3.511719 -1.054688 2.394531 -2.042969 2.1875 -3.605469 L 9.347656 -3.605469 C 9.445312 -6.492188 7.738281 -8.488281 5.089844 -8.488281 C 2.585938 -8.488281 0.828125 -6.699219 0.828125 -4.148438 C 0.828125 -1.578125 2.570312 0.207031 5.074219 0.207031 Z M 2.203125 -4.785156 C 2.441406 -6.253906 3.558594 -7.226562 5.089844 -7.226562 C 6.605469 -7.226562 7.722656 -6.300781 8.007812 -4.785156 Z M 2.203125 -4.785156 "/></g></g></g><g fill="#2e2e2e" fill-opacity="1"><g transform="translate(112.960629, 237.355523)"><g><path d="M 1.195312 3.191406 L 2.136719 3.191406 C 3.683594 3.191406 4.433594 2.808594 5.007812 1.292969 L 8.808594 -8.28125 L 7.386719 -8.28125 L 5.839844 -4.371094 L 4.835938 -1.804688 L 3.621094 -4.371094 L 1.753906 -8.28125 L 0.253906 -8.28125 L 4.179688 -0.191406 L 3.796875 0.78125 C 3.445312 1.707031 3.078125 1.929688 2.011719 1.929688 L 1.195312 1.929688 Z M 1.195312 3.191406 "/></g></g></g><g fill="#2e2e2e" fill-opacity="1"><g transform="translate(122.021393, 237.355523)"><g/></g></g><g fill="#2e2e2e" fill-opacity="1"><g transform="translate(125.977504, 237.355523)"><g><path d="M 1.484375 0 L 2.824219 0 L 2.824219 -4.179688 C 2.824219 -6 3.925781 -7.210938 5.472656 -7.210938 C 6.925781 -7.210938 7.816406 -6.160156 7.816406 -4.484375 L 7.816406 0 L 9.15625 0 L 9.15625 -4.609375 C 9.15625 -6.972656 7.847656 -8.488281 5.648438 -8.488281 C 4.53125 -8.488281 3.445312 -8.058594 2.726562 -7.066406 L 2.585938 -8.28125 L 1.484375 -8.28125 Z M 1.484375 0 "/></g></g></g><g fill="#2e2e2e" fill-opacity="1"><g transform="translate(136.457996, 237.355523)"><g><path d="M 5.074219 0.207031 C 6.941406 0.207031 8.472656 -0.796875 9.140625 -2.410156 L 7.625 -2.410156 C 7.117188 -1.53125 6.175781 -1.054688 5.089844 -1.054688 C 3.511719 -1.054688 2.394531 -2.042969 2.1875 -3.605469 L 9.347656 -3.605469 C 9.445312 -6.492188 7.738281 -8.488281 5.089844 -8.488281 C 2.585938 -8.488281 0.828125 -6.699219 0.828125 -4.148438 C 0.828125 -1.578125 2.570312 0.207031 5.074219 0.207031 Z M 2.203125 -4.785156 C 2.441406 -6.253906 3.558594 -7.226562 5.089844 -7.226562 C 6.605469 -7.226562 7.722656 -6.300781 8.007812 -4.785156 Z M 2.203125 -4.785156 "/></g></g></g><g fill="#2e2e2e" fill-opacity="1"><g transform="translate(146.603493, 237.355523)"><g><path d="M 5.074219 0.207031 C 6.941406 0.207031 8.472656 -0.796875 9.140625 -2.410156 L 7.625 -2.410156 C 7.117188 -1.53125 6.175781 -1.054688 5.089844 -1.054688 C 3.511719 -1.054688 2.394531 -2.042969 2.1875 -3.605469 L 9.347656 -3.605469 C 9.445312 -6.492188 7.738281 -8.488281 5.089844 -8.488281 C 2.585938 -8.488281 0.828125 -6.699219 0.828125 -4.148438 C 0.828125 -1.578125 2.570312 0.207031 5.074219 0.207031 Z M 2.203125 -4.785156 C 2.441406 -6.253906 3.558594 -7.226562 5.089844 -7.226562 C 6.605469 -7.226562 7.722656 -6.300781 8.007812 -4.785156 Z M 2.203125 -4.785156 "/></g></g></g><g fill="#2e2e2e" fill-opacity="1"><g transform="translate(156.748989, 237.355523)"><g><path d="M 5.058594 0.207031 C 6.398438 0.207031 7.546875 -0.351562 8.296875 -1.277344 L 8.457031 0 L 9.558594 0 L 9.558594 -11.804688 L 8.214844 -11.804688 L 8.214844 -7.117188 C 7.464844 -7.976562 6.351562 -8.488281 5.058594 -8.488281 C 2.601562 -8.488281 0.828125 -6.652344 0.828125 -4.148438 C 0.828125 -1.628906 2.601562 0.207031 5.058594 0.207031 Z M 2.167969 -4.148438 C 2.167969 -5.933594 3.429688 -7.210938 5.21875 -7.210938 C 7.019531 -7.210938 8.265625 -5.933594 8.265625 -4.148438 C 8.265625 -2.34375 7.019531 -1.085938 5.21875 -1.085938 C 3.429688 -1.085938 2.167969 -2.34375 2.167969 -4.148438 Z M 2.167969 -4.148438 "/></g></g></g><g fill="#2e2e2e" fill-opacity="1"><g transform="translate(167.787804, 237.355523)"><g/></g></g><g fill="#2e2e2e" fill-opacity="1"><g transform="translate(171.743915, 237.355523)"><g><path d="M 5.058594 0 L 6.300781 0 L 6.300781 -1.292969 L 5.121094 -1.292969 C 4.019531 -1.292969 3.511719 -1.851562 3.511719 -3.046875 L 3.511719 -7.050781 L 6.191406 -7.050781 L 6.191406 -8.28125 L 3.511719 -8.28125 L 3.511719 -10.339844 L 2.472656 -10.339844 L 2.34375 -9.222656 C 2.25 -8.472656 2.027344 -8.28125 1.261719 -8.28125 L 0.429688 -8.28125 L 0.429688 -7.050781 L 2.167969 -7.050781 L 2.167969 -2.984375 C 2.167969 -1.085938 3.222656 0 5.058594 0 Z M 5.058594 0 "/></g></g></g><g fill="#2e2e2e" fill-opacity="1"><g transform="translate(178.826619, 237.355523)"><g><path d="M 5.21875 0.207031 C 7.785156 0.207031 9.605469 -1.613281 9.605469 -4.148438 C 9.605469 -6.683594 7.785156 -8.488281 5.21875 -8.488281 C 2.648438 -8.488281 0.828125 -6.683594 0.828125 -4.148438 C 0.828125 -1.613281 2.648438 0.207031 5.21875 0.207031 Z M 2.167969 -4.148438 C 2.167969 -5.949219 3.429688 -7.210938 5.21875 -7.210938 C 7.003906 -7.210938 8.265625 -5.949219 8.265625 -4.148438 C 8.265625 -2.328125 7.003906 -1.085938 5.21875 -1.085938 C 3.429688 -1.085938 2.167969 -2.328125 2.167969 -4.148438 Z M 2.167969 -4.148438 "/></g></g></g><g fill="#2e2e2e" fill-opacity="1"><g transform="translate(189.259254, 237.355523)"><g/></g></g><g fill="#2e2e2e" fill-opacity="1"><g transform="translate(193.215365, 237.355523)"><g><path d="M 4.195312 0.128906 C 5.535156 0.128906 6.589844 -0.304688 7.339844 -1.148438 L 7.484375 0 L 8.582031 0 L 8.582031 -5.265625 C 8.582031 -7.179688 7.132812 -8.488281 4.960938 -8.488281 C 3.160156 -8.488281 1.804688 -7.515625 1.4375 -5.917969 L 2.792969 -5.917969 C 3.0625 -6.734375 3.910156 -7.242188 4.976562 -7.242188 C 6.382812 -7.242188 7.242188 -6.460938 7.242188 -5.167969 L 7.242188 -4.867188 L 3.859375 -4.867188 C 2.136719 -4.867188 1.003906 -3.894531 1.003906 -2.394531 C 1.003906 -0.828125 2.203125 0.128906 4.195312 0.128906 Z M 2.34375 -2.410156 C 2.34375 -3.191406 2.984375 -3.683594 3.910156 -3.683594 L 7.257812 -3.683594 C 7.210938 -2.152344 5.96875 -1.070312 4.242188 -1.070312 C 3.078125 -1.070312 2.34375 -1.59375 2.34375 -2.410156 Z M 2.34375 -2.410156 "/></g></g></g><g fill="#2e2e2e" fill-opacity="1"><g transform="translate(203.105628, 237.355523)"><g><path d="M 5.089844 0.207031 C 7.164062 0.207031 8.773438 -1.035156 9.332031 -3.046875 L 7.914062 -3.046875 C 7.5 -1.851562 6.429688 -1.085938 5.089844 -1.085938 C 3.382812 -1.085938 2.167969 -2.34375 2.167969 -4.148438 C 2.167969 -5.933594 3.382812 -7.210938 5.089844 -7.210938 C 6.351562 -7.210938 7.386719 -6.523438 7.882812 -5.375 L 9.238281 -5.375 C 8.824219 -7.242188 7.148438 -8.488281 5.089844 -8.488281 C 2.601562 -8.488281 0.828125 -6.667969 0.828125 -4.148438 C 0.828125 -1.613281 2.601562 0.207031 5.089844 0.207031 Z M 5.089844 0.207031 "/></g></g></g><g fill="#2e2e2e" fill-opacity="1"><g transform="translate(213.21922, 237.355523)"><g><path d="M 5.089844 0.207031 C 7.164062 0.207031 8.773438 -1.035156 9.332031 -3.046875 L 7.914062 -3.046875 C 7.5 -1.851562 6.429688 -1.085938 5.089844 -1.085938 C 3.382812 -1.085938 2.167969 -2.34375 2.167969 -4.148438 C 2.167969 -5.933594 3.382812 -7.210938 5.089844 -7.210938 C 6.351562 -7.210938 7.386719 -6.523438 7.882812 -5.375 L 9.238281 -5.375 C 8.824219 -7.242188 7.148438 -8.488281 5.089844 -8.488281 C 2.601562 -8.488281 0.828125 -6.667969 0.828125 -4.148438 C 0.828125 -1.613281 2.601562 0.207031 5.089844 0.207031 Z M 5.089844 0.207031 "/></g></g></g><g fill="#2e2e2e" fill-opacity="1"><g transform="translate(223.332811, 237.355523)"><g><path d="M 5.21875 0.207031 C 7.785156 0.207031 9.605469 -1.613281 9.605469 -4.148438 C 9.605469 -6.683594 7.785156 -8.488281 5.21875 -8.488281 C 2.648438 -8.488281 0.828125 -6.683594 0.828125 -4.148438 C 0.828125 -1.613281 2.648438 0.207031 5.21875 0.207031 Z M 2.167969 -4.148438 C 2.167969 -5.949219 3.429688 -7.210938 5.21875 -7.210938 C 7.003906 -7.210938 8.265625 -5.949219 8.265625 -4.148438 C 8.265625 -2.328125 7.003906 -1.085938 5.21875 -1.085938 C 3.429688 -1.085938 2.167969 -2.328125 2.167969 -4.148438 Z M 2.167969 -4.148438 "/></g></g></g><g fill="#2e2e2e" fill-opacity="1"><g transform="translate(233.765445, 237.355523)"><g><path d="M 1.484375 0 L 2.824219 0 L 2.824219 -4.402344 C 2.824219 -6.109375 3.78125 -7.210938 5.21875 -7.210938 C 6.605469 -7.210938 7.484375 -6.160156 7.484375 -4.515625 L 7.484375 0 L 8.824219 0 L 8.824219 -4.402344 C 8.824219 -6.109375 9.78125 -7.210938 11.214844 -7.210938 C 12.605469 -7.210938 13.480469 -6.160156 13.480469 -4.515625 L 13.480469 0 L 14.820312 0 L 14.820312 -4.738281 C 14.820312 -7.050781 13.480469 -8.488281 11.390625 -8.488281 C 10.050781 -8.488281 8.964844 -7.914062 8.3125 -6.859375 C 7.753906 -7.929688 6.734375 -8.488281 5.410156 -8.488281 C 4.261719 -8.488281 3.335938 -8.058594 2.710938 -7.242188 L 2.585938 -8.28125 L 1.484375 -8.28125 Z M 1.484375 0 "/></g></g></g><g fill="#2e2e2e" fill-opacity="1"><g transform="translate(249.908905, 237.355523)"><g><path d="M 6 0.207031 C 8.441406 0.207031 10.210938 -1.628906 10.210938 -4.148438 C 10.210938 -6.652344 8.441406 -8.488281 6 -8.488281 C 4.644531 -8.488281 3.492188 -7.929688 2.746094 -7.003906 L 2.585938 -8.28125 L 1.484375 -8.28125 L 1.484375 3.191406 L 2.824219 3.191406 L 2.824219 -1.179688 C 3.574219 -0.320312 4.691406 0.207031 6 0.207031 Z M 2.777344 -4.148438 C 2.777344 -5.933594 4.035156 -7.210938 5.824219 -7.210938 C 7.625 -7.210938 8.871094 -5.933594 8.871094 -4.148438 C 8.871094 -2.34375 7.625 -1.085938 5.824219 -1.085938 C 4.035156 -1.085938 2.777344 -2.34375 2.777344 -4.148438 Z M 2.777344 -4.148438 "/></g></g></g><g fill="#2e2e2e" fill-opacity="1"><g transform="translate(260.947711, 237.355523)"><g><path d="M 1.484375 0 L 2.824219 0 L 2.824219 -11.804688 L 1.484375 -11.804688 Z M 1.484375 0 "/></g></g></g><g fill="#2e2e2e" fill-opacity="1"><g transform="translate(265.254752, 237.355523)"><g><path d="M 1.484375 0 L 2.824219 0 L 2.824219 -8.28125 L 1.484375 -8.28125 Z M 1.070312 -10.6875 C 1.070312 -10.097656 1.5 -9.652344 2.152344 -9.652344 C 2.808594 -9.652344 3.222656 -10.097656 3.222656 -10.6875 C 3.222656 -11.296875 2.808594 -11.742188 2.152344 -11.742188 C 1.5 -11.742188 1.070312 -11.296875 1.070312 -10.6875 Z M 1.070312 -10.6875 "/></g></g></g><g fill="#2e2e2e" fill-opacity="1"><g transform="translate(269.561793, 237.355523)"><g><path d="M 4.484375 0.207031 C 6.523438 0.207031 7.847656 -0.734375 7.847656 -2.167969 C 7.847656 -3.460938 6.765625 -4.339844 4.675781 -4.753906 C 2.953125 -5.089844 2.359375 -5.425781 2.359375 -6.125 C 2.359375 -6.859375 3.0625 -7.308594 4.261719 -7.308594 C 5.519531 -7.308594 6.269531 -6.8125 6.367188 -5.902344 L 7.691406 -5.902344 C 7.578125 -7.53125 6.285156 -8.488281 4.242188 -8.488281 C 2.25 -8.488281 1.035156 -7.609375 1.035156 -6.125 C 1.035156 -4.816406 2.042969 -4.019531 4.179688 -3.667969 C 5.792969 -3.398438 6.523438 -2.953125 6.523438 -2.203125 C 6.523438 -1.453125 5.757812 -0.988281 4.5 -0.988281 C 3.078125 -0.988281 2.234375 -1.59375 2.1875 -2.601562 L 0.863281 -2.601562 C 0.894531 -0.910156 2.3125 0.207031 4.484375 0.207031 Z M 4.484375 0.207031 "/></g></g></g><g fill="#2e2e2e" fill-opacity="1"><g transform="translate(278.271609, 237.355523)"><g><path d="M 1.484375 0 L 2.824219 0 L 2.824219 -4.226562 C 2.824219 -6.046875 3.925781 -7.210938 5.488281 -7.210938 C 6.925781 -7.210938 7.816406 -6.191406 7.816406 -4.53125 L 7.816406 0 L 9.15625 0 L 9.15625 -4.660156 C 9.15625 -7.019531 7.847656 -8.488281 5.664062 -8.488281 C 4.59375 -8.488281 3.542969 -8.089844 2.824219 -7.195312 L 2.824219 -11.804688 L 1.484375 -11.804688 Z M 1.484375 0 "/></g></g></g><g fill="#2e2e2e" fill-opacity="1"><g transform="translate(126.89945, 259.497713)"><g><path d="M 3.238281 0 L 4.53125 0 L 6.925781 -6.300781 L 8.007812 -3.414062 L 9.332031 0 L 10.609375 0 L 13.578125 -8.28125 L 12.171875 -8.28125 L 10.832031 -4.53125 L 9.957031 -2.011719 L 7.53125 -8.28125 L 6.300781 -8.28125 L 4.882812 -4.53125 L 3.910156 -1.996094 L 3.015625 -4.53125 L 1.691406 -8.28125 L 0.269531 -8.28125 Z M 3.238281 0 "/></g></g></g><g fill="#2e2e2e" fill-opacity="1"><g transform="translate(140.745825, 259.497713)"><g><path d="M 1.484375 0 L 2.824219 0 L 2.824219 -8.28125 L 1.484375 -8.28125 Z M 1.070312 -10.6875 C 1.070312 -10.097656 1.5 -9.652344 2.152344 -9.652344 C 2.808594 -9.652344 3.222656 -10.097656 3.222656 -10.6875 C 3.222656 -11.296875 2.808594 -11.742188 2.152344 -11.742188 C 1.5 -11.742188 1.070312 -11.296875 1.070312 -10.6875 Z M 1.070312 -10.6875 "/></g></g></g><g fill="#2e2e2e" fill-opacity="1"><g transform="translate(145.052875, 259.497713)"><g><path d="M 5.058594 0 L 6.300781 0 L 6.300781 -1.292969 L 5.121094 -1.292969 C 4.019531 -1.292969 3.511719 -1.851562 3.511719 -3.046875 L 3.511719 -7.050781 L 6.191406 -7.050781 L 6.191406 -8.28125 L 3.511719 -8.28125 L 3.511719 -10.339844 L 2.472656 -10.339844 L 2.34375 -9.222656 C 2.25 -8.472656 2.027344 -8.28125 1.261719 -8.28125 L 0.429688 -8.28125 L 0.429688 -7.050781 L 2.167969 -7.050781 L 2.167969 -2.984375 C 2.167969 -1.085938 3.222656 0 5.058594 0 Z M 5.058594 0 "/></g></g></g><g fill="#2e2e2e" fill-opacity="1"><g transform="translate(152.13558, 259.497713)"><g><path d="M 1.484375 0 L 2.824219 0 L 2.824219 -4.226562 C 2.824219 -6.046875 3.925781 -7.210938 5.488281 -7.210938 C 6.925781 -7.210938 7.816406 -6.191406 7.816406 -4.53125 L 7.816406 0 L 9.15625 0 L 9.15625 -4.660156 C 9.15625 -7.019531 7.847656 -8.488281 5.664062 -8.488281 C 4.59375 -8.488281 3.542969 -8.089844 2.824219 -7.195312 L 2.824219 -11.804688 L 1.484375 -11.804688 Z M 1.484375 0 "/></g></g></g><g fill="#2e2e2e" fill-opacity="1"><g transform="translate(162.616072, 259.497713)"><g><path d="M 1.484375 0 L 2.824219 0 L 2.824219 -8.28125 L 1.484375 -8.28125 Z M 1.070312 -10.6875 C 1.070312 -10.097656 1.5 -9.652344 2.152344 -9.652344 C 2.808594 -9.652344 3.222656 -10.097656 3.222656 -10.6875 C 3.222656 -11.296875 2.808594 -11.742188 2.152344 -11.742188 C 1.5 -11.742188 1.070312 -11.296875 1.070312 -10.6875 Z M 1.070312 -10.6875 "/></g></g></g><g fill="#2e2e2e" fill-opacity="1"><g transform="translate(166.923122, 259.497713)"><g><path d="M 1.484375 0 L 2.824219 0 L 2.824219 -4.179688 C 2.824219 -6 3.925781 -7.210938 5.472656 -7.210938 C 6.925781 -7.210938 7.816406 -6.160156 7.816406 -4.484375 L 7.816406 0 L 9.15625 0 L 9.15625 -4.609375 C 9.15625 -6.972656 7.847656 -8.488281 5.648438 -8.488281 C 4.53125 -8.488281 3.445312 -8.058594 2.726562 -7.066406 L 2.585938 -8.28125 L 1.484375 -8.28125 Z M 1.484375 0 "/></g></g></g><g fill="#2e2e2e" fill-opacity="1"><g transform="translate(177.403614, 259.497713)"><g/></g></g><g fill="#2e2e2e" fill-opacity="1"><g transform="translate(181.359725, 259.497713)"><g><path d="M 5.058594 0 L 6.300781 0 L 6.300781 -1.292969 L 5.121094 -1.292969 C 4.019531 -1.292969 3.511719 -1.851562 3.511719 -3.046875 L 3.511719 -7.050781 L 6.191406 -7.050781 L 6.191406 -8.28125 L 3.511719 -8.28125 L 3.511719 -10.339844 L 2.472656 -10.339844 L 2.34375 -9.222656 C 2.25 -8.472656 2.027344 -8.28125 1.261719 -8.28125 L 0.429688 -8.28125 L 0.429688 -7.050781 L 2.167969 -7.050781 L 2.167969 -2.984375 C 2.167969 -1.085938 3.222656 0 5.058594 0 Z M 5.058594 0 "/></g></g></g><g fill="#2e2e2e" fill-opacity="1"><g transform="translate(188.442429, 259.497713)"><g><path d="M 1.484375 0 L 2.824219 0 L 2.824219 -4.226562 C 2.824219 -6.046875 3.925781 -7.210938 5.488281 -7.210938 C 6.925781 -7.210938 7.816406 -6.191406 7.816406 -4.53125 L 7.816406 0 L 9.15625 0 L 9.15625 -4.660156 C 9.15625 -7.019531 7.847656 -8.488281 5.664062 -8.488281 C 4.59375 -8.488281 3.542969 -8.089844 2.824219 -7.195312 L 2.824219 -11.804688 L 1.484375 -11.804688 Z M 1.484375 0 "/></g></g></g><g fill="#2e2e2e" fill-opacity="1"><g transform="translate(198.922921, 259.497713)"><g><path d="M 5.074219 0.207031 C 6.941406 0.207031 8.472656 -0.796875 9.140625 -2.410156 L 7.625 -2.410156 C 7.117188 -1.53125 6.175781 -1.054688 5.089844 -1.054688 C 3.511719 -1.054688 2.394531 -2.042969 2.1875 -3.605469 L 9.347656 -3.605469 C 9.445312 -6.492188 7.738281 -8.488281 5.089844 -8.488281 C 2.585938 -8.488281 0.828125 -6.699219 0.828125 -4.148438 C 0.828125 -1.578125 2.570312 0.207031 5.074219 0.207031 Z M 2.203125 -4.785156 C 2.441406 -6.253906 3.558594 -7.226562 5.089844 -7.226562 C 6.605469 -7.226562 7.722656 -6.300781 8.007812 -4.785156 Z M 2.203125 -4.785156 "/></g></g></g><g fill="#2e2e2e" fill-opacity="1"><g transform="translate(209.068417, 259.497713)"><g/></g></g><g fill="#2e2e2e" fill-opacity="1"><g transform="translate(213.024528, 259.497713)"><g><path d="M 5.058594 0.207031 C 6.398438 0.207031 7.546875 -0.351562 8.296875 -1.277344 L 8.457031 0 L 9.558594 0 L 9.558594 -11.804688 L 8.214844 -11.804688 L 8.214844 -7.117188 C 7.464844 -7.976562 6.351562 -8.488281 5.058594 -8.488281 C 2.601562 -8.488281 0.828125 -6.652344 0.828125 -4.148438 C 0.828125 -1.628906 2.601562 0.207031 5.058594 0.207031 Z M 2.167969 -4.148438 C 2.167969 -5.933594 3.429688 -7.210938 5.21875 -7.210938 C 7.019531 -7.210938 8.265625 -5.933594 8.265625 -4.148438 C 8.265625 -2.34375 7.019531 -1.085938 5.21875 -1.085938 C 3.429688 -1.085938 2.167969 -2.34375 2.167969 -4.148438 Z M 2.167969 -4.148438 "/></g></g></g><g fill="#2e2e2e" fill-opacity="1"><g transform="translate(224.063344, 259.497713)"><g><path d="M 4.195312 0.128906 C 5.535156 0.128906 6.589844 -0.304688 7.339844 -1.148438 L 7.484375 0 L 8.582031 0 L 8.582031 -5.265625 C 8.582031 -7.179688 7.132812 -8.488281 4.960938 -8.488281 C 3.160156 -8.488281 1.804688 -7.515625 1.4375 -5.917969 L 2.792969 -5.917969 C 3.0625 -6.734375 3.910156 -7.242188 4.976562 -7.242188 C 6.382812 -7.242188 7.242188 -6.460938 7.242188 -5.167969 L 7.242188 -4.867188 L 3.859375 -4.867188 C 2.136719 -4.867188 1.003906 -3.894531 1.003906 -2.394531 C 1.003906 -0.828125 2.203125 0.128906 4.195312 0.128906 Z M 2.34375 -2.410156 C 2.34375 -3.191406 2.984375 -3.683594 3.910156 -3.683594 L 7.257812 -3.683594 C 7.210938 -2.152344 5.96875 -1.070312 4.242188 -1.070312 C 3.078125 -1.070312 2.34375 -1.59375 2.34375 -2.410156 Z M 2.34375 -2.410156 "/></g></g></g><g fill="#2e2e2e" fill-opacity="1"><g transform="translate(233.953607, 259.497713)"><g><path d="M 1.195312 3.191406 L 2.136719 3.191406 C 3.683594 3.191406 4.433594 2.808594 5.007812 1.292969 L 8.808594 -8.28125 L 7.386719 -8.28125 L 5.839844 -4.371094 L 4.835938 -1.804688 L 3.621094 -4.371094 L 1.753906 -8.28125 L 0.253906 -8.28125 L 4.179688 -0.191406 L 3.796875 0.78125 C 3.445312 1.707031 3.078125 1.929688 2.011719 1.929688 L 1.195312 1.929688 Z M 1.195312 3.191406 "/></g></g></g><g fill="#2e2e2e" fill-opacity="1"><g transform="translate(243.014372, 259.497713)"><g><path d="M 2.042969 0.128906 C 2.695312 0.128906 3.128906 -0.320312 3.128906 -0.925781 C 3.128906 -1.53125 2.695312 -1.960938 2.042969 -1.960938 C 1.402344 -1.960938 0.972656 -1.53125 0.972656 -0.925781 C 0.972656 -0.320312 1.402344 0.128906 2.042969 0.128906 Z M 2.042969 0.128906 "/></g></g></g></svg>