<svg xmlns="http://www.w3.org/2000/svg" xmlns:xlink="http://www.w3.org/1999/xlink" width="500" zoomAndPan="magnify" viewBox="0 0 375 374.999991" height="500" preserveAspectRatio="xMidYMid meet" version="1.0"><defs><g/><clipPath id="ef6bcff3bc"><path d="M 130 223 L 265 223 L 265 369 L 130 369 Z M 130 223 " clip-rule="nonzero"/></clipPath><clipPath id="82b17e3b91"><path d="M 141.085938 213.105469 L 274.292969 235.027344 L 251.273438 374.898438 L 118.066406 352.972656 Z M 141.085938 213.105469 " clip-rule="nonzero"/></clipPath><clipPath id="72bfad1fd0"><path d="M 141.085938 213.105469 L 274.292969 235.027344 L 251.273438 374.898438 L 118.066406 352.972656 Z M 141.085938 213.105469 " clip-rule="nonzero"/></clipPath><clipPath id="950b43636e"><path d="M 168 269 L 227 269 L 227 302 L 168 302 Z M 168 269 " clip-rule="nonzero"/></clipPath><clipPath id="eb9dbc1a97"><path d="M 141.085938 213.105469 L 274.292969 235.027344 L 251.273438 374.898438 L 118.066406 352.972656 Z M 141.085938 213.105469 " clip-rule="nonzero"/></clipPath><clipPath id="c67e5d678f"><path d="M 141.085938 213.105469 L 274.292969 235.027344 L 251.273438 374.898438 L 118.066406 352.972656 Z M 141.085938 213.105469 " clip-rule="nonzero"/></clipPath><clipPath id="cc94bb8c52"><path d="M 154 288 L 236 288 L 236 316 L 154 316 Z M 154 288 " clip-rule="nonzero"/></clipPath><clipPath id="693dc5b63f"><path d="M 141.085938 213.105469 L 274.292969 235.027344 L 251.273438 374.898438 L 118.066406 352.972656 Z M 141.085938 213.105469 " clip-rule="nonzero"/></clipPath><clipPath id="96f5d9916c"><path d="M 141.085938 213.105469 L 274.292969 235.027344 L 251.273438 374.898438 L 118.066406 352.972656 Z M 141.085938 213.105469 " clip-rule="nonzero"/></clipPath><clipPath id="2ca312a872"><path d="M 166 295 L 225 295 L 225 317 L 166 317 Z M 166 295 " clip-rule="nonzero"/></clipPath><clipPath id="09d45231c6"><path d="M 141.085938 213.105469 L 274.292969 235.027344 L 251.273438 374.898438 L 118.066406 352.972656 Z M 141.085938 213.105469 " clip-rule="nonzero"/></clipPath><clipPath id="9955ba573e"><path d="M 141.085938 213.105469 L 274.292969 235.027344 L 251.273438 374.898438 L 118.066406 352.972656 Z M 141.085938 213.105469 " clip-rule="nonzero"/></clipPath><clipPath id="afea385a71"><path d="M 173 274 L 222 274 L 222 297 L 173 297 Z M 173 274 " clip-rule="nonzero"/></clipPath><clipPath id="5e93335857"><path d="M 141.085938 213.105469 L 274.292969 235.027344 L 251.273438 374.898438 L 118.066406 352.972656 Z M 141.085938 213.105469 " clip-rule="nonzero"/></clipPath><clipPath id="55a76125f1"><path d="M 141.085938 213.105469 L 274.292969 235.027344 L 251.273438 374.898438 L 118.066406 352.972656 Z M 141.085938 213.105469 " clip-rule="nonzero"/></clipPath></defs><rect x="-37.5" width="450" fill="#ffffff" y="-37.499999" height="449.999989" fill-opacity="1"/><rect x="-37.5" width="450" fill="#ffffff" y="-37.499999" height="449.999989" fill-opacity="1"/><g fill="#2e2e2e" fill-opacity="1"><g transform="translate(77.167639, 29.458539)"><g><path d="M 10.960938 0.300781 C 6.085938 0.34375 2.632812 -1.984375 1.425781 -6.128906 L 7.164062 -7.683594 C 7.683594 -6.085938 9.0625 -5.179688 10.960938 -5.179688 C 13.078125 -5.179688 14.285156 -5.652344 14.285156 -6.515625 C 14.285156 -9.019531 0.863281 -8.027344 0.863281 -15.277344 C 0.863281 -19.507812 4.445312 -21.925781 10.832031 -21.925781 C 15.753906 -21.925781 19.207031 -19.59375 20.371094 -15.453125 L 14.675781 -13.898438 C 14.15625 -15.582031 12.773438 -16.53125 10.832031 -16.53125 C 8.71875 -16.53125 7.554688 -16.011719 7.554688 -15.105469 C 7.554688 -12.90625 20.933594 -13.59375 20.933594 -6.34375 C 20.933594 -2.027344 17.351562 0.386719 10.960938 0.300781 Z M 10.960938 0.300781 "/></g></g></g><g fill="#2e2e2e" fill-opacity="1"><g transform="translate(99.17848, 29.458539)"><g><path d="M 17.953125 -5.179688 C 17.738281 -1.683594 14.675781 0.34375 9.453125 0.34375 C 4.316406 0.34375 1.425781 -2.332031 1.425781 -7.121094 L 1.425781 -20.933594 L 8.417969 -20.933594 L 8.417969 -16.011719 L 11.957031 -16.011719 L 11.957031 -10.832031 L 8.417969 -10.832031 L 8.417969 -8.417969 C 8.417969 -6.429688 9.28125 -5.308594 10.746094 -5.308594 C 11.957031 -5.308594 12.6875 -6.042969 12.773438 -7.292969 Z M 17.953125 -5.179688 "/></g></g></g><g fill="#2e2e2e" fill-opacity="1"><g transform="translate(117.7798, 29.458539)"><g><path d="M 19.941406 -17.265625 L 12.90625 -17.265625 L 12.90625 -8.71875 C 12.472656 -6.648438 11.609375 -5.523438 10.402344 -5.523438 C 8.976562 -5.523438 8.15625 -7.121094 8.15625 -9.925781 L 8.15625 -17.265625 L 1.164062 -17.265625 L 1.164062 -7.511719 C 1.164062 -2.503906 3.582031 0.34375 7.855469 0.34375 C 10.1875 0.300781 11.914062 -0.777344 12.90625 -2.761719 L 12.90625 0 L 19.941406 0 Z M 19.941406 -17.265625 "/></g></g></g><g fill="#2e2e2e" fill-opacity="1"><g transform="translate(139.100103, 29.458539)"><g><path d="M 19.808594 -21.578125 L 12.773438 -21.578125 L 12.773438 -14.890625 C 11.78125 -16.660156 10.273438 -17.609375 8.371094 -17.609375 C 3.667969 -17.609375 1.035156 -14.371094 1.035156 -8.632812 C 1.035156 -2.933594 3.667969 0.34375 8.371094 0.34375 C 10.273438 0.34375 11.78125 -0.648438 12.773438 -2.417969 L 12.773438 0 L 19.808594 0 Z M 10.402344 -5.308594 C 8.804688 -5.308594 7.941406 -6.515625 7.941406 -8.632812 C 7.941406 -10.789062 8.804688 -12 10.402344 -12 C 11.957031 -12 12.773438 -10.789062 12.773438 -8.632812 C 12.773438 -6.515625 11.957031 -5.308594 10.402344 -5.308594 Z M 10.402344 -5.308594 "/></g></g></g><g fill="#2e2e2e" fill-opacity="1"><g transform="translate(160.290932, 29.458539)"><g><path d="M 19.808594 -8.632812 C 19.808594 -14.371094 16.402344 -17.609375 10.402344 -17.609375 C 4.402344 -17.609375 1.035156 -14.371094 1.035156 -8.632812 C 1.035156 -2.933594 4.402344 0.34375 10.402344 0.34375 C 14.71875 0.34375 17.867188 -1.554688 19.164062 -4.921875 L 12.214844 -6.085938 C 11.914062 -5.308594 11.308594 -4.878906 10.488281 -4.878906 C 9.410156 -4.878906 8.675781 -5.480469 8.242188 -6.648438 L 19.550781 -6.648438 C 19.679688 -7.292969 19.808594 -7.984375 19.808594 -8.632812 Z M 12.601562 -10.230469 L 8.070312 -10.230469 C 8.417969 -11.652344 9.191406 -12.429688 10.402344 -12.429688 C 11.265625 -12.429688 12.042969 -11.652344 12.601562 -10.230469 Z M 12.601562 -10.230469 "/></g></g></g><g fill="#2e2e2e" fill-opacity="1"><g transform="translate(181.093331, 29.458539)"><g><path d="M 13.464844 -17.609375 C 11.179688 -17.566406 9.453125 -16.53125 8.417969 -14.542969 L 8.417969 -17.265625 L 1.425781 -17.265625 L 1.425781 0 L 8.417969 0 L 8.417969 -8.589844 C 8.847656 -10.660156 9.753906 -11.78125 10.960938 -11.78125 C 12.386719 -11.78125 13.164062 -10.1875 13.164062 -7.335938 L 13.164062 0 L 20.199219 0 L 20.199219 -9.796875 C 20.199219 -14.761719 17.78125 -17.609375 13.464844 -17.609375 Z M 13.464844 -17.609375 "/></g></g></g><g fill="#2e2e2e" fill-opacity="1"><g transform="translate(202.413634, 29.458539)"><g><path d="M 17.953125 -5.179688 C 17.738281 -1.683594 14.675781 0.34375 9.453125 0.34375 C 4.316406 0.34375 1.425781 -2.332031 1.425781 -7.121094 L 1.425781 -20.933594 L 8.417969 -20.933594 L 8.417969 -16.011719 L 11.957031 -16.011719 L 11.957031 -10.832031 L 8.417969 -10.832031 L 8.417969 -8.417969 C 8.417969 -6.429688 9.28125 -5.308594 10.746094 -5.308594 C 11.957031 -5.308594 12.6875 -6.042969 12.773438 -7.292969 Z M 17.953125 -5.179688 "/></g></g></g><g fill="#2e2e2e" fill-opacity="1"><g transform="translate(221.014954, 29.458539)"><g/></g></g><g fill="#2e2e2e" fill-opacity="1"><g transform="translate(226.841342, 29.458539)"><g><path d="M 10.402344 0.34375 C 16.402344 0.34375 19.808594 -2.933594 19.808594 -8.632812 C 19.808594 -14.371094 16.402344 -17.609375 10.402344 -17.609375 C 4.402344 -17.609375 1.035156 -14.371094 1.035156 -8.632812 C 1.035156 -2.933594 4.402344 0.34375 10.402344 0.34375 Z M 10.402344 -5.308594 C 8.804688 -5.308594 7.941406 -6.515625 7.941406 -8.632812 C 7.941406 -10.789062 8.804688 -12 10.402344 -12 C 12 -12 12.90625 -10.789062 12.90625 -8.632812 C 12.90625 -6.515625 12 -5.308594 10.402344 -5.308594 Z M 10.402344 -5.308594 "/></g></g></g><g fill="#2e2e2e" fill-opacity="1"><g transform="translate(247.643742, 29.458539)"><g><path d="M 11.78125 -16.316406 C 12.558594 -16.316406 13.25 -16.140625 13.769531 -15.839844 L 14.890625 -20.671875 C 14.070312 -21.277344 12.90625 -21.578125 11.609375 -21.578125 C 6.472656 -21.578125 3.410156 -19.292969 2.976562 -15.148438 L 2.976562 -13.464844 L 0.949219 -13.464844 L 0.949219 -8.285156 L 2.890625 -8.285156 L 2.890625 0 L 9.925781 0 L 9.925781 -8.285156 L 13.636719 -8.285156 L 13.636719 -13.464844 L 9.925781 -13.464844 L 9.925781 -14.414062 C 9.925781 -15.625 10.617188 -16.316406 11.78125 -16.316406 Z M 11.78125 -16.316406 "/></g></g></g><g fill="#2e2e2e" fill-opacity="1"><g transform="translate(77.167639, 65.148692)"><g><path d="M 17.953125 -5.179688 C 17.738281 -1.683594 14.675781 0.34375 9.453125 0.34375 C 4.316406 0.34375 1.425781 -2.332031 1.425781 -7.121094 L 1.425781 -20.933594 L 8.417969 -20.933594 L 8.417969 -16.011719 L 11.957031 -16.011719 L 11.957031 -10.832031 L 8.417969 -10.832031 L 8.417969 -8.417969 C 8.417969 -6.429688 9.28125 -5.308594 10.746094 -5.308594 C 11.957031 -5.308594 12.6875 -6.042969 12.773438 -7.292969 Z M 17.953125 -5.179688 "/></g></g></g><g fill="#2e2e2e" fill-opacity="1"><g transform="translate(95.768958, 65.148692)"><g><path d="M 13.464844 -17.609375 C 11.179688 -17.566406 9.453125 -16.53125 8.417969 -14.542969 L 8.417969 -21.578125 L 1.425781 -21.578125 L 1.425781 0 L 8.417969 0 L 8.417969 -8.546875 C 8.847656 -10.617188 9.753906 -11.78125 10.960938 -11.78125 C 12.386719 -11.78125 13.164062 -10.1875 13.164062 -7.335938 L 13.164062 0 L 20.199219 0 L 20.199219 -9.796875 C 20.199219 -14.761719 17.78125 -17.609375 13.464844 -17.609375 Z M 13.464844 -17.609375 "/></g></g></g><g fill="#2e2e2e" fill-opacity="1"><g transform="translate(117.089261, 65.148692)"><g><path d="M 19.808594 -8.632812 C 19.808594 -14.371094 16.402344 -17.609375 10.402344 -17.609375 C 4.402344 -17.609375 1.035156 -14.371094 1.035156 -8.632812 C 1.035156 -2.933594 4.402344 0.34375 10.402344 0.34375 C 14.71875 0.34375 17.867188 -1.554688 19.164062 -4.921875 L 12.214844 -6.085938 C 11.914062 -5.308594 11.308594 -4.878906 10.488281 -4.878906 C 9.410156 -4.878906 8.675781 -5.480469 8.242188 -6.648438 L 19.550781 -6.648438 C 19.679688 -7.292969 19.808594 -7.984375 19.808594 -8.632812 Z M 12.601562 -10.230469 L 8.070312 -10.230469 C 8.417969 -11.652344 9.191406 -12.429688 10.402344 -12.429688 C 11.265625 -12.429688 12.042969 -11.652344 12.601562 -10.230469 Z M 12.601562 -10.230469 "/></g></g></g><g fill="#2e2e2e" fill-opacity="1"><g transform="translate(137.891661, 65.148692)"><g/></g></g><g fill="#2e2e2e" fill-opacity="1"><g transform="translate(143.718058, 65.148692)"><g><path d="M 30.082031 -21.578125 L 23.738281 -21.578125 L 20.761719 -9.148438 L 17.78125 -21.578125 L 12.6875 -21.578125 L 9.753906 -9.148438 L 6.777344 -21.578125 L 0.386719 -21.578125 L 6.777344 0 L 12.558594 0 L 15.277344 -10.574219 L 17.953125 0 L 23.695312 0 Z M 30.082031 -21.578125 "/></g></g></g><g fill="#2e2e2e" fill-opacity="1"><g transform="translate(174.187958, 65.148692)"><g><path d="M 19.808594 -8.632812 C 19.808594 -14.371094 16.402344 -17.609375 10.402344 -17.609375 C 4.402344 -17.609375 1.035156 -14.371094 1.035156 -8.632812 C 1.035156 -2.933594 4.402344 0.34375 10.402344 0.34375 C 14.71875 0.34375 17.867188 -1.554688 19.164062 -4.921875 L 12.214844 -6.085938 C 11.914062 -5.308594 11.308594 -4.878906 10.488281 -4.878906 C 9.410156 -4.878906 8.675781 -5.480469 8.242188 -6.648438 L 19.550781 -6.648438 C 19.679688 -7.292969 19.808594 -7.984375 19.808594 -8.632812 Z M 12.601562 -10.230469 L 8.070312 -10.230469 C 8.417969 -11.652344 9.191406 -12.429688 10.402344 -12.429688 C 11.265625 -12.429688 12.042969 -11.652344 12.601562 -10.230469 Z M 12.601562 -10.230469 "/></g></g></g><g fill="#2e2e2e" fill-opacity="1"><g transform="translate(194.990357, 65.148692)"><g><path d="M 19.808594 -8.632812 C 19.808594 -14.371094 16.402344 -17.609375 10.402344 -17.609375 C 4.402344 -17.609375 1.035156 -14.371094 1.035156 -8.632812 C 1.035156 -2.933594 4.402344 0.34375 10.402344 0.34375 C 14.71875 0.34375 17.867188 -1.554688 19.164062 -4.921875 L 12.214844 -6.085938 C 11.914062 -5.308594 11.308594 -4.878906 10.488281 -4.878906 C 9.410156 -4.878906 8.675781 -5.480469 8.242188 -6.648438 L 19.550781 -6.648438 C 19.679688 -7.292969 19.808594 -7.984375 19.808594 -8.632812 Z M 12.601562 -10.230469 L 8.070312 -10.230469 C 8.417969 -11.652344 9.191406 -12.429688 10.402344 -12.429688 C 11.265625 -12.429688 12.042969 -11.652344 12.601562 -10.230469 Z M 12.601562 -10.230469 "/></g></g></g><g fill="#2e2e2e" fill-opacity="1"><g transform="translate(215.792757, 65.148692)"><g><path d="M 1.425781 0 L 8.417969 0 L 8.417969 -4.058594 L 9.496094 -5.179688 L 13.035156 0 L 20.285156 0 L 13.59375 -9.839844 L 20.15625 -17.265625 L 13.164062 -17.265625 L 8.417969 -11.957031 L 8.417969 -21.578125 L 1.425781 -21.578125 Z M 1.425781 0 "/></g></g></g><g fill="#2e2e2e" fill-opacity="1"><g transform="translate(77.167639, 105.567941)"><g><path d="M 3.714844 0 L 4.953125 0 L 8.125 -8.5625 L 9.878906 -3.851562 L 11.3125 0 L 12.550781 0 L 15.996094 -10.570312 L 14.605469 -10.570312 L 11.886719 -2.113281 L 8.761719 -10.570312 L 7.507812 -10.570312 L 4.378906 -2.128906 L 3.140625 -6.011719 L 1.675781 -10.570312 L 0.285156 -10.570312 Z M 3.714844 0 "/></g></g></g><g fill="#2e2e2e" fill-opacity="1"><g transform="translate(93.446504, 105.567941)"><g><path d="M 1.40625 0 L 2.671875 0 L 2.671875 -3.640625 C 2.671875 -5.875 3.789062 -6.660156 5.210938 -6.660156 L 5.980469 -6.660156 L 5.980469 -7.839844 L 5.269531 -7.839844 C 3.941406 -7.839844 3.15625 -7.414062 2.597656 -6.480469 L 2.445312 -7.839844 L 1.40625 -7.839844 Z M 1.40625 0 "/></g></g></g><g fill="#2e2e2e" fill-opacity="1"><g transform="translate(100.030536, 105.567941)"><g><path d="M 1.40625 0 L 2.671875 0 L 2.671875 -7.839844 L 1.40625 -7.839844 Z M 1.011719 -10.117188 C 1.011719 -9.558594 1.417969 -9.136719 2.039062 -9.136719 C 2.65625 -9.136719 3.050781 -9.558594 3.050781 -10.117188 C 3.050781 -10.691406 2.65625 -11.117188 2.039062 -11.117188 C 1.417969 -11.117188 1.011719 -10.691406 1.011719 -10.117188 Z M 1.011719 -10.117188 "/></g></g></g><g fill="#2e2e2e" fill-opacity="1"><g transform="translate(104.107801, 105.567941)"><g><path d="M 4.789062 0 L 5.964844 0 L 5.964844 -1.222656 L 4.847656 -1.222656 C 3.804688 -1.222656 3.324219 -1.753906 3.324219 -2.882812 L 3.324219 -6.675781 L 5.859375 -6.675781 L 5.859375 -7.839844 L 3.324219 -7.839844 L 3.324219 -9.785156 L 2.339844 -9.785156 L 2.21875 -8.730469 C 2.128906 -8.019531 1.917969 -7.839844 1.191406 -7.839844 L 0.40625 -7.839844 L 0.40625 -6.675781 L 2.054688 -6.675781 L 2.054688 -2.824219 C 2.054688 -1.027344 3.050781 0 4.789062 0 Z M 4.789062 0 "/></g></g></g><g fill="#2e2e2e" fill-opacity="1"><g transform="translate(110.812637, 105.567941)"><g><path d="M 4.804688 0.195312 C 6.570312 0.195312 8.019531 -0.753906 8.652344 -2.28125 L 7.21875 -2.28125 C 6.734375 -1.449219 5.84375 -0.996094 4.816406 -0.996094 C 3.324219 -0.996094 2.265625 -1.933594 2.070312 -3.414062 L 8.851562 -3.414062 C 8.941406 -6.148438 7.324219 -8.035156 4.816406 -8.035156 C 2.445312 -8.035156 0.785156 -6.34375 0.785156 -3.925781 C 0.785156 -1.496094 2.429688 0.195312 4.804688 0.195312 Z M 2.085938 -4.53125 C 2.3125 -5.921875 3.367188 -6.839844 4.816406 -6.839844 C 6.253906 -6.839844 7.308594 -5.964844 7.582031 -4.53125 Z M 2.085938 -4.53125 "/></g></g></g><g fill="#2e2e2e" fill-opacity="1"><g transform="translate(120.416861, 105.567941)"><g/></g></g><g fill="#2e2e2e" fill-opacity="1"><g transform="translate(124.16191, 105.567941)"><g><path d="M 4.242188 0.195312 C 6.175781 0.195312 7.429688 -0.695312 7.429688 -2.054688 C 7.429688 -3.277344 6.402344 -4.109375 4.425781 -4.5 C 2.792969 -4.816406 2.234375 -5.136719 2.234375 -5.800781 C 2.234375 -6.496094 2.898438 -6.917969 4.03125 -6.917969 C 5.226562 -6.917969 5.933594 -6.449219 6.027344 -5.589844 L 7.28125 -5.589844 C 7.175781 -7.128906 5.949219 -8.035156 4.015625 -8.035156 C 2.128906 -8.035156 0.980469 -7.203125 0.980469 -5.800781 C 0.980469 -4.5625 1.933594 -3.804688 3.957031 -3.472656 C 5.484375 -3.21875 6.175781 -2.792969 6.175781 -2.085938 C 6.175781 -1.375 5.453125 -0.9375 4.257812 -0.9375 C 2.914062 -0.9375 2.113281 -1.511719 2.070312 -2.460938 L 0.816406 -2.460938 C 0.847656 -0.859375 2.191406 0.195312 4.242188 0.195312 Z M 4.242188 0.195312 "/></g></g></g><g fill="#2e2e2e" fill-opacity="1"><g transform="translate(132.407049, 105.567941)"><g><path d="M 4.9375 0.195312 C 7.371094 0.195312 9.09375 -1.527344 9.09375 -3.925781 C 9.09375 -6.328125 7.371094 -8.035156 4.9375 -8.035156 C 2.507812 -8.035156 0.785156 -6.328125 0.785156 -3.925781 C 0.785156 -1.527344 2.507812 0.195312 4.9375 0.195312 Z M 2.054688 -3.925781 C 2.054688 -5.632812 3.246094 -6.828125 4.9375 -6.828125 C 6.628906 -6.828125 7.824219 -5.632812 7.824219 -3.925781 C 7.824219 -2.203125 6.628906 -1.027344 4.9375 -1.027344 C 3.246094 -1.027344 2.054688 -2.203125 2.054688 -3.925781 Z M 2.054688 -3.925781 "/></g></g></g><g fill="#2e2e2e" fill-opacity="1"><g transform="translate(142.283093, 105.567941)"><g><path d="M 1.40625 0 L 2.671875 0 L 2.671875 -4.167969 C 2.671875 -5.785156 3.578125 -6.828125 4.9375 -6.828125 C 6.253906 -6.828125 7.082031 -5.828125 7.082031 -4.273438 L 7.082031 0 L 8.351562 0 L 8.351562 -4.167969 C 8.351562 -5.785156 9.257812 -6.828125 10.617188 -6.828125 C 11.929688 -6.828125 12.761719 -5.828125 12.761719 -4.273438 L 12.761719 0 L 14.03125 0 L 14.03125 -4.484375 C 14.03125 -6.675781 12.761719 -8.035156 10.785156 -8.035156 C 9.515625 -8.035156 8.488281 -7.492188 7.867188 -6.496094 C 7.339844 -7.507812 6.375 -8.035156 5.121094 -8.035156 C 4.03125 -8.035156 3.15625 -7.628906 2.566406 -6.855469 L 2.445312 -7.839844 L 1.40625 -7.839844 Z M 1.40625 0 "/></g></g></g><g fill="#2e2e2e" fill-opacity="1"><g transform="translate(157.565292, 105.567941)"><g><path d="M 4.804688 0.195312 C 6.570312 0.195312 8.019531 -0.753906 8.652344 -2.28125 L 7.21875 -2.28125 C 6.734375 -1.449219 5.84375 -0.996094 4.816406 -0.996094 C 3.324219 -0.996094 2.265625 -1.933594 2.070312 -3.414062 L 8.851562 -3.414062 C 8.941406 -6.148438 7.324219 -8.035156 4.816406 -8.035156 C 2.445312 -8.035156 0.785156 -6.34375 0.785156 -3.925781 C 0.785156 -1.496094 2.429688 0.195312 4.804688 0.195312 Z M 2.085938 -4.53125 C 2.3125 -5.921875 3.367188 -6.839844 4.816406 -6.839844 C 6.253906 -6.839844 7.308594 -5.964844 7.582031 -4.53125 Z M 2.085938 -4.53125 "/></g></g></g><g fill="#2e2e2e" fill-opacity="1"><g transform="translate(167.169517, 105.567941)"><g><path d="M 4.789062 0 L 5.964844 0 L 5.964844 -1.222656 L 4.847656 -1.222656 C 3.804688 -1.222656 3.324219 -1.753906 3.324219 -2.882812 L 3.324219 -6.675781 L 5.859375 -6.675781 L 5.859375 -7.839844 L 3.324219 -7.839844 L 3.324219 -9.785156 L 2.339844 -9.785156 L 2.21875 -8.730469 C 2.128906 -8.019531 1.917969 -7.839844 1.191406 -7.839844 L 0.40625 -7.839844 L 0.40625 -6.675781 L 2.054688 -6.675781 L 2.054688 -2.824219 C 2.054688 -1.027344 3.050781 0 4.789062 0 Z M 4.789062 0 "/></g></g></g><g fill="#2e2e2e" fill-opacity="1"><g transform="translate(173.874353, 105.567941)"><g><path d="M 1.40625 0 L 2.671875 0 L 2.671875 -4.003906 C 2.671875 -5.722656 3.714844 -6.828125 5.195312 -6.828125 C 6.554688 -6.828125 7.402344 -5.859375 7.402344 -4.289062 L 7.402344 0 L 8.667969 0 L 8.667969 -4.410156 C 8.667969 -6.644531 7.429688 -8.035156 5.363281 -8.035156 C 4.351562 -8.035156 3.351562 -7.65625 2.671875 -6.8125 L 2.671875 -11.175781 L 1.40625 -11.175781 Z M 1.40625 0 "/></g></g></g><g fill="#2e2e2e" fill-opacity="1"><g transform="translate(183.795701, 105.567941)"><g><path d="M 1.40625 0 L 2.671875 0 L 2.671875 -7.839844 L 1.40625 -7.839844 Z M 1.011719 -10.117188 C 1.011719 -9.558594 1.417969 -9.136719 2.039062 -9.136719 C 2.65625 -9.136719 3.050781 -9.558594 3.050781 -10.117188 C 3.050781 -10.691406 2.65625 -11.117188 2.039062 -11.117188 C 1.417969 -11.117188 1.011719 -10.691406 1.011719 -10.117188 Z M 1.011719 -10.117188 "/></g></g></g><g fill="#2e2e2e" fill-opacity="1"><g transform="translate(187.872966, 105.567941)"><g><path d="M 1.40625 0 L 2.671875 0 L 2.671875 -3.957031 C 2.671875 -5.679688 3.714844 -6.828125 5.179688 -6.828125 C 6.554688 -6.828125 7.402344 -5.828125 7.402344 -4.242188 L 7.402344 0 L 8.667969 0 L 8.667969 -4.363281 C 8.667969 -6.601562 7.429688 -8.035156 5.347656 -8.035156 C 4.289062 -8.035156 3.261719 -7.628906 2.582031 -6.691406 L 2.445312 -7.839844 L 1.40625 -7.839844 Z M 1.40625 0 "/></g></g></g><g fill="#2e2e2e" fill-opacity="1"><g transform="translate(197.794314, 105.567941)"><g><path d="M 4.910156 3.21875 C 7.25 3.21875 8.773438 1.765625 8.773438 -0.453125 L 8.773438 -7.839844 L 7.734375 -7.839844 L 7.597656 -6.78125 C 6.902344 -7.566406 5.875 -8.035156 4.695312 -8.035156 C 2.460938 -8.035156 0.785156 -6.34375 0.785156 -4.0625 C 0.785156 -1.765625 2.460938 -0.0742188 4.695312 -0.0742188 C 5.828125 -0.0742188 6.8125 -0.511719 7.507812 -1.238281 L 7.507812 -0.5 C 7.507812 1.117188 6.554688 2.039062 4.910156 2.039062 C 3.625 2.039062 2.734375 1.449219 2.492188 0.5 L 1.207031 0.5 C 1.496094 2.175781 2.914062 3.21875 4.910156 3.21875 Z M 2.054688 -4.0625 C 2.054688 -5.664062 3.21875 -6.8125 4.832031 -6.8125 C 6.464844 -6.8125 7.613281 -5.664062 7.613281 -4.0625 C 7.613281 -2.445312 6.464844 -1.3125 4.832031 -1.3125 C 3.21875 -1.3125 2.054688 -2.445312 2.054688 -4.0625 Z M 2.054688 -4.0625 "/></g></g></g><g fill="#2e2e2e" fill-opacity="1"><g transform="translate(207.97238, 105.567941)"><g/></g></g><g fill="#2e2e2e" fill-opacity="1"><g transform="translate(211.717428, 105.567941)"><g><path d="M 3.972656 0.121094 C 5.242188 0.121094 6.238281 -0.285156 6.949219 -1.085938 L 7.082031 0 L 8.125 0 L 8.125 -4.984375 C 8.125 -6.796875 6.75 -8.035156 4.695312 -8.035156 C 2.992188 -8.035156 1.707031 -7.113281 1.359375 -5.601562 L 2.644531 -5.601562 C 2.898438 -6.375 3.699219 -6.855469 4.710938 -6.855469 C 6.042969 -6.855469 6.855469 -6.117188 6.855469 -4.894531 L 6.855469 -4.605469 L 3.65625 -4.605469 C 2.023438 -4.605469 0.953125 -3.683594 0.953125 -2.265625 C 0.953125 -0.785156 2.085938 0.121094 3.972656 0.121094 Z M 2.21875 -2.28125 C 2.21875 -3.019531 2.824219 -3.488281 3.699219 -3.488281 L 6.871094 -3.488281 C 6.828125 -2.039062 5.648438 -1.011719 4.015625 -1.011719 C 2.914062 -1.011719 2.21875 -1.511719 2.21875 -2.28125 Z M 2.21875 -2.28125 "/></g></g></g><g fill="#2e2e2e" fill-opacity="1"><g transform="translate(221.080037, 105.567941)"><g><path d="M 5.679688 0.195312 C 7.988281 0.195312 9.667969 -1.539062 9.667969 -3.925781 C 9.667969 -6.296875 7.988281 -8.035156 5.679688 -8.035156 C 4.441406 -8.035156 3.382812 -7.535156 2.671875 -6.722656 L 2.671875 -11.175781 L 1.40625 -11.175781 L 1.40625 0 L 2.445312 0 L 2.597656 -1.207031 C 3.308594 -0.332031 4.394531 0.195312 5.679688 0.195312 Z M 2.628906 -3.925781 C 2.628906 -5.617188 3.820312 -6.828125 5.511719 -6.828125 C 7.21875 -6.828125 8.398438 -5.617188 8.398438 -3.925781 C 8.398438 -2.21875 7.21875 -1.027344 5.511719 -1.027344 C 3.820312 -1.027344 2.628906 -2.21875 2.628906 -3.925781 Z M 2.628906 -3.925781 "/></g></g></g><g fill="#2e2e2e" fill-opacity="1"><g transform="translate(231.529921, 105.567941)"><g><path d="M 4.9375 0.195312 C 7.371094 0.195312 9.09375 -1.527344 9.09375 -3.925781 C 9.09375 -6.328125 7.371094 -8.035156 4.9375 -8.035156 C 2.507812 -8.035156 0.785156 -6.328125 0.785156 -3.925781 C 0.785156 -1.527344 2.507812 0.195312 4.9375 0.195312 Z M 2.054688 -3.925781 C 2.054688 -5.632812 3.246094 -6.828125 4.9375 -6.828125 C 6.628906 -6.828125 7.824219 -5.632812 7.824219 -3.925781 C 7.824219 -2.203125 6.628906 -1.027344 4.9375 -1.027344 C 3.246094 -1.027344 2.054688 -2.203125 2.054688 -3.925781 Z M 2.054688 -3.925781 "/></g></g></g><g fill="#2e2e2e" fill-opacity="1"><g transform="translate(241.405956, 105.567941)"><g><path d="M 4.53125 0.195312 C 5.574219 0.195312 6.585938 -0.226562 7.265625 -1.148438 L 7.402344 0 L 8.441406 0 L 8.441406 -7.839844 L 7.175781 -7.839844 L 7.175781 -3.882812 C 7.175781 -2.175781 6.160156 -1.027344 4.695312 -1.027344 C 3.351562 -1.027344 2.523438 -2.023438 2.523438 -3.59375 L 2.523438 -7.839844 L 1.253906 -7.839844 L 1.253906 -3.472656 C 1.253906 -1.238281 2.476562 0.195312 4.53125 0.195312 Z M 4.53125 0.195312 "/></g></g></g><g fill="#2e2e2e" fill-opacity="1"><g transform="translate(251.251805, 105.567941)"><g><path d="M 4.789062 0 L 5.964844 0 L 5.964844 -1.222656 L 4.847656 -1.222656 C 3.804688 -1.222656 3.324219 -1.753906 3.324219 -2.882812 L 3.324219 -6.675781 L 5.859375 -6.675781 L 5.859375 -7.839844 L 3.324219 -7.839844 L 3.324219 -9.785156 L 2.339844 -9.785156 L 2.21875 -8.730469 C 2.128906 -8.019531 1.917969 -7.839844 1.191406 -7.839844 L 0.40625 -7.839844 L 0.40625 -6.675781 L 2.054688 -6.675781 L 2.054688 -2.824219 C 2.054688 -1.027344 3.050781 0 4.789062 0 Z M 4.789062 0 "/></g></g></g><g fill="#2e2e2e" fill-opacity="1"><g transform="translate(257.956641, 105.567941)"><g/></g></g><g fill="#2e2e2e" fill-opacity="1"><g transform="translate(261.701681, 105.567941)"><g><path d="M 4.789062 0 L 5.964844 0 L 5.964844 -1.222656 L 4.847656 -1.222656 C 3.804688 -1.222656 3.324219 -1.753906 3.324219 -2.882812 L 3.324219 -6.675781 L 5.859375 -6.675781 L 5.859375 -7.839844 L 3.324219 -7.839844 L 3.324219 -9.785156 L 2.339844 -9.785156 L 2.21875 -8.730469 C 2.128906 -8.019531 1.917969 -7.839844 1.191406 -7.839844 L 0.40625 -7.839844 L 0.40625 -6.675781 L 2.054688 -6.675781 L 2.054688 -2.824219 C 2.054688 -1.027344 3.050781 0 4.789062 0 Z M 4.789062 0 "/></g></g></g><g fill="#2e2e2e" fill-opacity="1"><g transform="translate(268.406516, 105.567941)"><g><path d="M 1.40625 0 L 2.671875 0 L 2.671875 -4.003906 C 2.671875 -5.722656 3.714844 -6.828125 5.195312 -6.828125 C 6.554688 -6.828125 7.402344 -5.859375 7.402344 -4.289062 L 7.402344 0 L 8.667969 0 L 8.667969 -4.410156 C 8.667969 -6.644531 7.429688 -8.035156 5.363281 -8.035156 C 4.351562 -8.035156 3.351562 -7.65625 2.671875 -6.8125 L 2.671875 -11.175781 L 1.40625 -11.175781 Z M 1.40625 0 "/></g></g></g><g fill="#2e2e2e" fill-opacity="1"><g transform="translate(278.327864, 105.567941)"><g><path d="M 4.804688 0.195312 C 6.570312 0.195312 8.019531 -0.753906 8.652344 -2.28125 L 7.21875 -2.28125 C 6.734375 -1.449219 5.84375 -0.996094 4.816406 -0.996094 C 3.324219 -0.996094 2.265625 -1.933594 2.070312 -3.414062 L 8.851562 -3.414062 C 8.941406 -6.148438 7.324219 -8.035156 4.816406 -8.035156 C 2.445312 -8.035156 0.785156 -6.34375 0.785156 -3.925781 C 0.785156 -1.496094 2.429688 0.195312 4.804688 0.195312 Z M 2.085938 -4.53125 C 2.3125 -5.921875 3.367188 -6.839844 4.816406 -6.839844 C 6.253906 -6.839844 7.308594 -5.964844 7.582031 -4.53125 Z M 2.085938 -4.53125 "/></g></g></g><g fill="#2e2e2e" fill-opacity="1"><g transform="translate(77.167639, 126.528824)"><g><path d="M 4.242188 0.195312 C 6.175781 0.195312 7.429688 -0.695312 7.429688 -2.054688 C 7.429688 -3.277344 6.402344 -4.109375 4.425781 -4.5 C 2.792969 -4.816406 2.234375 -5.136719 2.234375 -5.800781 C 2.234375 -6.496094 2.898438 -6.917969 4.03125 -6.917969 C 5.226562 -6.917969 5.933594 -6.449219 6.027344 -5.589844 L 7.28125 -5.589844 C 7.175781 -7.128906 5.949219 -8.035156 4.015625 -8.035156 C 2.128906 -8.035156 0.980469 -7.203125 0.980469 -5.800781 C 0.980469 -4.5625 1.933594 -3.804688 3.957031 -3.472656 C 5.484375 -3.21875 6.175781 -2.792969 6.175781 -2.085938 C 6.175781 -1.375 5.453125 -0.9375 4.257812 -0.9375 C 2.914062 -0.9375 2.113281 -1.511719 2.070312 -2.460938 L 0.816406 -2.460938 C 0.847656 -0.859375 2.191406 0.195312 4.242188 0.195312 Z M 4.242188 0.195312 "/></g></g></g><g fill="#2e2e2e" fill-opacity="1"><g transform="translate(85.412778, 126.528824)"><g><path d="M 4.789062 0 L 5.964844 0 L 5.964844 -1.222656 L 4.847656 -1.222656 C 3.804688 -1.222656 3.324219 -1.753906 3.324219 -2.882812 L 3.324219 -6.675781 L 5.859375 -6.675781 L 5.859375 -7.839844 L 3.324219 -7.839844 L 3.324219 -9.785156 L 2.339844 -9.785156 L 2.21875 -8.730469 C 2.128906 -8.019531 1.917969 -7.839844 1.191406 -7.839844 L 0.40625 -7.839844 L 0.40625 -6.675781 L 2.054688 -6.675781 L 2.054688 -2.824219 C 2.054688 -1.027344 3.050781 0 4.789062 0 Z M 4.789062 0 "/></g></g></g><g fill="#2e2e2e" fill-opacity="1"><g transform="translate(92.117613, 126.528824)"><g><path d="M 4.53125 0.195312 C 5.574219 0.195312 6.585938 -0.226562 7.265625 -1.148438 L 7.402344 0 L 8.441406 0 L 8.441406 -7.839844 L 7.175781 -7.839844 L 7.175781 -3.882812 C 7.175781 -2.175781 6.160156 -1.027344 4.695312 -1.027344 C 3.351562 -1.027344 2.523438 -2.023438 2.523438 -3.59375 L 2.523438 -7.839844 L 1.253906 -7.839844 L 1.253906 -3.472656 C 1.253906 -1.238281 2.476562 0.195312 4.53125 0.195312 Z M 4.53125 0.195312 "/></g></g></g><g fill="#2e2e2e" fill-opacity="1"><g transform="translate(101.963454, 126.528824)"><g><path d="M 4.789062 0.195312 C 6.054688 0.195312 7.144531 -0.332031 7.855469 -1.207031 L 8.003906 0 L 9.046875 0 L 9.046875 -11.175781 L 7.777344 -11.175781 L 7.777344 -6.734375 C 7.066406 -7.550781 6.011719 -8.035156 4.789062 -8.035156 C 2.460938 -8.035156 0.785156 -6.296875 0.785156 -3.925781 C 0.785156 -1.539062 2.460938 0.195312 4.789062 0.195312 Z M 2.054688 -3.925781 C 2.054688 -5.617188 3.246094 -6.828125 4.9375 -6.828125 C 6.644531 -6.828125 7.824219 -5.617188 7.824219 -3.925781 C 7.824219 -2.21875 6.644531 -1.027344 4.9375 -1.027344 C 3.246094 -1.027344 2.054688 -2.21875 2.054688 -3.925781 Z M 2.054688 -3.925781 "/></g></g></g><g fill="#2e2e2e" fill-opacity="1"><g transform="translate(112.413338, 126.528824)"><g><path d="M 4.804688 0.195312 C 6.570312 0.195312 8.019531 -0.753906 8.652344 -2.28125 L 7.21875 -2.28125 C 6.734375 -1.449219 5.84375 -0.996094 4.816406 -0.996094 C 3.324219 -0.996094 2.265625 -1.933594 2.070312 -3.414062 L 8.851562 -3.414062 C 8.941406 -6.148438 7.324219 -8.035156 4.816406 -8.035156 C 2.445312 -8.035156 0.785156 -6.34375 0.785156 -3.925781 C 0.785156 -1.496094 2.429688 0.195312 4.804688 0.195312 Z M 2.085938 -4.53125 C 2.3125 -5.921875 3.367188 -6.839844 4.816406 -6.839844 C 6.253906 -6.839844 7.308594 -5.964844 7.582031 -4.53125 Z M 2.085938 -4.53125 "/></g></g></g><g fill="#2e2e2e" fill-opacity="1"><g transform="translate(122.017563, 126.528824)"><g><path d="M 1.40625 0 L 2.671875 0 L 2.671875 -3.957031 C 2.671875 -5.679688 3.714844 -6.828125 5.179688 -6.828125 C 6.554688 -6.828125 7.402344 -5.828125 7.402344 -4.242188 L 7.402344 0 L 8.667969 0 L 8.667969 -4.363281 C 8.667969 -6.601562 7.429688 -8.035156 5.347656 -8.035156 C 4.289062 -8.035156 3.261719 -7.628906 2.582031 -6.691406 L 2.445312 -7.839844 L 1.40625 -7.839844 Z M 1.40625 0 "/></g></g></g><g fill="#2e2e2e" fill-opacity="1"><g transform="translate(131.938911, 126.528824)"><g><path d="M 4.789062 0 L 5.964844 0 L 5.964844 -1.222656 L 4.847656 -1.222656 C 3.804688 -1.222656 3.324219 -1.753906 3.324219 -2.882812 L 3.324219 -6.675781 L 5.859375 -6.675781 L 5.859375 -7.839844 L 3.324219 -7.839844 L 3.324219 -9.785156 L 2.339844 -9.785156 L 2.21875 -8.730469 C 2.128906 -8.019531 1.917969 -7.839844 1.191406 -7.839844 L 0.40625 -7.839844 L 0.40625 -6.675781 L 2.054688 -6.675781 L 2.054688 -2.824219 C 2.054688 -1.027344 3.050781 0 4.789062 0 Z M 4.789062 0 "/></g></g></g><g fill="#2e2e2e" fill-opacity="1"><g transform="translate(138.643746, 126.528824)"><g/></g></g><g fill="#2e2e2e" fill-opacity="1"><g transform="translate(142.388795, 126.528824)"><g><path d="M 3.972656 0.121094 C 5.242188 0.121094 6.238281 -0.285156 6.949219 -1.085938 L 7.082031 0 L 8.125 0 L 8.125 -4.984375 C 8.125 -6.796875 6.75 -8.035156 4.695312 -8.035156 C 2.992188 -8.035156 1.707031 -7.113281 1.359375 -5.601562 L 2.644531 -5.601562 C 2.898438 -6.375 3.699219 -6.855469 4.710938 -6.855469 C 6.042969 -6.855469 6.855469 -6.117188 6.855469 -4.894531 L 6.855469 -4.605469 L 3.65625 -4.605469 C 2.023438 -4.605469 0.953125 -3.683594 0.953125 -2.265625 C 0.953125 -0.785156 2.085938 0.121094 3.972656 0.121094 Z M 2.21875 -2.28125 C 2.21875 -3.019531 2.824219 -3.488281 3.699219 -3.488281 L 6.871094 -3.488281 C 6.828125 -2.039062 5.648438 -1.011719 4.015625 -1.011719 C 2.914062 -1.011719 2.21875 -1.511719 2.21875 -2.28125 Z M 2.21875 -2.28125 "/></g></g></g><g fill="#2e2e2e" fill-opacity="1"><g transform="translate(151.751404, 126.528824)"><g><path d="M 1.40625 0 L 2.671875 0 L 2.671875 -3.957031 C 2.671875 -5.679688 3.714844 -6.828125 5.179688 -6.828125 C 6.554688 -6.828125 7.402344 -5.828125 7.402344 -4.242188 L 7.402344 0 L 8.667969 0 L 8.667969 -4.363281 C 8.667969 -6.601562 7.429688 -8.035156 5.347656 -8.035156 C 4.289062 -8.035156 3.261719 -7.628906 2.582031 -6.691406 L 2.445312 -7.839844 L 1.40625 -7.839844 Z M 1.40625 0 "/></g></g></g><g fill="#2e2e2e" fill-opacity="1"><g transform="translate(161.672752, 126.528824)"><g><path d="M 4.789062 0.195312 C 6.054688 0.195312 7.144531 -0.332031 7.855469 -1.207031 L 8.003906 0 L 9.046875 0 L 9.046875 -11.175781 L 7.777344 -11.175781 L 7.777344 -6.734375 C 7.066406 -7.550781 6.011719 -8.035156 4.789062 -8.035156 C 2.460938 -8.035156 0.785156 -6.296875 0.785156 -3.925781 C 0.785156 -1.539062 2.460938 0.195312 4.789062 0.195312 Z M 2.054688 -3.925781 C 2.054688 -5.617188 3.246094 -6.828125 4.9375 -6.828125 C 6.644531 -6.828125 7.824219 -5.617188 7.824219 -3.925781 C 7.824219 -2.21875 6.644531 -1.027344 4.9375 -1.027344 C 3.246094 -1.027344 2.054688 -2.21875 2.054688 -3.925781 Z M 2.054688 -3.925781 "/></g></g></g><g fill="#2e2e2e" fill-opacity="1"><g transform="translate(172.122636, 126.528824)"><g/></g></g><g fill="#2e2e2e" fill-opacity="1"><g transform="translate(175.867685, 126.528824)"><g><path d="M 3.066406 0 L 4.289062 0 L 6.554688 -5.964844 L 7.582031 -3.230469 L 8.835938 0 L 10.042969 0 L 12.851562 -7.839844 L 11.523438 -7.839844 L 10.253906 -4.289062 L 9.425781 -1.902344 L 7.128906 -7.839844 L 5.964844 -7.839844 L 4.621094 -4.289062 L 3.699219 -1.886719 L 2.855469 -4.289062 L 1.601562 -7.839844 L 0.257812 -7.839844 Z M 3.066406 0 "/></g></g></g><g fill="#2e2e2e" fill-opacity="1"><g transform="translate(188.975343, 126.528824)"><g><path d="M 1.40625 0 L 2.671875 0 L 2.671875 -4.003906 C 2.671875 -5.722656 3.714844 -6.828125 5.195312 -6.828125 C 6.554688 -6.828125 7.402344 -5.859375 7.402344 -4.289062 L 7.402344 0 L 8.667969 0 L 8.667969 -4.410156 C 8.667969 -6.644531 7.429688 -8.035156 5.363281 -8.035156 C 4.351562 -8.035156 3.351562 -7.65625 2.671875 -6.8125 L 2.671875 -11.175781 L 1.40625 -11.175781 Z M 1.40625 0 "/></g></g></g><g fill="#2e2e2e" fill-opacity="1"><g transform="translate(198.896691, 126.528824)"><g><path d="M 3.972656 0.121094 C 5.242188 0.121094 6.238281 -0.285156 6.949219 -1.085938 L 7.082031 0 L 8.125 0 L 8.125 -4.984375 C 8.125 -6.796875 6.75 -8.035156 4.695312 -8.035156 C 2.992188 -8.035156 1.707031 -7.113281 1.359375 -5.601562 L 2.644531 -5.601562 C 2.898438 -6.375 3.699219 -6.855469 4.710938 -6.855469 C 6.042969 -6.855469 6.855469 -6.117188 6.855469 -4.894531 L 6.855469 -4.605469 L 3.65625 -4.605469 C 2.023438 -4.605469 0.953125 -3.683594 0.953125 -2.265625 C 0.953125 -0.785156 2.085938 0.121094 3.972656 0.121094 Z M 2.21875 -2.28125 C 2.21875 -3.019531 2.824219 -3.488281 3.699219 -3.488281 L 6.871094 -3.488281 C 6.828125 -2.039062 5.648438 -1.011719 4.015625 -1.011719 C 2.914062 -1.011719 2.21875 -1.511719 2.21875 -2.28125 Z M 2.21875 -2.28125 "/></g></g></g><g fill="#2e2e2e" fill-opacity="1"><g transform="translate(208.2593, 126.528824)"><g><path d="M 4.789062 0 L 5.964844 0 L 5.964844 -1.222656 L 4.847656 -1.222656 C 3.804688 -1.222656 3.324219 -1.753906 3.324219 -2.882812 L 3.324219 -6.675781 L 5.859375 -6.675781 L 5.859375 -7.839844 L 3.324219 -7.839844 L 3.324219 -9.785156 L 2.339844 -9.785156 L 2.21875 -8.730469 C 2.128906 -8.019531 1.917969 -7.839844 1.191406 -7.839844 L 0.40625 -7.839844 L 0.40625 -6.675781 L 2.054688 -6.675781 L 2.054688 -2.824219 C 2.054688 -1.027344 3.050781 0 4.789062 0 Z M 4.789062 0 "/></g></g></g><g fill="#2e2e2e" fill-opacity="1"><g transform="translate(214.964136, 126.528824)"><g/></g></g><g fill="#2e2e2e" fill-opacity="1"><g transform="translate(218.709184, 126.528824)"><g><path d="M 3.972656 0.121094 C 5.242188 0.121094 6.238281 -0.285156 6.949219 -1.085938 L 7.082031 0 L 8.125 0 L 8.125 -4.984375 C 8.125 -6.796875 6.75 -8.035156 4.695312 -8.035156 C 2.992188 -8.035156 1.707031 -7.113281 1.359375 -5.601562 L 2.644531 -5.601562 C 2.898438 -6.375 3.699219 -6.855469 4.710938 -6.855469 C 6.042969 -6.855469 6.855469 -6.117188 6.855469 -4.894531 L 6.855469 -4.605469 L 3.65625 -4.605469 C 2.023438 -4.605469 0.953125 -3.683594 0.953125 -2.265625 C 0.953125 -0.785156 2.085938 0.121094 3.972656 0.121094 Z M 2.21875 -2.28125 C 2.21875 -3.019531 2.824219 -3.488281 3.699219 -3.488281 L 6.871094 -3.488281 C 6.828125 -2.039062 5.648438 -1.011719 4.015625 -1.011719 C 2.914062 -1.011719 2.21875 -1.511719 2.21875 -2.28125 Z M 2.21875 -2.28125 "/></g></g></g><g fill="#2e2e2e" fill-opacity="1"><g transform="translate(228.071802, 126.528824)"><g><path d="M 1.40625 0 L 2.671875 0 L 2.671875 -4.167969 C 2.671875 -5.785156 3.578125 -6.828125 4.9375 -6.828125 C 6.253906 -6.828125 7.082031 -5.828125 7.082031 -4.273438 L 7.082031 0 L 8.351562 0 L 8.351562 -4.167969 C 8.351562 -5.785156 9.257812 -6.828125 10.617188 -6.828125 C 11.929688 -6.828125 12.761719 -5.828125 12.761719 -4.273438 L 12.761719 0 L 14.03125 0 L 14.03125 -4.484375 C 14.03125 -6.675781 12.761719 -8.035156 10.785156 -8.035156 C 9.515625 -8.035156 8.488281 -7.492188 7.867188 -6.496094 C 7.339844 -7.507812 6.375 -8.035156 5.121094 -8.035156 C 4.03125 -8.035156 3.15625 -7.628906 2.566406 -6.855469 L 2.445312 -7.839844 L 1.40625 -7.839844 Z M 1.40625 0 "/></g></g></g><g fill="#2e2e2e" fill-opacity="1"><g transform="translate(243.353993, 126.528824)"><g><path d="M 3.972656 0.121094 C 5.242188 0.121094 6.238281 -0.285156 6.949219 -1.085938 L 7.082031 0 L 8.125 0 L 8.125 -4.984375 C 8.125 -6.796875 6.75 -8.035156 4.695312 -8.035156 C 2.992188 -8.035156 1.707031 -7.113281 1.359375 -5.601562 L 2.644531 -5.601562 C 2.898438 -6.375 3.699219 -6.855469 4.710938 -6.855469 C 6.042969 -6.855469 6.855469 -6.117188 6.855469 -4.894531 L 6.855469 -4.605469 L 3.65625 -4.605469 C 2.023438 -4.605469 0.953125 -3.683594 0.953125 -2.265625 C 0.953125 -0.785156 2.085938 0.121094 3.972656 0.121094 Z M 2.21875 -2.28125 C 2.21875 -3.019531 2.824219 -3.488281 3.699219 -3.488281 L 6.871094 -3.488281 C 6.828125 -2.039062 5.648438 -1.011719 4.015625 -1.011719 C 2.914062 -1.011719 2.21875 -1.511719 2.21875 -2.28125 Z M 2.21875 -2.28125 "/></g></g></g><g fill="#2e2e2e" fill-opacity="1"><g transform="translate(252.716593, 126.528824)"><g><path d="M 0.726562 0 L 7.25 0 L 7.25 -1.164062 L 2.476562 -1.164062 L 7.160156 -6.886719 L 7.160156 -7.839844 L 0.875 -7.839844 L 0.875 -6.675781 L 5.4375 -6.675781 L 0.726562 -0.953125 Z M 0.726562 0 "/></g></g></g><g fill="#2e2e2e" fill-opacity="1"><g transform="translate(260.674812, 126.528824)"><g><path d="M 1.40625 0 L 2.671875 0 L 2.671875 -7.839844 L 1.40625 -7.839844 Z M 1.011719 -10.117188 C 1.011719 -9.558594 1.417969 -9.136719 2.039062 -9.136719 C 2.65625 -9.136719 3.050781 -9.558594 3.050781 -10.117188 C 3.050781 -10.691406 2.65625 -11.117188 2.039062 -11.117188 C 1.417969 -11.117188 1.011719 -10.691406 1.011719 -10.117188 Z M 1.011719 -10.117188 "/></g></g></g><g fill="#2e2e2e" fill-opacity="1"><g transform="translate(264.752068, 126.528824)"><g><path d="M 1.40625 0 L 2.671875 0 L 2.671875 -3.957031 C 2.671875 -5.679688 3.714844 -6.828125 5.179688 -6.828125 C 6.554688 -6.828125 7.402344 -5.828125 7.402344 -4.242188 L 7.402344 0 L 8.667969 0 L 8.667969 -4.363281 C 8.667969 -6.601562 7.429688 -8.035156 5.347656 -8.035156 C 4.289062 -8.035156 3.261719 -7.628906 2.582031 -6.691406 L 2.445312 -7.839844 L 1.40625 -7.839844 Z M 1.40625 0 "/></g></g></g><g fill="#2e2e2e" fill-opacity="1"><g transform="translate(274.673417, 126.528824)"><g><path d="M 4.910156 3.21875 C 7.25 3.21875 8.773438 1.765625 8.773438 -0.453125 L 8.773438 -7.839844 L 7.734375 -7.839844 L 7.597656 -6.78125 C 6.902344 -7.566406 5.875 -8.035156 4.695312 -8.035156 C 2.460938 -8.035156 0.785156 -6.34375 0.785156 -4.0625 C 0.785156 -1.765625 2.460938 -0.0742188 4.695312 -0.0742188 C 5.828125 -0.0742188 6.8125 -0.511719 7.507812 -1.238281 L 7.507812 -0.5 C 7.507812 1.117188 6.554688 2.039062 4.910156 2.039062 C 3.625 2.039062 2.734375 1.449219 2.492188 0.5 L 1.207031 0.5 C 1.496094 2.175781 2.914062 3.21875 4.910156 3.21875 Z M 2.054688 -4.0625 C 2.054688 -5.664062 3.21875 -6.8125 4.832031 -6.8125 C 6.464844 -6.8125 7.613281 -5.664062 7.613281 -4.0625 C 7.613281 -2.445312 6.464844 -1.3125 4.832031 -1.3125 C 3.21875 -1.3125 2.054688 -2.445312 2.054688 -4.0625 Z M 2.054688 -4.0625 "/></g></g></g><g fill="#2e2e2e" fill-opacity="1"><g transform="translate(77.167639, 147.489708)"><g><path d="M 3.972656 0.121094 C 5.242188 0.121094 6.238281 -0.285156 6.949219 -1.085938 L 7.082031 0 L 8.125 0 L 8.125 -4.984375 C 8.125 -6.796875 6.75 -8.035156 4.695312 -8.035156 C 2.992188 -8.035156 1.707031 -7.113281 1.359375 -5.601562 L 2.644531 -5.601562 C 2.898438 -6.375 3.699219 -6.855469 4.710938 -6.855469 C 6.042969 -6.855469 6.855469 -6.117188 6.855469 -4.894531 L 6.855469 -4.605469 L 3.65625 -4.605469 C 2.023438 -4.605469 0.953125 -3.683594 0.953125 -2.265625 C 0.953125 -0.785156 2.085938 0.121094 3.972656 0.121094 Z M 2.21875 -2.28125 C 2.21875 -3.019531 2.824219 -3.488281 3.699219 -3.488281 L 6.871094 -3.488281 C 6.828125 -2.039062 5.648438 -1.011719 4.015625 -1.011719 C 2.914062 -1.011719 2.21875 -1.511719 2.21875 -2.28125 Z M 2.21875 -2.28125 "/></g></g></g><g fill="#2e2e2e" fill-opacity="1"><g transform="translate(86.530248, 147.489708)"><g><path d="M 4.816406 0.195312 C 6.78125 0.195312 8.308594 -0.980469 8.835938 -2.882812 L 7.492188 -2.882812 C 7.097656 -1.753906 6.085938 -1.027344 4.816406 -1.027344 C 3.203125 -1.027344 2.054688 -2.21875 2.054688 -3.925781 C 2.054688 -5.617188 3.203125 -6.828125 4.816406 -6.828125 C 6.011719 -6.828125 6.992188 -6.175781 7.460938 -5.089844 L 8.746094 -5.089844 C 8.351562 -6.855469 6.765625 -8.035156 4.816406 -8.035156 C 2.460938 -8.035156 0.785156 -6.3125 0.785156 -3.925781 C 0.785156 -1.527344 2.460938 0.195312 4.816406 0.195312 Z M 4.816406 0.195312 "/></g></g></g><g fill="#2e2e2e" fill-opacity="1"><g transform="translate(96.104269, 147.489708)"><g><path d="M 1.40625 0 L 2.671875 0 L 2.671875 -4.003906 C 2.671875 -5.722656 3.714844 -6.828125 5.195312 -6.828125 C 6.554688 -6.828125 7.402344 -5.859375 7.402344 -4.289062 L 7.402344 0 L 8.667969 0 L 8.667969 -4.410156 C 8.667969 -6.644531 7.429688 -8.035156 5.363281 -8.035156 C 4.351562 -8.035156 3.351562 -7.65625 2.671875 -6.8125 L 2.671875 -11.175781 L 1.40625 -11.175781 Z M 1.40625 0 "/></g></g></g><g fill="#2e2e2e" fill-opacity="1"><g transform="translate(106.025617, 147.489708)"><g><path d="M 1.40625 0 L 2.671875 0 L 2.671875 -7.839844 L 1.40625 -7.839844 Z M 1.011719 -10.117188 C 1.011719 -9.558594 1.417969 -9.136719 2.039062 -9.136719 C 2.65625 -9.136719 3.050781 -9.558594 3.050781 -10.117188 C 3.050781 -10.691406 2.65625 -11.117188 2.039062 -11.117188 C 1.417969 -11.117188 1.011719 -10.691406 1.011719 -10.117188 Z M 1.011719 -10.117188 "/></g></g></g><g fill="#2e2e2e" fill-opacity="1"><g transform="translate(110.102882, 147.489708)"><g><path d="M 4.804688 0.195312 C 6.570312 0.195312 8.019531 -0.753906 8.652344 -2.28125 L 7.21875 -2.28125 C 6.734375 -1.449219 5.84375 -0.996094 4.816406 -0.996094 C 3.324219 -0.996094 2.265625 -1.933594 2.070312 -3.414062 L 8.851562 -3.414062 C 8.941406 -6.148438 7.324219 -8.035156 4.816406 -8.035156 C 2.445312 -8.035156 0.785156 -6.34375 0.785156 -3.925781 C 0.785156 -1.496094 2.429688 0.195312 4.804688 0.195312 Z M 2.085938 -4.53125 C 2.3125 -5.921875 3.367188 -6.839844 4.816406 -6.839844 C 6.253906 -6.839844 7.308594 -5.964844 7.582031 -4.53125 Z M 2.085938 -4.53125 "/></g></g></g><g fill="#2e2e2e" fill-opacity="1"><g transform="translate(119.707107, 147.489708)"><g><path d="M 3.671875 0 L 4.894531 0 L 8.335938 -7.839844 L 6.960938 -7.839844 L 5.875 -5.363281 L 4.289062 -1.691406 L 2.6875 -5.363281 L 1.617188 -7.839844 L 0.242188 -7.839844 Z M 3.671875 0 "/></g></g></g><g fill="#2e2e2e" fill-opacity="1"><g transform="translate(128.284471, 147.489708)"><g><path d="M 4.804688 0.195312 C 6.570312 0.195312 8.019531 -0.753906 8.652344 -2.28125 L 7.21875 -2.28125 C 6.734375 -1.449219 5.84375 -0.996094 4.816406 -0.996094 C 3.324219 -0.996094 2.265625 -1.933594 2.070312 -3.414062 L 8.851562 -3.414062 C 8.941406 -6.148438 7.324219 -8.035156 4.816406 -8.035156 C 2.445312 -8.035156 0.785156 -6.34375 0.785156 -3.925781 C 0.785156 -1.496094 2.429688 0.195312 4.804688 0.195312 Z M 2.085938 -4.53125 C 2.3125 -5.921875 3.367188 -6.839844 4.816406 -6.839844 C 6.253906 -6.839844 7.308594 -5.964844 7.582031 -4.53125 Z M 2.085938 -4.53125 "/></g></g></g><g fill="#2e2e2e" fill-opacity="1"><g transform="translate(137.888696, 147.489708)"><g><path d="M 1.40625 0 L 2.671875 0 L 2.671875 -4.167969 C 2.671875 -5.785156 3.578125 -6.828125 4.9375 -6.828125 C 6.253906 -6.828125 7.082031 -5.828125 7.082031 -4.273438 L 7.082031 0 L 8.351562 0 L 8.351562 -4.167969 C 8.351562 -5.785156 9.257812 -6.828125 10.617188 -6.828125 C 11.929688 -6.828125 12.761719 -5.828125 12.761719 -4.273438 L 12.761719 0 L 14.03125 0 L 14.03125 -4.484375 C 14.03125 -6.675781 12.761719 -8.035156 10.785156 -8.035156 C 9.515625 -8.035156 8.488281 -7.492188 7.867188 -6.496094 C 7.339844 -7.507812 6.375 -8.035156 5.121094 -8.035156 C 4.03125 -8.035156 3.15625 -7.628906 2.566406 -6.855469 L 2.445312 -7.839844 L 1.40625 -7.839844 Z M 1.40625 0 "/></g></g></g><g fill="#2e2e2e" fill-opacity="1"><g transform="translate(153.170895, 147.489708)"><g><path d="M 4.804688 0.195312 C 6.570312 0.195312 8.019531 -0.753906 8.652344 -2.28125 L 7.21875 -2.28125 C 6.734375 -1.449219 5.84375 -0.996094 4.816406 -0.996094 C 3.324219 -0.996094 2.265625 -1.933594 2.070312 -3.414062 L 8.851562 -3.414062 C 8.941406 -6.148438 7.324219 -8.035156 4.816406 -8.035156 C 2.445312 -8.035156 0.785156 -6.34375 0.785156 -3.925781 C 0.785156 -1.496094 2.429688 0.195312 4.804688 0.195312 Z M 2.085938 -4.53125 C 2.3125 -5.921875 3.367188 -6.839844 4.816406 -6.839844 C 6.253906 -6.839844 7.308594 -5.964844 7.582031 -4.53125 Z M 2.085938 -4.53125 "/></g></g></g><g fill="#2e2e2e" fill-opacity="1"><g transform="translate(162.77512, 147.489708)"><g><path d="M 1.40625 0 L 2.671875 0 L 2.671875 -3.957031 C 2.671875 -5.679688 3.714844 -6.828125 5.179688 -6.828125 C 6.554688 -6.828125 7.402344 -5.828125 7.402344 -4.242188 L 7.402344 0 L 8.667969 0 L 8.667969 -4.363281 C 8.667969 -6.601562 7.429688 -8.035156 5.347656 -8.035156 C 4.289062 -8.035156 3.261719 -7.628906 2.582031 -6.691406 L 2.445312 -7.839844 L 1.40625 -7.839844 Z M 1.40625 0 "/></g></g></g><g fill="#2e2e2e" fill-opacity="1"><g transform="translate(172.696468, 147.489708)"><g><path d="M 4.789062 0 L 5.964844 0 L 5.964844 -1.222656 L 4.847656 -1.222656 C 3.804688 -1.222656 3.324219 -1.753906 3.324219 -2.882812 L 3.324219 -6.675781 L 5.859375 -6.675781 L 5.859375 -7.839844 L 3.324219 -7.839844 L 3.324219 -9.785156 L 2.339844 -9.785156 L 2.21875 -8.730469 C 2.128906 -8.019531 1.917969 -7.839844 1.191406 -7.839844 L 0.40625 -7.839844 L 0.40625 -6.675781 L 2.054688 -6.675781 L 2.054688 -2.824219 C 2.054688 -1.027344 3.050781 0 4.789062 0 Z M 4.789062 0 "/></g></g></g><g fill="#2e2e2e" fill-opacity="1"><g transform="translate(179.401304, 147.489708)"><g><path d="M 4.242188 0.195312 C 6.175781 0.195312 7.429688 -0.695312 7.429688 -2.054688 C 7.429688 -3.277344 6.402344 -4.109375 4.425781 -4.5 C 2.792969 -4.816406 2.234375 -5.136719 2.234375 -5.800781 C 2.234375 -6.496094 2.898438 -6.917969 4.03125 -6.917969 C 5.226562 -6.917969 5.933594 -6.449219 6.027344 -5.589844 L 7.28125 -5.589844 C 7.175781 -7.128906 5.949219 -8.035156 4.015625 -8.035156 C 2.128906 -8.035156 0.980469 -7.203125 0.980469 -5.800781 C 0.980469 -4.5625 1.933594 -3.804688 3.957031 -3.472656 C 5.484375 -3.21875 6.175781 -2.792969 6.175781 -2.085938 C 6.175781 -1.375 5.453125 -0.9375 4.257812 -0.9375 C 2.914062 -0.9375 2.113281 -1.511719 2.070312 -2.460938 L 0.816406 -2.460938 C 0.847656 -0.859375 2.191406 0.195312 4.242188 0.195312 Z M 4.242188 0.195312 "/></g></g></g><g fill="#2e2e2e" fill-opacity="1"><g transform="translate(187.646443, 147.489708)"><g/></g></g><g fill="#2e2e2e" fill-opacity="1"><g transform="translate(191.391492, 147.489708)"><g><path d="M 4.789062 0 L 5.964844 0 L 5.964844 -1.222656 L 4.847656 -1.222656 C 3.804688 -1.222656 3.324219 -1.753906 3.324219 -2.882812 L 3.324219 -6.675781 L 5.859375 -6.675781 L 5.859375 -7.839844 L 3.324219 -7.839844 L 3.324219 -9.785156 L 2.339844 -9.785156 L 2.21875 -8.730469 C 2.128906 -8.019531 1.917969 -7.839844 1.191406 -7.839844 L 0.40625 -7.839844 L 0.40625 -6.675781 L 2.054688 -6.675781 L 2.054688 -2.824219 C 2.054688 -1.027344 3.050781 0 4.789062 0 Z M 4.789062 0 "/></g></g></g><g fill="#2e2e2e" fill-opacity="1"><g transform="translate(198.096327, 147.489708)"><g><path d="M 1.40625 0 L 2.671875 0 L 2.671875 -4.003906 C 2.671875 -5.722656 3.714844 -6.828125 5.195312 -6.828125 C 6.554688 -6.828125 7.402344 -5.859375 7.402344 -4.289062 L 7.402344 0 L 8.667969 0 L 8.667969 -4.410156 C 8.667969 -6.644531 7.429688 -8.035156 5.363281 -8.035156 C 4.351562 -8.035156 3.351562 -7.65625 2.671875 -6.8125 L 2.671875 -11.175781 L 1.40625 -11.175781 Z M 1.40625 0 "/></g></g></g><g fill="#2e2e2e" fill-opacity="1"><g transform="translate(208.017675, 147.489708)"><g><path d="M 4.804688 0.195312 C 6.570312 0.195312 8.019531 -0.753906 8.652344 -2.28125 L 7.21875 -2.28125 C 6.734375 -1.449219 5.84375 -0.996094 4.816406 -0.996094 C 3.324219 -0.996094 2.265625 -1.933594 2.070312 -3.414062 L 8.851562 -3.414062 C 8.941406 -6.148438 7.324219 -8.035156 4.816406 -8.035156 C 2.445312 -8.035156 0.785156 -6.34375 0.785156 -3.925781 C 0.785156 -1.496094 2.429688 0.195312 4.804688 0.195312 Z M 2.085938 -4.53125 C 2.3125 -5.921875 3.367188 -6.839844 4.816406 -6.839844 C 6.253906 -6.839844 7.308594 -5.964844 7.582031 -4.53125 Z M 2.085938 -4.53125 "/></g></g></g><g fill="#2e2e2e" fill-opacity="1"><g transform="translate(217.6219, 147.489708)"><g><path d="M 1.132812 3.019531 L 2.023438 3.019531 C 3.488281 3.019531 4.199219 2.65625 4.742188 1.222656 L 8.335938 -7.839844 L 6.992188 -7.839844 L 5.527344 -4.136719 L 4.578125 -1.707031 L 3.429688 -4.136719 L 1.660156 -7.839844 L 0.242188 -7.839844 L 3.957031 -0.179688 L 3.59375 0.738281 C 3.261719 1.617188 2.914062 1.828125 1.902344 1.828125 L 1.132812 1.828125 Z M 1.132812 3.019531 "/></g></g></g><g fill="#2e2e2e" fill-opacity="1"><g transform="translate(226.199264, 147.489708)"><g/></g></g><g fill="#2e2e2e" fill-opacity="1"><g transform="translate(229.944321, 147.489708)"><g><path d="M 1.40625 0 L 2.671875 0 L 2.671875 -4.003906 C 2.671875 -5.722656 3.714844 -6.828125 5.195312 -6.828125 C 6.554688 -6.828125 7.402344 -5.859375 7.402344 -4.289062 L 7.402344 0 L 8.667969 0 L 8.667969 -4.410156 C 8.667969 -6.644531 7.429688 -8.035156 5.363281 -8.035156 C 4.351562 -8.035156 3.351562 -7.65625 2.671875 -6.8125 L 2.671875 -11.175781 L 1.40625 -11.175781 Z M 1.40625 0 "/></g></g></g><g fill="#2e2e2e" fill-opacity="1"><g transform="translate(239.86567, 147.489708)"><g><path d="M 3.972656 0.121094 C 5.242188 0.121094 6.238281 -0.285156 6.949219 -1.085938 L 7.082031 0 L 8.125 0 L 8.125 -4.984375 C 8.125 -6.796875 6.75 -8.035156 4.695312 -8.035156 C 2.992188 -8.035156 1.707031 -7.113281 1.359375 -5.601562 L 2.644531 -5.601562 C 2.898438 -6.375 3.699219 -6.855469 4.710938 -6.855469 C 6.042969 -6.855469 6.855469 -6.117188 6.855469 -4.894531 L 6.855469 -4.605469 L 3.65625 -4.605469 C 2.023438 -4.605469 0.953125 -3.683594 0.953125 -2.265625 C 0.953125 -0.785156 2.085938 0.121094 3.972656 0.121094 Z M 2.21875 -2.28125 C 2.21875 -3.019531 2.824219 -3.488281 3.699219 -3.488281 L 6.871094 -3.488281 C 6.828125 -2.039062 5.648438 -1.011719 4.015625 -1.011719 C 2.914062 -1.011719 2.21875 -1.511719 2.21875 -2.28125 Z M 2.21875 -2.28125 "/></g></g></g><g fill="#2e2e2e" fill-opacity="1"><g transform="translate(249.228287, 147.489708)"><g><path d="M 4.789062 0.195312 C 6.054688 0.195312 7.144531 -0.332031 7.855469 -1.207031 L 8.003906 0 L 9.046875 0 L 9.046875 -11.175781 L 7.777344 -11.175781 L 7.777344 -6.734375 C 7.066406 -7.550781 6.011719 -8.035156 4.789062 -8.035156 C 2.460938 -8.035156 0.785156 -6.296875 0.785156 -3.925781 C 0.785156 -1.539062 2.460938 0.195312 4.789062 0.195312 Z M 2.054688 -3.925781 C 2.054688 -5.617188 3.246094 -6.828125 4.9375 -6.828125 C 6.644531 -6.828125 7.824219 -5.617188 7.824219 -3.925781 C 7.824219 -2.21875 6.644531 -1.027344 4.9375 -1.027344 C 3.246094 -1.027344 2.054688 -2.21875 2.054688 -3.925781 Z M 2.054688 -3.925781 "/></g></g></g><g fill="#2e2e2e" fill-opacity="1"><g transform="translate(259.678163, 147.489708)"><g/></g></g><g fill="#2e2e2e" fill-opacity="1"><g transform="translate(263.423203, 147.489708)"><g><path d="M 1.40625 0 L 2.671875 0 L 2.671875 -7.839844 L 1.40625 -7.839844 Z M 1.011719 -10.117188 C 1.011719 -9.558594 1.417969 -9.136719 2.039062 -9.136719 C 2.65625 -9.136719 3.050781 -9.558594 3.050781 -10.117188 C 3.050781 -10.691406 2.65625 -11.117188 2.039062 -11.117188 C 1.417969 -11.117188 1.011719 -10.691406 1.011719 -10.117188 Z M 1.011719 -10.117188 "/></g></g></g><g fill="#2e2e2e" fill-opacity="1"><g transform="translate(267.500459, 147.489708)"><g><path d="M 1.40625 0 L 2.671875 0 L 2.671875 -3.957031 C 2.671875 -5.679688 3.714844 -6.828125 5.179688 -6.828125 C 6.554688 -6.828125 7.402344 -5.828125 7.402344 -4.242188 L 7.402344 0 L 8.667969 0 L 8.667969 -4.363281 C 8.667969 -6.601562 7.429688 -8.035156 5.347656 -8.035156 C 4.289062 -8.035156 3.261719 -7.628906 2.582031 -6.691406 L 2.445312 -7.839844 L 1.40625 -7.839844 Z M 1.40625 0 "/></g></g></g><g fill="#2e2e2e" fill-opacity="1"><g transform="translate(277.421808, 147.489708)"><g/></g></g><g fill="#2e2e2e" fill-opacity="1"><g transform="translate(281.166865, 147.489708)"><g><path d="M 4.789062 0 L 5.964844 0 L 5.964844 -1.222656 L 4.847656 -1.222656 C 3.804688 -1.222656 3.324219 -1.753906 3.324219 -2.882812 L 3.324219 -6.675781 L 5.859375 -6.675781 L 5.859375 -7.839844 L 3.324219 -7.839844 L 3.324219 -9.785156 L 2.339844 -9.785156 L 2.21875 -8.730469 C 2.128906 -8.019531 1.917969 -7.839844 1.191406 -7.839844 L 0.40625 -7.839844 L 0.40625 -6.675781 L 2.054688 -6.675781 L 2.054688 -2.824219 C 2.054688 -1.027344 3.050781 0 4.789062 0 Z M 4.789062 0 "/></g></g></g><g fill="#2e2e2e" fill-opacity="1"><g transform="translate(287.8717, 147.489708)"><g><path d="M 1.40625 0 L 2.671875 0 L 2.671875 -4.003906 C 2.671875 -5.722656 3.714844 -6.828125 5.195312 -6.828125 C 6.554688 -6.828125 7.402344 -5.859375 7.402344 -4.289062 L 7.402344 0 L 8.667969 0 L 8.667969 -4.410156 C 8.667969 -6.644531 7.429688 -8.035156 5.363281 -8.035156 C 4.351562 -8.035156 3.351562 -7.65625 2.671875 -6.8125 L 2.671875 -11.175781 L 1.40625 -11.175781 Z M 1.40625 0 "/></g></g></g><g fill="#2e2e2e" fill-opacity="1"><g transform="translate(297.793048, 147.489708)"><g><path d="M 4.804688 0.195312 C 6.570312 0.195312 8.019531 -0.753906 8.652344 -2.28125 L 7.21875 -2.28125 C 6.734375 -1.449219 5.84375 -0.996094 4.816406 -0.996094 C 3.324219 -0.996094 2.265625 -1.933594 2.070312 -3.414062 L 8.851562 -3.414062 C 8.941406 -6.148438 7.324219 -8.035156 4.816406 -8.035156 C 2.445312 -8.035156 0.785156 -6.34375 0.785156 -3.925781 C 0.785156 -1.496094 2.429688 0.195312 4.804688 0.195312 Z M 2.085938 -4.53125 C 2.3125 -5.921875 3.367188 -6.839844 4.816406 -6.839844 C 6.253906 -6.839844 7.308594 -5.964844 7.582031 -4.53125 Z M 2.085938 -4.53125 "/></g></g></g><g fill="#2e2e2e" fill-opacity="1"><g transform="translate(77.167639, 168.450591)"><g><path d="M 5.679688 0.195312 C 7.988281 0.195312 9.667969 -1.539062 9.667969 -3.925781 C 9.667969 -6.296875 7.988281 -8.035156 5.679688 -8.035156 C 4.394531 -8.035156 3.308594 -7.507812 2.597656 -6.628906 L 2.445312 -7.839844 L 1.40625 -7.839844 L 1.40625 3.019531 L 2.671875 3.019531 L 2.671875 -1.117188 C 3.382812 -0.300781 4.441406 0.195312 5.679688 0.195312 Z M 2.628906 -3.925781 C 2.628906 -5.617188 3.820312 -6.828125 5.511719 -6.828125 C 7.21875 -6.828125 8.398438 -5.617188 8.398438 -3.925781 C 8.398438 -2.21875 7.21875 -1.027344 5.511719 -1.027344 C 3.820312 -1.027344 2.628906 -2.21875 2.628906 -3.925781 Z M 2.628906 -3.925781 "/></g></g></g><g fill="#2e2e2e" fill-opacity="1"><g transform="translate(87.617523, 168.450591)"><g><path d="M 3.972656 0.121094 C 5.242188 0.121094 6.238281 -0.285156 6.949219 -1.085938 L 7.082031 0 L 8.125 0 L 8.125 -4.984375 C 8.125 -6.796875 6.75 -8.035156 4.695312 -8.035156 C 2.992188 -8.035156 1.707031 -7.113281 1.359375 -5.601562 L 2.644531 -5.601562 C 2.898438 -6.375 3.699219 -6.855469 4.710938 -6.855469 C 6.042969 -6.855469 6.855469 -6.117188 6.855469 -4.894531 L 6.855469 -4.605469 L 3.65625 -4.605469 C 2.023438 -4.605469 0.953125 -3.683594 0.953125 -2.265625 C 0.953125 -0.785156 2.085938 0.121094 3.972656 0.121094 Z M 2.21875 -2.28125 C 2.21875 -3.019531 2.824219 -3.488281 3.699219 -3.488281 L 6.871094 -3.488281 C 6.828125 -2.039062 5.648438 -1.011719 4.015625 -1.011719 C 2.914062 -1.011719 2.21875 -1.511719 2.21875 -2.28125 Z M 2.21875 -2.28125 "/></g></g></g><g fill="#2e2e2e" fill-opacity="1"><g transform="translate(96.980132, 168.450591)"><g><path d="M 4.242188 0.195312 C 6.175781 0.195312 7.429688 -0.695312 7.429688 -2.054688 C 7.429688 -3.277344 6.402344 -4.109375 4.425781 -4.5 C 2.792969 -4.816406 2.234375 -5.136719 2.234375 -5.800781 C 2.234375 -6.496094 2.898438 -6.917969 4.03125 -6.917969 C 5.226562 -6.917969 5.933594 -6.449219 6.027344 -5.589844 L 7.28125 -5.589844 C 7.175781 -7.128906 5.949219 -8.035156 4.015625 -8.035156 C 2.128906 -8.035156 0.980469 -7.203125 0.980469 -5.800781 C 0.980469 -4.5625 1.933594 -3.804688 3.957031 -3.472656 C 5.484375 -3.21875 6.175781 -2.792969 6.175781 -2.085938 C 6.175781 -1.375 5.453125 -0.9375 4.257812 -0.9375 C 2.914062 -0.9375 2.113281 -1.511719 2.070312 -2.460938 L 0.816406 -2.460938 C 0.847656 -0.859375 2.191406 0.195312 4.242188 0.195312 Z M 4.242188 0.195312 "/></g></g></g><g fill="#2e2e2e" fill-opacity="1"><g transform="translate(105.225271, 168.450591)"><g><path d="M 4.789062 0 L 5.964844 0 L 5.964844 -1.222656 L 4.847656 -1.222656 C 3.804688 -1.222656 3.324219 -1.753906 3.324219 -2.882812 L 3.324219 -6.675781 L 5.859375 -6.675781 L 5.859375 -7.839844 L 3.324219 -7.839844 L 3.324219 -9.785156 L 2.339844 -9.785156 L 2.21875 -8.730469 C 2.128906 -8.019531 1.917969 -7.839844 1.191406 -7.839844 L 0.40625 -7.839844 L 0.40625 -6.675781 L 2.054688 -6.675781 L 2.054688 -2.824219 C 2.054688 -1.027344 3.050781 0 4.789062 0 Z M 4.789062 0 "/></g></g></g><g fill="#2e2e2e" fill-opacity="1"><g transform="translate(111.930106, 168.450591)"><g/></g></g><g fill="#2e2e2e" fill-opacity="1"><g transform="translate(115.675155, 168.450591)"><g><path d="M 3.066406 0 L 4.289062 0 L 6.554688 -5.964844 L 7.582031 -3.230469 L 8.835938 0 L 10.042969 0 L 12.851562 -7.839844 L 11.523438 -7.839844 L 10.253906 -4.289062 L 9.425781 -1.902344 L 7.128906 -7.839844 L 5.964844 -7.839844 L 4.621094 -4.289062 L 3.699219 -1.886719 L 2.855469 -4.289062 L 1.601562 -7.839844 L 0.257812 -7.839844 Z M 3.066406 0 "/></g></g></g><g fill="#2e2e2e" fill-opacity="1"><g transform="translate(128.782813, 168.450591)"><g><path d="M 4.804688 0.195312 C 6.570312 0.195312 8.019531 -0.753906 8.652344 -2.28125 L 7.21875 -2.28125 C 6.734375 -1.449219 5.84375 -0.996094 4.816406 -0.996094 C 3.324219 -0.996094 2.265625 -1.933594 2.070312 -3.414062 L 8.851562 -3.414062 C 8.941406 -6.148438 7.324219 -8.035156 4.816406 -8.035156 C 2.445312 -8.035156 0.785156 -6.34375 0.785156 -3.925781 C 0.785156 -1.496094 2.429688 0.195312 4.804688 0.195312 Z M 2.085938 -4.53125 C 2.3125 -5.921875 3.367188 -6.839844 4.816406 -6.839844 C 6.253906 -6.839844 7.308594 -5.964844 7.582031 -4.53125 Z M 2.085938 -4.53125 "/></g></g></g><g fill="#2e2e2e" fill-opacity="1"><g transform="translate(138.387038, 168.450591)"><g><path d="M 4.804688 0.195312 C 6.570312 0.195312 8.019531 -0.753906 8.652344 -2.28125 L 7.21875 -2.28125 C 6.734375 -1.449219 5.84375 -0.996094 4.816406 -0.996094 C 3.324219 -0.996094 2.265625 -1.933594 2.070312 -3.414062 L 8.851562 -3.414062 C 8.941406 -6.148438 7.324219 -8.035156 4.816406 -8.035156 C 2.445312 -8.035156 0.785156 -6.34375 0.785156 -3.925781 C 0.785156 -1.496094 2.429688 0.195312 4.804688 0.195312 Z M 2.085938 -4.53125 C 2.3125 -5.921875 3.367188 -6.839844 4.816406 -6.839844 C 6.253906 -6.839844 7.308594 -5.964844 7.582031 -4.53125 Z M 2.085938 -4.53125 "/></g></g></g><g fill="#2e2e2e" fill-opacity="1"><g transform="translate(147.991262, 168.450591)"><g><path d="M 1.40625 0 L 2.671875 0 L 2.671875 -3.382812 L 3.609375 -3.382812 C 3.972656 -3.382812 4.304688 -3.398438 4.605469 -3.457031 L 6.765625 0 L 8.277344 0 L 5.828125 -3.882812 C 6.402344 -4.242188 6.8125 -4.832031 7.128906 -5.695312 L 7.914062 -7.839844 L 6.554688 -7.839844 L 5.964844 -6.160156 C 5.527344 -4.894531 4.921875 -4.5625 3.65625 -4.5625 L 2.671875 -4.5625 L 2.671875 -11.175781 L 1.40625 -11.175781 Z M 1.40625 0 "/></g></g></g><g fill="#2e2e2e" fill-opacity="1"><g transform="translate(156.795141, 168.450591)"><g><path d="M 1.933594 0.121094 C 2.550781 0.121094 2.960938 -0.300781 2.960938 -0.875 C 2.960938 -1.449219 2.550781 -1.859375 1.933594 -1.859375 C 1.328125 -1.859375 0.921875 -1.449219 0.921875 -0.875 C 0.921875 -0.300781 1.328125 0.121094 1.933594 0.121094 Z M 1.933594 0.121094 "/></g></g></g><g clip-path="url(#ef6bcff3bc)"><g clip-path="url(#82b17e3b91)"><g clip-path="url(#72bfad1fd0)"><path fill="#84caed" d="M 240.777344 322.160156 C 245.007812 328.261719 246.957031 335.945312 245.65625 343.828125 C 242.992188 360.027344 227.632812 371.007812 211.375 368.332031 C 199.148438 366.320312 189.894531 357.179688 187.191406 345.886719 C 180.894531 355.28125 169.46875 360.699219 157.523438 358.730469 C 141.265625 356.054688 130.234375 340.734375 132.898438 324.535156 C 134.167969 316.835938 138.320312 310.320312 144.03125 305.882812 C 134.367188 299.621094 128.785156 288.078125 130.761719 276.050781 C 133.429688 259.847656 148.789062 248.871094 165.046875 251.546875 C 167.550781 251.960938 169.90625 252.667969 172.089844 253.632812 C 172.085938 251.90625 172.179688 250.160156 172.46875 248.417969 C 175.132812 232.214844 190.492188 221.238281 206.753906 223.914062 C 223.011719 226.589844 234.042969 241.910156 231.375 258.113281 C 231.050781 260.074219 230.550781 261.945312 229.875 263.71875 C 232.90625 263.257812 236.054688 263.234375 239.277344 263.765625 C 255.535156 266.441406 266.566406 281.761719 263.902344 297.960938 C 261.832031 310.328125 252.367188 319.648438 240.777344 322.160156 Z M 240.777344 322.160156 " fill-opacity="1" fill-rule="nonzero"/></g></g></g><g clip-path="url(#950b43636e)"><g clip-path="url(#eb9dbc1a97)"><g clip-path="url(#c67e5d678f)"><path fill="#f5f5ef" d="M 196.28125 285.203125 C 195.027344 292.804688 187.828125 297.921875 180.230469 296.671875 C 172.632812 295.421875 167.457031 288.234375 168.703125 280.664062 C 169.949219 273.089844 177.15625 267.941406 184.753906 269.191406 C 192.351562 270.441406 197.527344 277.628906 196.28125 285.203125 Z M 214.925781 274.15625 C 207.296875 272.902344 200.121094 278.058594 198.875 285.628906 C 197.628906 293.199219 202.804688 300.386719 210.402344 301.636719 C 218 302.890625 225.207031 297.738281 226.453125 290.167969 C 227.699219 282.597656 222.523438 275.40625 214.925781 274.15625 Z M 214.925781 274.15625 " fill-opacity="1" fill-rule="nonzero"/></g></g></g><g clip-path="url(#cc94bb8c52)"><g clip-path="url(#693dc5b63f)"><g clip-path="url(#96f5d9916c)"><path fill="#ff7f1d" d="M 235.339844 308.75 C 234.566406 313.457031 230.089844 316.65625 225.367188 315.878906 C 220.648438 315.101562 217.433594 310.636719 218.207031 305.929688 C 218.980469 301.226562 223.457031 298.027344 228.179688 298.804688 C 232.902344 299.582031 236.117188 304.046875 235.339844 308.75 Z M 164.261719 288.316406 C 159.542969 287.539062 155.066406 290.738281 154.289062 295.445312 C 153.515625 300.148438 156.730469 304.613281 161.453125 305.390625 C 166.175781 306.167969 170.652344 302.96875 171.425781 298.265625 C 172.203125 293.527344 169.015625 289.097656 164.261719 288.316406 Z M 164.261719 288.316406 " fill-opacity="1" fill-rule="nonzero"/></g></g></g><g clip-path="url(#2ca312a872)"><g clip-path="url(#09d45231c6)"><g clip-path="url(#9955ba573e)"><path fill="#2e2e2e" d="M 193.195312 316.441406 C 180.4375 314.339844 171.503906 305.796875 167.171875 300.699219 C 165.957031 299.285156 166.144531 297.171875 167.566406 295.964844 C 168.984375 294.757812 171.105469 294.945312 172.316406 296.363281 C 179.765625 305.140625 195.691406 317.84375 219.03125 304.050781 C 220.632812 303.097656 222.695312 303.628906 223.652344 305.226562 C 224.609375 306.824219 224.078125 308.882812 222.476562 309.835938 C 211.265625 316.5 201.417969 317.792969 193.195312 316.441406 Z M 193.195312 316.441406 " fill-opacity="1" fill-rule="nonzero"/></g></g></g><g clip-path="url(#afea385a71)"><g clip-path="url(#5e93335857)"><g clip-path="url(#55a76125f1)"><path fill="#2e2e2e" d="M 190.871094 284.3125 C 190.113281 288.921875 185.738281 292.074219 181.082031 291.308594 C 176.453125 290.546875 173.285156 286.183594 174.050781 281.542969 C 174.8125 276.898438 179.179688 273.777344 183.839844 274.546875 C 188.5 275.3125 191.628906 279.699219 190.871094 284.3125 Z M 214.042969 279.515625 C 209.417969 278.753906 205.015625 281.871094 204.253906 286.511719 C 203.488281 291.15625 206.625 295.511719 211.285156 296.28125 C 215.914062 297.042969 220.3125 293.925781 221.074219 289.28125 C 221.839844 284.640625 218.671875 280.277344 214.042969 279.515625 Z M 214.042969 279.515625 " fill-opacity="1" fill-rule="nonzero"/></g></g></g></svg>